solid OpenSCAD_Model
  facet normal -1 0 0
    outer loop
      vertex 0 0 0
      vertex 0 40 1
      vertex 0 40 0
    endloop
  endfacet
  facet normal -1 -0 0
    outer loop
      vertex 0 40 1
      vertex 0 0 0
      vertex 0 0 1
    endloop
  endfacet
  facet normal 0 0 1
    outer loop
      vertex 27 40 1
      vertex 25 38 1
      vertex 27 0 1
    endloop
  endfacet
  facet normal 0 0 1
    outer loop
      vertex 27 40 1
      vertex 2 38 1
      vertex 25 38 1
    endloop
  endfacet
  facet normal 0 0 1
    outer loop
      vertex 2 38 1
      vertex 0 40 1
      vertex 2 2 1
    endloop
  endfacet
  facet normal -0 0 1
    outer loop
      vertex 0 40 1
      vertex 2 38 1
      vertex 27 40 1
    endloop
  endfacet
  facet normal -0 0 1
    outer loop
      vertex 25 2 1
      vertex 27 0 1
      vertex 25 38 1
    endloop
  endfacet
  facet normal -0 0 1
    outer loop
      vertex 2 2 1
      vertex 27 0 1
      vertex 25 2 1
    endloop
  endfacet
  facet normal 0 0 1
    outer loop
      vertex 2 2 1
      vertex 0 0 1
      vertex 27 0 1
    endloop
  endfacet
  facet normal 0 0 1
    outer loop
      vertex 0 0 1
      vertex 2 2 1
      vertex 0 40 1
    endloop
  endfacet
  facet normal 1 -0 0
    outer loop
      vertex 27 0 1
      vertex 27 40 0
      vertex 27 40 1
    endloop
  endfacet
  facet normal 1 0 0
    outer loop
      vertex 27 40 0
      vertex 27 0 1
      vertex 27 0 0
    endloop
  endfacet
  facet normal 0 0 -1
    outer loop
      vertex 0 0 0
      vertex 27 40 0
      vertex 27 0 0
    endloop
  endfacet
  facet normal -0 0 -1
    outer loop
      vertex 27 40 0
      vertex 0 0 0
      vertex 0 40 0
    endloop
  endfacet
  facet normal 0 -1 0
    outer loop
      vertex 0 0 0
      vertex 27 0 1
      vertex 0 0 1
    endloop
  endfacet
  facet normal 0 -1 -0
    outer loop
      vertex 27 0 1
      vertex 0 0 0
      vertex 27 0 0
    endloop
  endfacet
  facet normal 0 1 -0
    outer loop
      vertex 27 40 0
      vertex 0 40 1
      vertex 27 40 1
    endloop
  endfacet
  facet normal 0 1 0
    outer loop
      vertex 0 40 1
      vertex 27 40 0
      vertex 0 40 0
    endloop
  endfacet
  facet normal -1 0 0
    outer loop
      vertex 2 2 1
      vertex 2 38 6
      vertex 2 38 1
    endloop
  endfacet
  facet normal -1 -0 0
    outer loop
      vertex 2 38 6
      vertex 2 2 1
      vertex 2 2 6
    endloop
  endfacet
  facet normal -0 0 1
    outer loop
      vertex 2 38 6
      vertex 25 2 6
      vertex 25 38 6
    endloop
  endfacet
  facet normal 0 0 1
    outer loop
      vertex 25 2 6
      vertex 2 38 6
      vertex 2 2 6
    endloop
  endfacet
  facet normal 1 -0 0
    outer loop
      vertex 25 2 6
      vertex 25 38 1
      vertex 25 38 6
    endloop
  endfacet
  facet normal 1 0 0
    outer loop
      vertex 25 38 1
      vertex 25 2 6
      vertex 25 2 1
    endloop
  endfacet
  facet normal 0 1 -0
    outer loop
      vertex 25 38 1
      vertex 2 38 6
      vertex 25 38 6
    endloop
  endfacet
  facet normal 0 1 0
    outer loop
      vertex 2 38 6
      vertex 25 38 1
      vertex 2 38 1
    endloop
  endfacet
  facet normal 0 -1 0
    outer loop
      vertex 2 2 1
      vertex 25 2 6
      vertex 2 2 6
    endloop
  endfacet
  facet normal 0 -1 -0
    outer loop
      vertex 25 2 6
      vertex 2 2 1
      vertex 25 2 1
    endloop
  endfacet
endsolid OpenSCAD_Model
