solid OpenSCAD_Model
  facet normal -1 0 0
    outer loop
      vertex 0 0 0
      vertex 0 58 2
      vertex 0 58 0
    endloop
  endfacet
  facet normal -1 -0 0
    outer loop
      vertex 0 58 2
      vertex 0 0 0
      vertex 0 0 2
    endloop
  endfacet
  facet normal 0 0 1
    outer loop
      vertex 30 58 2
      vertex 15 29 2
      vertex 30 29 2
    endloop
  endfacet
  facet normal 0 0 1
    outer loop
      vertex 15 29 2
      vertex 12 27 2
      vertex 15 27 2
    endloop
  endfacet
  facet normal -0 0 1
    outer loop
      vertex 0 58 2
      vertex 15 29 2
      vertex 30 58 2
    endloop
  endfacet
  facet normal 0 0 1
    outer loop
      vertex 0 0 2
      vertex 12 27 2
      vertex 0 58 2
    endloop
  endfacet
  facet normal 0 0 1
    outer loop
      vertex 15 29 2
      vertex 0 58 2
      vertex 12 27 2
    endloop
  endfacet
  facet normal -0 0 1
    outer loop
      vertex 12 2 2
      vertex 15 0 2
      vertex 15 2 2
    endloop
  endfacet
  facet normal 0 0 1
    outer loop
      vertex 12 2 2
      vertex 0 0 2
      vertex 15 0 2
    endloop
  endfacet
  facet normal 0 0 1
    outer loop
      vertex 12 27 2
      vertex 0 0 2
      vertex 12 2 2
    endloop
  endfacet
  facet normal 1 0 0
    outer loop
      vertex 30 29 24
      vertex 30 0 24
      vertex 30 29 2
    endloop
  endfacet
  facet normal 1 -0 0
    outer loop
      vertex 30 29 2
      vertex 30 58 0
      vertex 30 58 2
    endloop
  endfacet
  facet normal 1 0 0
    outer loop
      vertex 30 29 2
      vertex 30 0 0
      vertex 30 58 0
    endloop
  endfacet
  facet normal 1 0 0
    outer loop
      vertex 30 0 0
      vertex 30 29 2
      vertex 30 0 24
    endloop
  endfacet
  facet normal 0 0 -1
    outer loop
      vertex 29 27 0
      vertex 30 0 0
      vertex 29 2 0
    endloop
  endfacet
  facet normal 0 0 -1
    outer loop
      vertex 30 0 0
      vertex 12 2 0
      vertex 29 2 0
    endloop
  endfacet
  facet normal -0 0 -1
    outer loop
      vertex 12 2 0
      vertex 0 0 0
      vertex 12 27 0
    endloop
  endfacet
  facet normal 0 0 -1
    outer loop
      vertex 0 0 0
      vertex 12 2 0
      vertex 30 0 0
    endloop
  endfacet
  facet normal 0 0 -1
    outer loop
      vertex 30 0 0
      vertex 29 27 0
      vertex 30 58 0
    endloop
  endfacet
  facet normal 0 0 -1
    outer loop
      vertex 12 27 0
      vertex 30 58 0
      vertex 29 27 0
    endloop
  endfacet
  facet normal 0 0 -1
    outer loop
      vertex 12 27 0
      vertex 0 58 0
      vertex 30 58 0
    endloop
  endfacet
  facet normal 0 0 -1
    outer loop
      vertex 0 58 0
      vertex 12 27 0
      vertex 0 0 0
    endloop
  endfacet
  facet normal 0 -1 0
    outer loop
      vertex 0 0 2
      vertex 0 0 0
      vertex 15 0 2
    endloop
  endfacet
  facet normal 0 -1 0
    outer loop
      vertex 15 0 2
      vertex 30 0 24
      vertex 15 0 24
    endloop
  endfacet
  facet normal 0 -1 0
    outer loop
      vertex 15 0 2
      vertex 30 0 0
      vertex 30 0 24
    endloop
  endfacet
  facet normal 0 -1 0
    outer loop
      vertex 30 0 0
      vertex 15 0 2
      vertex 0 0 0
    endloop
  endfacet
  facet normal 0 1 -0
    outer loop
      vertex 30 58 0
      vertex 0 58 2
      vertex 30 58 2
    endloop
  endfacet
  facet normal 0 1 0
    outer loop
      vertex 0 58 2
      vertex 30 58 0
      vertex 0 58 0
    endloop
  endfacet
  facet normal -1 0 0
    outer loop
      vertex 15 2 2
      vertex 15 0 2
      vertex 15 2 22
    endloop
  endfacet
  facet normal -1 0 0
    outer loop
      vertex 15 27 22
      vertex 15 29 2
      vertex 15 27 2
    endloop
  endfacet
  facet normal -1 0 0
    outer loop
      vertex 15 29 2
      vertex 15 27 22
      vertex 15 29 24
    endloop
  endfacet
  facet normal -1 0 0
    outer loop
      vertex 15 2 22
      vertex 15 29 24
      vertex 15 27 22
    endloop
  endfacet
  facet normal -1 0 0
    outer loop
      vertex 15 2 22
      vertex 15 0 24
      vertex 15 29 24
    endloop
  endfacet
  facet normal -1 0 0
    outer loop
      vertex 15 0 24
      vertex 15 2 22
      vertex 15 0 2
    endloop
  endfacet
  facet normal -0 0 1
    outer loop
      vertex 15 29 24
      vertex 30 0 24
      vertex 30 29 24
    endloop
  endfacet
  facet normal 0 0 1
    outer loop
      vertex 30 0 24
      vertex 15 29 24
      vertex 15 0 24
    endloop
  endfacet
  facet normal 0 1 -0
    outer loop
      vertex 30 29 2
      vertex 15 29 24
      vertex 30 29 24
    endloop
  endfacet
  facet normal 0 1 0
    outer loop
      vertex 15 29 24
      vertex 30 29 2
      vertex 15 29 2
    endloop
  endfacet
  facet normal 1 -0 0
    outer loop
      vertex 12 2 2
      vertex 12 27 0
      vertex 12 27 2
    endloop
  endfacet
  facet normal 1 0 0
    outer loop
      vertex 12 27 0
      vertex 12 2 2
      vertex 12 2 0
    endloop
  endfacet
  facet normal 0 0 -1
    outer loop
      vertex 15 2 22
      vertex 29 27 22
      vertex 29 2 22
    endloop
  endfacet
  facet normal -0 0 -1
    outer loop
      vertex 29 27 22
      vertex 15 2 22
      vertex 15 27 22
    endloop
  endfacet
  facet normal -1 0 0
    outer loop
      vertex 29 2 0
      vertex 29 27 22
      vertex 29 27 0
    endloop
  endfacet
  facet normal -1 -0 0
    outer loop
      vertex 29 27 22
      vertex 29 2 0
      vertex 29 2 22
    endloop
  endfacet
  facet normal 0 -1 0
    outer loop
      vertex 12 27 2
      vertex 12 27 0
      vertex 15 27 2
    endloop
  endfacet
  facet normal 0 -1 0
    outer loop
      vertex 15 27 2
      vertex 29 27 22
      vertex 15 27 22
    endloop
  endfacet
  facet normal 0 -1 0
    outer loop
      vertex 15 27 2
      vertex 29 27 0
      vertex 29 27 22
    endloop
  endfacet
  facet normal 0 -1 0
    outer loop
      vertex 29 27 0
      vertex 15 27 2
      vertex 12 27 0
    endloop
  endfacet
  facet normal 0 1 0
    outer loop
      vertex 29 2 22
      vertex 15 2 2
      vertex 15 2 22
    endloop
  endfacet
  facet normal 0 1 -0
    outer loop
      vertex 29 2 0
      vertex 15 2 2
      vertex 29 2 22
    endloop
  endfacet
  facet normal 0 1 0
    outer loop
      vertex 12 2 0
      vertex 15 2 2
      vertex 29 2 0
    endloop
  endfacet
  facet normal 0 1 0
    outer loop
      vertex 15 2 2
      vertex 12 2 0
      vertex 12 2 2
    endloop
  endfacet
endsolid OpenSCAD_Model
