solid OpenSCAD_Model
  facet normal 2.22045e-016 0 -1
    outer loop
      vertex 16 -55 3.55271e-015
      vertex 15.6504 -3.32659 3.47508e-015
      vertex 16 -1.26757e-013 3.55271e-015
    endloop
  endfacet
  facet normal 2.22045e-016 0 -1
    outer loop
      vertex 16 -55 3.55271e-015
      vertex 14.6167 -6.50779 3.24557e-015
      vertex 15.6504 -3.32659 3.47508e-015
    endloop
  endfacet
  facet normal 2.22045e-016 0 -1
    outer loop
      vertex 16 -55 3.55271e-015
      vertex 12.9443 -9.40456 2.87421e-015
      vertex 14.6167 -6.50779 3.24557e-015
    endloop
  endfacet
  facet normal 2.22045e-016 0 -1
    outer loop
      vertex 16 -55 3.55271e-015
      vertex 10.7061 -11.8903 2.37723e-015
      vertex 12.9443 -9.40456 2.87421e-015
    endloop
  endfacet
  facet normal 2.22045e-016 0 -1
    outer loop
      vertex 16 -55 3.55271e-015
      vertex 8 -13.8564 1.77636e-015
      vertex 10.7061 -11.8903 2.37723e-015
    endloop
  endfacet
  facet normal 2.22045e-016 0 -1
    outer loop
      vertex 16 -55 3.55271e-015
      vertex 4.94427 -15.2169 1.09785e-015
      vertex 8 -13.8564 1.77636e-015
    endloop
  endfacet
  facet normal 2.22045e-016 0 -1
    outer loop
      vertex 16 -55 3.55271e-015
      vertex 1.67245 -15.9123 3.7136e-016
      vertex 4.94427 -15.2169 1.09785e-015
    endloop
  endfacet
  facet normal 2.22045e-016 -8.68838e-031 -1
    outer loop
      vertex 16 -55 3.55271e-015
      vertex -1.68559e-014 -15.9123 0
      vertex 1.67245 -15.9123 3.7136e-016
    endloop
  endfacet
  facet normal 2.22045e-016 9.22599e-032 -1
    outer loop
      vertex -19 -55 -4.21885e-015
      vertex -1.68559e-014 -15.9123 0
      vertex 16 -55 3.55271e-015
    endloop
  endfacet
  facet normal 2.22045e-016 -2.48967e-031 -1
    outer loop
      vertex -4.48075 -13.7903 -9.94926e-016
      vertex -1.68559e-014 -15.9123 0
      vertex -19 -55 -4.21885e-015
    endloop
  endfacet
  facet normal 2.22045e-016 -3.18454e-030 -1
    outer loop
      vertex -1.68559e-014 -15.9123 0
      vertex -4.48075 -13.7903 -9.94926e-016
      vertex -1.51566 -14.4206 -3.36545e-016
    endloop
  endfacet
  facet normal 2.22045e-016 0 -1
    outer loop
      vertex -4.48075 -13.7903 -9.94926e-016
      vertex -19 -55 -4.21885e-015
      vertex -7.25 -12.5574 -1.60982e-015
    endloop
  endfacet
  facet normal 2.22045e-016 0 -1
    outer loop
      vertex -7.25 -12.5574 -1.60982e-015
      vertex -19 -55 -4.21885e-015
      vertex -9.70239 -10.7756 -2.15436e-015
    endloop
  endfacet
  facet normal 2.22045e-016 0 -1
    outer loop
      vertex -14.1831 -3.01472 -3.14929e-015
      vertex -19 -55 -4.21885e-015
      vertex -14.5 0 -3.21965e-015
    endloop
  endfacet
  facet normal 2.22045e-016 0 -1
    outer loop
      vertex -13.2464 -5.89768 -2.94129e-015
      vertex -19 -55 -4.21885e-015
      vertex -14.1831 -3.01472 -3.14929e-015
    endloop
  endfacet
  facet normal 2.22045e-016 0 -1
    outer loop
      vertex -11.7307 -8.52289 -2.60475e-015
      vertex -19 -55 -4.21885e-015
      vertex -13.2464 -5.89768 -2.94129e-015
    endloop
  endfacet
  facet normal 2.22045e-016 0 -1
    outer loop
      vertex -9.70239 -10.7756 -2.15436e-015
      vertex -19 -55 -4.21885e-015
      vertex -11.7307 -8.52289 -2.60475e-015
    endloop
  endfacet
  facet normal 2.22045e-016 -4.93041e-032 -1
    outer loop
      vertex -1.65247e-014 -14.4206 0
      vertex -1.68559e-014 -15.9123 0
      vertex -1.51566 -14.4206 -3.36545e-016
    endloop
  endfacet
  facet normal 2.22045e-016 0 -1
    outer loop
      vertex 15.6504 3.32659 3.47508e-015
      vertex 16 55 3.55271e-015
      vertex 16 1.26757e-013 3.55271e-015
    endloop
  endfacet
  facet normal 2.22045e-016 0 -1
    outer loop
      vertex 14.6167 6.50779 3.24557e-015
      vertex 16 55 3.55271e-015
      vertex 15.6504 3.32659 3.47508e-015
    endloop
  endfacet
  facet normal 2.22045e-016 0 -1
    outer loop
      vertex 12.9443 9.40456 2.87421e-015
      vertex 16 55 3.55271e-015
      vertex 14.6167 6.50779 3.24557e-015
    endloop
  endfacet
  facet normal 2.22045e-016 0 -1
    outer loop
      vertex 10.7061 11.8903 2.37723e-015
      vertex 16 55 3.55271e-015
      vertex 12.9443 9.40456 2.87421e-015
    endloop
  endfacet
  facet normal 2.22045e-016 0 -1
    outer loop
      vertex 8 13.8564 1.77636e-015
      vertex 16 55 3.55271e-015
      vertex 10.7061 11.8903 2.37723e-015
    endloop
  endfacet
  facet normal 2.22045e-016 0 -1
    outer loop
      vertex 4.94427 15.2169 1.09785e-015
      vertex 16 55 3.55271e-015
      vertex 8 13.8564 1.77636e-015
    endloop
  endfacet
  facet normal 2.22045e-016 0 -1
    outer loop
      vertex 1.67245 15.9123 3.7136e-016
      vertex 16 55 3.55271e-015
      vertex 4.94427 15.2169 1.09785e-015
    endloop
  endfacet
  facet normal 2.22045e-016 4.70621e-031 -1
    outer loop
      vertex -9.78942e-015 15.9123 0
      vertex 16 55 3.55271e-015
      vertex 1.67245 15.9123 3.7136e-016
    endloop
  endfacet
  facet normal 2.22045e-016 -8.72233e-032 -1
    outer loop
      vertex -1.51566 14.4206 -3.36545e-016
      vertex -9.78942e-015 15.9123 0
      vertex -1.01207e-014 14.4206 0
    endloop
  endfacet
  facet normal 2.22045e-016 1.81974e-030 -1
    outer loop
      vertex -4.48075 13.7903 -9.94926e-016
      vertex -9.78942e-015 15.9123 0
      vertex -1.51566 14.4206 -3.36545e-016
    endloop
  endfacet
  facet normal 2.22045e-016 1.46451e-031 -1
    outer loop
      vertex -9.78942e-015 15.9123 0
      vertex -4.48075 13.7903 -9.94926e-016
      vertex -19 55 -4.21885e-015
    endloop
  endfacet
  facet normal 2.22045e-016 0 -1
    outer loop
      vertex -19 55 -4.21885e-015
      vertex -4.48075 13.7903 -9.94926e-016
      vertex -7.25 12.5574 -1.60982e-015
    endloop
  endfacet
  facet normal 2.22045e-016 0 -1
    outer loop
      vertex -19 55 -4.21885e-015
      vertex -7.25 12.5574 -1.60982e-015
      vertex -9.70239 10.7756 -2.15436e-015
    endloop
  endfacet
  facet normal 2.22045e-016 0 -1
    outer loop
      vertex -19 55 -4.21885e-015
      vertex -9.70239 10.7756 -2.15436e-015
      vertex -11.7307 8.52289 -2.60475e-015
    endloop
  endfacet
  facet normal 2.22045e-016 -6.45819e-032 -1
    outer loop
      vertex -9.78942e-015 15.9123 0
      vertex -19 55 -4.21885e-015
      vertex 16 55 3.55271e-015
    endloop
  endfacet
  facet normal 2.22045e-016 0 -1
    outer loop
      vertex -13.2464 5.89768 -2.94129e-015
      vertex -19 55 -4.21885e-015
      vertex -11.7307 8.52289 -2.60475e-015
    endloop
  endfacet
  facet normal 2.22045e-016 0 -1
    outer loop
      vertex -14.1831 3.01472 -3.14929e-015
      vertex -19 55 -4.21885e-015
      vertex -13.2464 5.89768 -2.94129e-015
    endloop
  endfacet
  facet normal 2.22045e-016 0 -1
    outer loop
      vertex -14.5 0 -3.21965e-015
      vertex -19 55 -4.21885e-015
      vertex -14.1831 3.01472 -3.14929e-015
    endloop
  endfacet
  facet normal 2.22045e-016 0 -1
    outer loop
      vertex -19 55 -4.21885e-015
      vertex -14.5 0 -3.21965e-015
      vertex -19 -55 -4.21885e-015
    endloop
  endfacet
  facet normal 0 -1 0
    outer loop
      vertex -19 -55 35
      vertex 16 -55 3.55271e-015
      vertex 16 -55 35
    endloop
  endfacet
  facet normal -0 -1 0
    outer loop
      vertex 16 -55 3.55271e-015
      vertex -19 -55 35
      vertex -19 -55 -4.21885e-015
    endloop
  endfacet
  facet normal -0 0 1
    outer loop
      vertex -19 50 30
      vertex 16 16 30
      vertex 16 50 30
    endloop
  endfacet
  facet normal 0 0 1
    outer loop
      vertex 16 16 30
      vertex -19 50 30
      vertex -19 16 30
    endloop
  endfacet
  facet normal -0 0 1
    outer loop
      vertex -19 -19 30
      vertex 16 -50 30
      vertex 16 -19 30
    endloop
  endfacet
  facet normal 0 0 1
    outer loop
      vertex 16 -50 30
      vertex -19 -19 30
      vertex -19 -50 30
    endloop
  endfacet
  facet normal -1 0 0
    outer loop
      vertex -19 55 -4.21885e-015
      vertex -19 50 30
      vertex -19 55 35
    endloop
  endfacet
  facet normal -1 0 0
    outer loop
      vertex -19 55 -4.21885e-015
      vertex -19 16 7.99361e-015
      vertex -19 50 30
    endloop
  endfacet
  facet normal -1 0 0
    outer loop
      vertex -19 55 -4.21885e-015
      vertex -19 -19 7.99361e-015
      vertex -19 16 7.99361e-015
    endloop
  endfacet
  facet normal -1 0 0
    outer loop
      vertex -19 -19 7.99361e-015
      vertex -19 -50 30
      vertex -19 -19 30
    endloop
  endfacet
  facet normal -1 0 0
    outer loop
      vertex -19 -55 -4.21885e-015
      vertex -19 -19 7.99361e-015
      vertex -19 55 -4.21885e-015
    endloop
  endfacet
  facet normal -1 0 0
    outer loop
      vertex -19 -55 -4.21885e-015
      vertex -19 -50 30
      vertex -19 -19 7.99361e-015
    endloop
  endfacet
  facet normal -1 0 0
    outer loop
      vertex -19 -55 35
      vertex -19 -50 30
      vertex -19 -55 -4.21885e-015
    endloop
  endfacet
  facet normal -1 0 0
    outer loop
      vertex -19 -50 30
      vertex -19 -55 35
      vertex -19 -50 35
    endloop
  endfacet
  facet normal -1 -0 0
    outer loop
      vertex -19 55 35
      vertex -19 50 30
      vertex -19 50 35
    endloop
  endfacet
  facet normal -1 -0 0
    outer loop
      vertex -19 50 30
      vertex -19 16 7.99361e-015
      vertex -19 16 30
    endloop
  endfacet
  facet normal 0 1 -0
    outer loop
      vertex 16 55 3.55271e-015
      vertex -19 55 35
      vertex 16 55 35
    endloop
  endfacet
  facet normal 0 1 0
    outer loop
      vertex -19 55 35
      vertex 16 55 3.55271e-015
      vertex -19 55 -4.21885e-015
    endloop
  endfacet
  facet normal 1 0 0
    outer loop
      vertex 16 -50 35
      vertex 16 -55 35
      vertex 16 -50 30
    endloop
  endfacet
  facet normal 1 0 0
    outer loop
      vertex 16 -19 30
      vertex 16 -50 30
      vertex 16 -19 1.57652e-014
    endloop
  endfacet
  facet normal 1 -0 0
    outer loop
      vertex 16 -19 1.57652e-014
      vertex 16 -1.26757e-013 3.55271e-015
      vertex 16 -1.26757e-013 1.57652e-014
    endloop
  endfacet
  facet normal 1 0 0
    outer loop
      vertex 16 -19 1.57652e-014
      vertex 16 -55 3.55271e-015
      vertex 16 -1.26757e-013 3.55271e-015
    endloop
  endfacet
  facet normal 1 0 0
    outer loop
      vertex 16 -50 30
      vertex 16 -55 3.55271e-015
      vertex 16 -19 1.57652e-014
    endloop
  endfacet
  facet normal 1 0 0
    outer loop
      vertex 16 -55 3.55271e-015
      vertex 16 -50 30
      vertex 16 -55 35
    endloop
  endfacet
  facet normal 1 0 0
    outer loop
      vertex 16 50 30
      vertex 16 55 35
      vertex 16 50 35
    endloop
  endfacet
  facet normal 1 0 0
    outer loop
      vertex 16 55 35
      vertex 16 50 30
      vertex 16 55 3.55271e-015
    endloop
  endfacet
  facet normal 1 0 0
    outer loop
      vertex 16 16 1.57652e-014
      vertex 16 50 30
      vertex 16 16 30
    endloop
  endfacet
  facet normal 1 0 0
    outer loop
      vertex 16 50 30
      vertex 16 16 1.57652e-014
      vertex 16 55 3.55271e-015
    endloop
  endfacet
  facet normal 1 0 0
    outer loop
      vertex 16 1.26757e-013 3.55271e-015
      vertex 16 16 1.57652e-014
      vertex 16 1.26757e-013 1.57652e-014
    endloop
  endfacet
  facet normal 1 0 0
    outer loop
      vertex 16 16 1.57652e-014
      vertex 16 1.26757e-013 3.55271e-015
      vertex 16 55 3.55271e-015
    endloop
  endfacet
  facet normal 0 -1 0
    outer loop
      vertex -19 50 30
      vertex 16 50 35
      vertex -19 50 35
    endloop
  endfacet
  facet normal 0 -1 -0
    outer loop
      vertex 16 50 35
      vertex -19 50 30
      vertex 16 50 30
    endloop
  endfacet
  facet normal -0 0 1
    outer loop
      vertex -19 55 35
      vertex 16 50 35
      vertex 16 55 35
    endloop
  endfacet
  facet normal 0 0 1
    outer loop
      vertex 16 50 35
      vertex -19 55 35
      vertex -19 50 35
    endloop
  endfacet
  facet normal -0 0 1
    outer loop
      vertex -19 -50 35
      vertex 16 -55 35
      vertex 16 -50 35
    endloop
  endfacet
  facet normal 0 0 1
    outer loop
      vertex 16 -55 35
      vertex -19 -50 35
      vertex -19 -55 35
    endloop
  endfacet
  facet normal 0 1 -0
    outer loop
      vertex 16 -50 30
      vertex -19 -50 35
      vertex 16 -50 35
    endloop
  endfacet
  facet normal 0 1 0
    outer loop
      vertex -19 -50 35
      vertex 16 -50 30
      vertex -19 -50 30
    endloop
  endfacet
  facet normal 2.22045e-016 0 -1
    outer loop
      vertex 16 -1.26757e-013 1.57652e-014
      vertex 55 -19 2.44249e-014
      vertex 16 -19 1.57652e-014
    endloop
  endfacet
  facet normal 2.22045e-016 0 -1
    outer loop
      vertex 55 -19 2.44249e-014
      vertex 16 -1.26757e-013 1.57652e-014
      vertex 55 16 2.44249e-014
    endloop
  endfacet
  facet normal 2.22045e-016 0 -1
    outer loop
      vertex 16 0 1.57652e-014
      vertex 55 16 2.44249e-014
      vertex 16 -1.26757e-013 1.57652e-014
    endloop
  endfacet
  facet normal 2.22045e-016 0 -1
    outer loop
      vertex 16 1.26757e-013 1.57652e-014
      vertex 55 16 2.44249e-014
      vertex 16 0 1.57652e-014
    endloop
  endfacet
  facet normal 2.22045e-016 0 -1
    outer loop
      vertex 55 16 2.44249e-014
      vertex 16 1.26757e-013 1.57652e-014
      vertex 16 16 1.57652e-014
    endloop
  endfacet
  facet normal 2.22045e-016 0 -1
    outer loop
      vertex -55 -19 -4.68386e-031
      vertex -19 16 7.99361e-015
      vertex -19 -19 7.99361e-015
    endloop
  endfacet
  facet normal 2.22045e-016 0 -1
    outer loop
      vertex -19 16 7.99361e-015
      vertex -55 -19 -4.68386e-031
      vertex -55 16 3.9443e-031
    endloop
  endfacet
  facet normal 1 -0 0
    outer loop
      vertex 55 -19 35
      vertex 55 16 2.44249e-014
      vertex 55 16 35
    endloop
  endfacet
  facet normal 1 0 0
    outer loop
      vertex 55 16 2.44249e-014
      vertex 55 -19 35
      vertex 55 -19 2.44249e-014
    endloop
  endfacet
  facet normal -0 0 1
    outer loop
      vertex -50 16 30
      vertex 50 -19 30
      vertex 50 16 30
    endloop
  endfacet
  facet normal 0 0 1
    outer loop
      vertex 50 -19 30
      vertex -50 16 30
      vertex -50 -19 30
    endloop
  endfacet
  facet normal -1 0 0
    outer loop
      vertex -55 -19 -4.68386e-031
      vertex -55 16 35
      vertex -55 16 3.9443e-031
    endloop
  endfacet
  facet normal -1 -0 0
    outer loop
      vertex -55 16 35
      vertex -55 -19 -4.68386e-031
      vertex -55 -19 35
    endloop
  endfacet
  facet normal 0 1 0
    outer loop
      vertex 55 16 35
      vertex 50 16 30
      vertex 50 16 35
    endloop
  endfacet
  facet normal 0 1 -0
    outer loop
      vertex 55 16 2.44249e-014
      vertex 50 16 30
      vertex 55 16 35
    endloop
  endfacet
  facet normal 0 1 0
    outer loop
      vertex 16 16 1.57652e-014
      vertex 50 16 30
      vertex 55 16 2.44249e-014
    endloop
  endfacet
  facet normal 0 1 0
    outer loop
      vertex 50 16 30
      vertex 16 16 1.57652e-014
      vertex 16 16 30
    endloop
  endfacet
  facet normal 0 1 0
    outer loop
      vertex -19 16 30
      vertex -19 16 7.99361e-015
      vertex -50 16 30
    endloop
  endfacet
  facet normal 0 1 -0
    outer loop
      vertex -50 16 30
      vertex -55 16 35
      vertex -50 16 35
    endloop
  endfacet
  facet normal 0 1 0
    outer loop
      vertex -50 16 30
      vertex -55 16 3.9443e-031
      vertex -55 16 35
    endloop
  endfacet
  facet normal 0 1 0
    outer loop
      vertex -55 16 3.9443e-031
      vertex -50 16 30
      vertex -19 16 7.99361e-015
    endloop
  endfacet
  facet normal 0 0 0
    outer loop
      vertex -19 16 30
      vertex -50 16 30
      vertex 50 16 30
    endloop
  endfacet
  facet normal 0 0 0
    outer loop
      vertex 50 16 30
      vertex 16 16 30
      vertex -19 16 30
    endloop
  endfacet
  facet normal 0 -1 0
    outer loop
      vertex -55 -19 35
      vertex -50 -19 30
      vertex -50 -19 35
    endloop
  endfacet
  facet normal 0 -1 0
    outer loop
      vertex -50 -19 30
      vertex -19 -19 7.99361e-015
      vertex -19 -19 30
    endloop
  endfacet
  facet normal 0 -1 -0
    outer loop
      vertex -50 -19 30
      vertex -55 -19 -4.68386e-031
      vertex -19 -19 7.99361e-015
    endloop
  endfacet
  facet normal 0 -1 0
    outer loop
      vertex -55 -19 -4.68386e-031
      vertex -50 -19 30
      vertex -55 -19 35
    endloop
  endfacet
  facet normal 0 -1 0
    outer loop
      vertex 16 -19 1.57652e-014
      vertex 50 -19 30
      vertex 16 -19 30
    endloop
  endfacet
  facet normal 0 -1 -0
    outer loop
      vertex 50 -19 30
      vertex 16 -19 1.57652e-014
      vertex 55 -19 2.44249e-014
    endloop
  endfacet
  facet normal 0 -1 0
    outer loop
      vertex 50 -19 30
      vertex 55 -19 35
      vertex 50 -19 35
    endloop
  endfacet
  facet normal 0 -1 -0
    outer loop
      vertex 55 -19 35
      vertex 50 -19 30
      vertex 55 -19 2.44249e-014
    endloop
  endfacet
  facet normal 0 0 0
    outer loop
      vertex -19 -19 30
      vertex 16 -19 30
      vertex 50 -19 30
    endloop
  endfacet
  facet normal 0 0 0
    outer loop
      vertex -50 -19 30
      vertex -19 -19 30
      vertex 50 -19 30
    endloop
  endfacet
  facet normal 1 -0 0
    outer loop
      vertex -50 -19 35
      vertex -50 16 30
      vertex -50 16 35
    endloop
  endfacet
  facet normal 1 0 0
    outer loop
      vertex -50 16 30
      vertex -50 -19 35
      vertex -50 -19 30
    endloop
  endfacet
  facet normal -0 0 1
    outer loop
      vertex -55 16 35
      vertex -50 -19 35
      vertex -50 16 35
    endloop
  endfacet
  facet normal 0 0 1
    outer loop
      vertex -50 -19 35
      vertex -55 16 35
      vertex -55 -19 35
    endloop
  endfacet
  facet normal -0 0 1
    outer loop
      vertex 50 16 35
      vertex 55 -19 35
      vertex 55 16 35
    endloop
  endfacet
  facet normal 0 0 1
    outer loop
      vertex 55 -19 35
      vertex 50 16 35
      vertex 50 -19 35
    endloop
  endfacet
  facet normal -1 0 0
    outer loop
      vertex 50 -19 30
      vertex 50 16 35
      vertex 50 16 30
    endloop
  endfacet
  facet normal -1 -0 0
    outer loop
      vertex 50 16 35
      vertex 50 -19 30
      vertex 50 -19 35
    endloop
  endfacet
  facet normal 0.866025 0.5 0
    outer loop
      vertex 14.6167 6.50779 3.24557e-015
      vertex 12.9443 9.40456 0
      vertex 12.9443 9.40456 2.87421e-015
    endloop
  endfacet
  facet normal 0.866025 0.5 0
    outer loop
      vertex 12.9443 9.40456 0
      vertex 14.6167 6.50779 3.24557e-015
      vertex 14.6167 6.50779 0
    endloop
  endfacet
  facet normal 0 1 -0
    outer loop
      vertex 1.67245 15.9123 0
      vertex -9.78942e-015 15.9123 0
      vertex 1.67245 15.9123 3.7136e-016
    endloop
  endfacet
  facet normal 0.743145 0.669131 0
    outer loop
      vertex 12.9443 9.40456 2.87421e-015
      vertex 10.7061 11.8903 0
      vertex 10.7061 11.8903 2.37723e-015
    endloop
  endfacet
  facet normal 0.743145 0.669131 0
    outer loop
      vertex 10.7061 11.8903 0
      vertex 12.9443 9.40456 2.87421e-015
      vertex 12.9443 9.40456 0
    endloop
  endfacet
  facet normal 0.207912 0.978148 -0
    outer loop
      vertex 4.94427 15.2169 0
      vertex 1.67245 15.9123 3.7136e-016
      vertex 4.94427 15.2169 1.09785e-015
    endloop
  endfacet
  facet normal 0.207912 0.978148 0
    outer loop
      vertex 1.67245 15.9123 3.7136e-016
      vertex 4.94427 15.2169 0
      vertex 1.67245 15.9123 0
    endloop
  endfacet
  facet normal 1 0 0
    outer loop
      vertex 16 -1.26757e-013 3.55271e-015
      vertex 16 0 1.57652e-014
      vertex 16 -1.26757e-013 1.57652e-014
    endloop
  endfacet
  facet normal 1 0 0
    outer loop
      vertex 16 0 1.57652e-014
      vertex 16 -1.26757e-013 3.55271e-015
      vertex 16 0 0
    endloop
  endfacet
  facet normal 0.994522 -0.104529 0
    outer loop
      vertex 15.6504 -3.32659 0
      vertex 16 -1.26757e-013 3.55271e-015
      vertex 15.6504 -3.32659 3.47508e-015
    endloop
  endfacet
  facet normal 0.257568 -0.0270716 -0.965881
    outer loop
      vertex 16 -1.26757e-013 3.55271e-015
      vertex 15.6504 -3.32659 0
      vertex 16 0 0
    endloop
  endfacet
  facet normal 0.207912 -0.978148 0
    outer loop
      vertex 1.67245 -15.9123 0
      vertex 4.94427 -15.2169 1.09785e-015
      vertex 1.67245 -15.9123 3.7136e-016
    endloop
  endfacet
  facet normal 0.207912 -0.978148 0
    outer loop
      vertex 4.94427 -15.2169 1.09785e-015
      vertex 1.67245 -15.9123 0
      vertex 4.94427 -15.2169 0
    endloop
  endfacet
  facet normal 0.951057 0.309017 0
    outer loop
      vertex 15.6504 3.32659 3.47508e-015
      vertex 14.6167 6.50779 0
      vertex 14.6167 6.50779 3.24557e-015
    endloop
  endfacet
  facet normal 0.951057 0.309017 0
    outer loop
      vertex 14.6167 6.50779 0
      vertex 15.6504 3.32659 3.47508e-015
      vertex 15.6504 3.32659 0
    endloop
  endfacet
  facet normal 0.587785 0.809017 -0
    outer loop
      vertex 10.7061 11.8903 0
      vertex 8 13.8564 1.77636e-015
      vertex 10.7061 11.8903 2.37723e-015
    endloop
  endfacet
  facet normal 0.587785 0.809017 0
    outer loop
      vertex 8 13.8564 1.77636e-015
      vertex 10.7061 11.8903 0
      vertex 8 13.8564 0
    endloop
  endfacet
  facet normal 0.406736 0.913546 -0
    outer loop
      vertex 8 13.8564 0
      vertex 4.94427 15.2169 1.09785e-015
      vertex 8 13.8564 1.77636e-015
    endloop
  endfacet
  facet normal 0.406736 0.913546 0
    outer loop
      vertex 4.94427 15.2169 1.09785e-015
      vertex 8 13.8564 0
      vertex 4.94427 15.2169 0
    endloop
  endfacet
  facet normal 1 0 0
    outer loop
      vertex 16 1.26757e-013 1.57652e-014
      vertex 16 0 1.57652e-014
      vertex 16 1.26757e-013 3.55271e-015
    endloop
  endfacet
  facet normal 0.994522 0.104529 0
    outer loop
      vertex 16 1.26757e-013 3.55271e-015
      vertex 15.6504 3.32659 0
      vertex 15.6504 3.32659 3.47508e-015
    endloop
  endfacet
  facet normal 0.257568 0.0270716 -0.965881
    outer loop
      vertex 16 1.26757e-013 3.55271e-015
      vertex 16 0 0
      vertex 15.6504 3.32659 0
    endloop
  endfacet
  facet normal 1 0 0
    outer loop
      vertex 16 0 0
      vertex 16 1.26757e-013 3.55271e-015
      vertex 16 0 1.57652e-014
    endloop
  endfacet
  facet normal 0.587785 -0.809017 0
    outer loop
      vertex 8 -13.8564 0
      vertex 10.7061 -11.8903 2.37723e-015
      vertex 8 -13.8564 1.77636e-015
    endloop
  endfacet
  facet normal 0.587785 -0.809017 0
    outer loop
      vertex 10.7061 -11.8903 2.37723e-015
      vertex 8 -13.8564 0
      vertex 10.7061 -11.8903 0
    endloop
  endfacet
  facet normal 0.951057 -0.309017 0
    outer loop
      vertex 14.6167 -6.50779 3.24557e-015
      vertex 15.6504 -3.32659 0
      vertex 15.6504 -3.32659 3.47508e-015
    endloop
  endfacet
  facet normal 0.951057 -0.309017 0
    outer loop
      vertex 15.6504 -3.32659 0
      vertex 14.6167 -6.50779 3.24557e-015
      vertex 14.6167 -6.50779 0
    endloop
  endfacet
  facet normal 0.866025 -0.5 0
    outer loop
      vertex 12.9443 -9.40456 2.87421e-015
      vertex 14.6167 -6.50779 0
      vertex 14.6167 -6.50779 3.24557e-015
    endloop
  endfacet
  facet normal 0.866025 -0.5 0
    outer loop
      vertex 14.6167 -6.50779 0
      vertex 12.9443 -9.40456 2.87421e-015
      vertex 12.9443 -9.40456 0
    endloop
  endfacet
  facet normal 0.743145 -0.669131 0
    outer loop
      vertex 10.7061 -11.8903 2.37723e-015
      vertex 12.9443 -9.40456 0
      vertex 12.9443 -9.40456 2.87421e-015
    endloop
  endfacet
  facet normal 0.743145 -0.669131 0
    outer loop
      vertex 12.9443 -9.40456 0
      vertex 10.7061 -11.8903 2.37723e-015
      vertex 10.7061 -11.8903 0
    endloop
  endfacet
  facet normal 0 -1 -0
    outer loop
      vertex 1.67245 -15.9123 3.7136e-016
      vertex -1.68559e-014 -15.9123 0
      vertex 1.67245 -15.9123 0
    endloop
  endfacet
  facet normal 0 0 -1
    outer loop
      vertex 14.5 0 0
      vertex 16 0 0
      vertex 15.6504 -3.32659 0
    endloop
  endfacet
  facet normal 0 0 -1
    outer loop
      vertex 14.1831 -3.01472 0
      vertex 15.6504 -3.32659 0
      vertex 14.6167 -6.50779 0
    endloop
  endfacet
  facet normal 0 0 -1
    outer loop
      vertex 16 0 0
      vertex 14.5 0 0
      vertex 15.6504 3.32659 0
    endloop
  endfacet
  facet normal 0 0 -1
    outer loop
      vertex 14.1831 3.01472 0
      vertex 15.6504 3.32659 0
      vertex 14.5 0 0
    endloop
  endfacet
  facet normal 0 0 -1
    outer loop
      vertex 15.6504 -3.32659 0
      vertex 14.1831 -3.01472 0
      vertex 14.5 0 0
    endloop
  endfacet
  facet normal 0 0 -1
    outer loop
      vertex 14.6167 -6.50779 0
      vertex 13.2464 -5.89768 0
      vertex 14.1831 -3.01472 0
    endloop
  endfacet
  facet normal 0 0 -1
    outer loop
      vertex 12.9443 -9.40456 0
      vertex 13.2464 -5.89768 0
      vertex 14.6167 -6.50779 0
    endloop
  endfacet
  facet normal 0 0 -1
    outer loop
      vertex 12.9443 -9.40456 0
      vertex 11.7307 -8.52289 0
      vertex 13.2464 -5.89768 0
    endloop
  endfacet
  facet normal 0 0 -1
    outer loop
      vertex 10.7061 -11.8903 0
      vertex 11.7307 -8.52289 0
      vertex 12.9443 -9.40456 0
    endloop
  endfacet
  facet normal 0 0 -1
    outer loop
      vertex 10.7061 -11.8903 0
      vertex 9.70239 -10.7756 0
      vertex 11.7307 -8.52289 0
    endloop
  endfacet
  facet normal 0 0 -1
    outer loop
      vertex 8 -13.8564 0
      vertex 9.70239 -10.7756 0
      vertex 10.7061 -11.8903 0
    endloop
  endfacet
  facet normal 0 0 -1
    outer loop
      vertex 8 -13.8564 0
      vertex 7.25 -12.5574 0
      vertex 9.70239 -10.7756 0
    endloop
  endfacet
  facet normal 0 0 -1
    outer loop
      vertex 4.94427 -15.2169 0
      vertex 7.25 -12.5574 0
      vertex 8 -13.8564 0
    endloop
  endfacet
  facet normal 0 0 -1
    outer loop
      vertex 4.94427 -15.2169 0
      vertex 4.48075 -13.7903 0
      vertex 7.25 -12.5574 0
    endloop
  endfacet
  facet normal 0 0 -1
    outer loop
      vertex 1.67245 -15.9123 0
      vertex 4.48075 -13.7903 0
      vertex 4.94427 -15.2169 0
    endloop
  endfacet
  facet normal 0 0 -1
    outer loop
      vertex 1.67245 -15.9123 0
      vertex 1.51566 -14.4206 0
      vertex 4.48075 -13.7903 0
    endloop
  endfacet
  facet normal 0 0 -1
    outer loop
      vertex -1.68559e-014 -15.9123 0
      vertex 1.51566 -14.4206 0
      vertex 1.67245 -15.9123 0
    endloop
  endfacet
  facet normal -0 0 -1
    outer loop
      vertex 1.51566 -14.4206 0
      vertex -1.68559e-014 -15.9123 0
      vertex -1.65247e-014 -14.4206 0
    endloop
  endfacet
  facet normal -0 0 -1
    outer loop
      vertex 15.6504 3.32659 0
      vertex 14.1831 3.01472 0
      vertex 14.6167 6.50779 0
    endloop
  endfacet
  facet normal 0 0 -1
    outer loop
      vertex 13.2464 5.89768 0
      vertex 14.6167 6.50779 0
      vertex 14.1831 3.01472 0
    endloop
  endfacet
  facet normal 0 0 -1
    outer loop
      vertex 13.2464 5.89768 0
      vertex 12.9443 9.40456 0
      vertex 14.6167 6.50779 0
    endloop
  endfacet
  facet normal 0 0 -1
    outer loop
      vertex 11.7307 8.52289 0
      vertex 12.9443 9.40456 0
      vertex 13.2464 5.89768 0
    endloop
  endfacet
  facet normal 0 0 -1
    outer loop
      vertex 11.7307 8.52289 0
      vertex 10.7061 11.8903 0
      vertex 12.9443 9.40456 0
    endloop
  endfacet
  facet normal 0 0 -1
    outer loop
      vertex 9.70239 10.7756 0
      vertex 10.7061 11.8903 0
      vertex 11.7307 8.52289 0
    endloop
  endfacet
  facet normal 0 0 -1
    outer loop
      vertex 9.70239 10.7756 0
      vertex 8 13.8564 0
      vertex 10.7061 11.8903 0
    endloop
  endfacet
  facet normal 0 0 -1
    outer loop
      vertex 7.25 12.5574 0
      vertex 8 13.8564 0
      vertex 9.70239 10.7756 0
    endloop
  endfacet
  facet normal 0 0 -1
    outer loop
      vertex 7.25 12.5574 0
      vertex 4.94427 15.2169 0
      vertex 8 13.8564 0
    endloop
  endfacet
  facet normal 0 0 -1
    outer loop
      vertex 4.48075 13.7903 0
      vertex 4.94427 15.2169 0
      vertex 7.25 12.5574 0
    endloop
  endfacet
  facet normal 0 0 -1
    outer loop
      vertex 4.48075 13.7903 0
      vertex 1.67245 15.9123 0
      vertex 4.94427 15.2169 0
    endloop
  endfacet
  facet normal 0 0 -1
    outer loop
      vertex 1.51566 14.4206 0
      vertex 1.67245 15.9123 0
      vertex 4.48075 13.7903 0
    endloop
  endfacet
  facet normal 0 0 -1
    outer loop
      vertex 1.51566 14.4206 0
      vertex -9.78942e-015 15.9123 0
      vertex 1.67245 15.9123 0
    endloop
  endfacet
  facet normal 0 -0 -1
    outer loop
      vertex -9.78942e-015 15.9123 0
      vertex 1.51566 14.4206 0
      vertex -1.01207e-014 14.4206 0
    endloop
  endfacet
  facet normal 0.406736 -0.913546 0
    outer loop
      vertex 4.94427 -15.2169 0
      vertex 8 -13.8564 1.77636e-015
      vertex 4.94427 -15.2169 1.09785e-015
    endloop
  endfacet
  facet normal 0.406736 -0.913546 0
    outer loop
      vertex 8 -13.8564 1.77636e-015
      vertex 4.94427 -15.2169 0
      vertex 8 -13.8564 0
    endloop
  endfacet
  facet normal -0.866025 -0.5 0
    outer loop
      vertex 13.2464 5.89768 0
      vertex 11.7307 8.52289 23
      vertex 11.7307 8.52289 0
    endloop
  endfacet
  facet normal -0.866025 -0.5 0
    outer loop
      vertex 11.7307 8.52289 23
      vertex 13.2464 5.89768 0
      vertex 13.2464 5.89768 23
    endloop
  endfacet
  facet normal -0.743145 -0.669131 0
    outer loop
      vertex 11.7307 8.52289 0
      vertex 9.70239 10.7756 23
      vertex 9.70239 10.7756 0
    endloop
  endfacet
  facet normal -0.743145 -0.669131 0
    outer loop
      vertex 9.70239 10.7756 23
      vertex 11.7307 8.52289 0
      vertex 11.7307 8.52289 23
    endloop
  endfacet
  facet normal 0.207911 -0.978148 0
    outer loop
      vertex -4.48075 13.7903 23
      vertex -1.51566 14.4206 -3.36545e-016
      vertex -1.51566 14.4206 23
    endloop
  endfacet
  facet normal 0.207911 -0.978148 0
    outer loop
      vertex -1.51566 14.4206 -3.36545e-016
      vertex -4.48075 13.7903 23
      vertex -4.48075 13.7903 -9.94926e-016
    endloop
  endfacet
  facet normal 0.866025 -0.5 0
    outer loop
      vertex -13.2464 5.89768 23
      vertex -11.7307 8.52289 -2.60475e-015
      vertex -11.7307 8.52289 23
    endloop
  endfacet
  facet normal 0.866025 -0.5 0
    outer loop
      vertex -11.7307 8.52289 -2.60475e-015
      vertex -13.2464 5.89768 23
      vertex -13.2464 5.89768 -2.94129e-015
    endloop
  endfacet
  facet normal -0.994522 0.104529 0
    outer loop
      vertex 14.1831 -3.01472 0
      vertex 14.5 0 23
      vertex 14.5 0 0
    endloop
  endfacet
  facet normal -0.994522 0.104529 0
    outer loop
      vertex 14.5 0 23
      vertex 14.1831 -3.01472 0
      vertex 14.1831 -3.01472 23
    endloop
  endfacet
  facet normal -0.951057 -0.309017 0
    outer loop
      vertex 14.1831 3.01472 0
      vertex 13.2464 5.89768 23
      vertex 13.2464 5.89768 0
    endloop
  endfacet
  facet normal -0.951057 -0.309017 0
    outer loop
      vertex 13.2464 5.89768 23
      vertex 14.1831 3.01472 0
      vertex 14.1831 3.01472 23
    endloop
  endfacet
  facet normal -0.587785 -0.809017 0
    outer loop
      vertex 7.25 12.5574 0
      vertex 9.70239 10.7756 23
      vertex 7.25 12.5574 23
    endloop
  endfacet
  facet normal -0.587785 -0.809017 -0
    outer loop
      vertex 9.70239 10.7756 23
      vertex 7.25 12.5574 0
      vertex 9.70239 10.7756 0
    endloop
  endfacet
  facet normal 0 -1 0
    outer loop
      vertex -1.51566 14.4206 23
      vertex -1.01207e-014 14.4206 0
      vertex 1.51566 14.4206 23
    endloop
  endfacet
  facet normal -0 -1 0
    outer loop
      vertex -1.01207e-014 14.4206 0
      vertex -1.51566 14.4206 23
      vertex -1.51566 14.4206 -3.36545e-016
    endloop
  endfacet
  facet normal 0 -1 -0
    outer loop
      vertex 1.51566 14.4206 23
      vertex -1.01207e-014 14.4206 0
      vertex 1.51566 14.4206 0
    endloop
  endfacet
  facet normal -0.406737 -0.913545 0
    outer loop
      vertex 4.48075 13.7903 0
      vertex 7.25 12.5574 23
      vertex 4.48075 13.7903 23
    endloop
  endfacet
  facet normal -0.406737 -0.913545 -0
    outer loop
      vertex 7.25 12.5574 23
      vertex 4.48075 13.7903 0
      vertex 7.25 12.5574 0
    endloop
  endfacet
  facet normal 0.994522 -0.104529 0
    outer loop
      vertex -14.5 0 23
      vertex -14.1831 3.01472 -3.14929e-015
      vertex -14.1831 3.01472 23
    endloop
  endfacet
  facet normal 0.994522 -0.104529 0
    outer loop
      vertex -14.1831 3.01472 -3.14929e-015
      vertex -14.5 0 23
      vertex -14.5 0 -3.21965e-015
    endloop
  endfacet
  facet normal 0.743145 -0.669131 0
    outer loop
      vertex -11.7307 8.52289 23
      vertex -9.70239 10.7756 -2.15436e-015
      vertex -9.70239 10.7756 23
    endloop
  endfacet
  facet normal 0.743145 -0.669131 0
    outer loop
      vertex -9.70239 10.7756 -2.15436e-015
      vertex -11.7307 8.52289 23
      vertex -11.7307 8.52289 -2.60475e-015
    endloop
  endfacet
  facet normal 0.406737 -0.913545 0
    outer loop
      vertex -7.25 12.5574 23
      vertex -4.48075 13.7903 -9.94926e-016
      vertex -4.48075 13.7903 23
    endloop
  endfacet
  facet normal 0.406737 -0.913545 0
    outer loop
      vertex -4.48075 13.7903 -9.94926e-016
      vertex -7.25 12.5574 23
      vertex -7.25 12.5574 -1.60982e-015
    endloop
  endfacet
  facet normal 0.587785 -0.809017 0
    outer loop
      vertex -9.70239 10.7756 23
      vertex -7.25 12.5574 -1.60982e-015
      vertex -7.25 12.5574 23
    endloop
  endfacet
  facet normal 0.587785 -0.809017 0
    outer loop
      vertex -7.25 12.5574 -1.60982e-015
      vertex -9.70239 10.7756 23
      vertex -9.70239 10.7756 -2.15436e-015
    endloop
  endfacet
  facet normal -0.994522 -0.104529 0
    outer loop
      vertex 14.5 0 0
      vertex 14.1831 3.01472 23
      vertex 14.1831 3.01472 0
    endloop
  endfacet
  facet normal -0.994522 -0.104529 0
    outer loop
      vertex 14.1831 3.01472 23
      vertex 14.5 0 0
      vertex 14.5 0 23
    endloop
  endfacet
  facet normal -0.587785 0.809017 0
    outer loop
      vertex 9.70239 -10.7756 0
      vertex 7.25 -12.5574 23
      vertex 9.70239 -10.7756 23
    endloop
  endfacet
  facet normal -0.587785 0.809017 0
    outer loop
      vertex 7.25 -12.5574 23
      vertex 9.70239 -10.7756 0
      vertex 7.25 -12.5574 0
    endloop
  endfacet
  facet normal -0.207911 -0.978148 0
    outer loop
      vertex 1.51566 14.4206 0
      vertex 4.48075 13.7903 23
      vertex 1.51566 14.4206 23
    endloop
  endfacet
  facet normal -0.207911 -0.978148 -0
    outer loop
      vertex 4.48075 13.7903 23
      vertex 1.51566 14.4206 0
      vertex 4.48075 13.7903 0
    endloop
  endfacet
  facet normal 0 0 -1
    outer loop
      vertex 14.1831 -3.01472 23
      vertex 14.1831 3.01472 23
      vertex 14.5 0 23
    endloop
  endfacet
  facet normal 0 0 -1
    outer loop
      vertex 13.2464 -5.89768 23
      vertex 14.1831 3.01472 23
      vertex 14.1831 -3.01472 23
    endloop
  endfacet
  facet normal 0 0 -1
    outer loop
      vertex 13.2464 -5.89768 23
      vertex 13.2464 5.89768 23
      vertex 14.1831 3.01472 23
    endloop
  endfacet
  facet normal 0 0 -1
    outer loop
      vertex 11.7307 -8.52289 23
      vertex 13.2464 5.89768 23
      vertex 13.2464 -5.89768 23
    endloop
  endfacet
  facet normal 0 0 -1
    outer loop
      vertex 11.7307 -8.52289 23
      vertex 11.7307 8.52289 23
      vertex 13.2464 5.89768 23
    endloop
  endfacet
  facet normal 0 0 -1
    outer loop
      vertex 9.70239 -10.7756 23
      vertex 11.7307 8.52289 23
      vertex 11.7307 -8.52289 23
    endloop
  endfacet
  facet normal 0 0 -1
    outer loop
      vertex 9.70239 -10.7756 23
      vertex 9.70239 10.7756 23
      vertex 11.7307 8.52289 23
    endloop
  endfacet
  facet normal 0 0 -1
    outer loop
      vertex 7.25 -12.5574 23
      vertex 9.70239 10.7756 23
      vertex 9.70239 -10.7756 23
    endloop
  endfacet
  facet normal 0 0 -1
    outer loop
      vertex 7.25 -12.5574 23
      vertex 7.25 12.5574 23
      vertex 9.70239 10.7756 23
    endloop
  endfacet
  facet normal 0 0 -1
    outer loop
      vertex 4.48075 -13.7903 23
      vertex 7.25 12.5574 23
      vertex 7.25 -12.5574 23
    endloop
  endfacet
  facet normal 0 0 -1
    outer loop
      vertex 4.48075 -13.7903 23
      vertex 4.48075 13.7903 23
      vertex 7.25 12.5574 23
    endloop
  endfacet
  facet normal 0 0 -1
    outer loop
      vertex 1.51566 -14.4206 23
      vertex 4.48075 13.7903 23
      vertex 4.48075 -13.7903 23
    endloop
  endfacet
  facet normal 0 0 -1
    outer loop
      vertex 1.51566 -14.4206 23
      vertex 1.51566 14.4206 23
      vertex 4.48075 13.7903 23
    endloop
  endfacet
  facet normal 0 0 -1
    outer loop
      vertex -1.51566 -14.4206 23
      vertex 1.51566 14.4206 23
      vertex 1.51566 -14.4206 23
    endloop
  endfacet
  facet normal 0 0 -1
    outer loop
      vertex -1.51566 -14.4206 23
      vertex -1.51566 14.4206 23
      vertex 1.51566 14.4206 23
    endloop
  endfacet
  facet normal 0 0 -1
    outer loop
      vertex -4.48075 -13.7903 23
      vertex -1.51566 14.4206 23
      vertex -1.51566 -14.4206 23
    endloop
  endfacet
  facet normal 0 0 -1
    outer loop
      vertex -4.48075 -13.7903 23
      vertex -4.48075 13.7903 23
      vertex -1.51566 14.4206 23
    endloop
  endfacet
  facet normal 0 0 -1
    outer loop
      vertex -4.48075 -13.7903 23
      vertex -7.25 12.5574 23
      vertex -4.48075 13.7903 23
    endloop
  endfacet
  facet normal 0 0 -1
    outer loop
      vertex -7.25 -12.5574 23
      vertex -7.25 12.5574 23
      vertex -4.48075 -13.7903 23
    endloop
  endfacet
  facet normal 0 0 -1
    outer loop
      vertex -9.70239 -10.7756 23
      vertex -7.25 12.5574 23
      vertex -7.25 -12.5574 23
    endloop
  endfacet
  facet normal 0 0 -1
    outer loop
      vertex -9.70239 -10.7756 23
      vertex -9.70239 10.7756 23
      vertex -7.25 12.5574 23
    endloop
  endfacet
  facet normal 0 0 -1
    outer loop
      vertex -11.7307 -8.52289 23
      vertex -9.70239 10.7756 23
      vertex -9.70239 -10.7756 23
    endloop
  endfacet
  facet normal 0 0 -1
    outer loop
      vertex -11.7307 -8.52289 23
      vertex -11.7307 8.52289 23
      vertex -9.70239 10.7756 23
    endloop
  endfacet
  facet normal 0 0 -1
    outer loop
      vertex -13.2464 -5.89768 23
      vertex -11.7307 8.52289 23
      vertex -11.7307 -8.52289 23
    endloop
  endfacet
  facet normal 0 0 -1
    outer loop
      vertex -13.2464 -5.89768 23
      vertex -13.2464 5.89768 23
      vertex -11.7307 8.52289 23
    endloop
  endfacet
  facet normal 0 0 -1
    outer loop
      vertex -14.1831 -3.01472 23
      vertex -13.2464 5.89768 23
      vertex -13.2464 -5.89768 23
    endloop
  endfacet
  facet normal 0 0 -1
    outer loop
      vertex -14.1831 -3.01472 23
      vertex -14.1831 3.01472 23
      vertex -13.2464 5.89768 23
    endloop
  endfacet
  facet normal 0 -0 -1
    outer loop
      vertex -14.1831 3.01472 23
      vertex -14.1831 -3.01472 23
      vertex -14.5 0 23
    endloop
  endfacet
  facet normal 0.951057 -0.309017 0
    outer loop
      vertex -14.1831 3.01472 23
      vertex -13.2464 5.89768 -2.94129e-015
      vertex -13.2464 5.89768 23
    endloop
  endfacet
  facet normal 0.951057 -0.309017 0
    outer loop
      vertex -13.2464 5.89768 -2.94129e-015
      vertex -14.1831 3.01472 23
      vertex -14.1831 3.01472 -3.14929e-015
    endloop
  endfacet
  facet normal -0.951057 0.309017 0
    outer loop
      vertex 13.2464 -5.89768 0
      vertex 14.1831 -3.01472 23
      vertex 14.1831 -3.01472 0
    endloop
  endfacet
  facet normal -0.951057 0.309017 0
    outer loop
      vertex 14.1831 -3.01472 23
      vertex 13.2464 -5.89768 0
      vertex 13.2464 -5.89768 23
    endloop
  endfacet
  facet normal -0.866025 0.5 0
    outer loop
      vertex 11.7307 -8.52289 0
      vertex 13.2464 -5.89768 23
      vertex 13.2464 -5.89768 0
    endloop
  endfacet
  facet normal -0.866025 0.5 0
    outer loop
      vertex 13.2464 -5.89768 23
      vertex 11.7307 -8.52289 0
      vertex 11.7307 -8.52289 23
    endloop
  endfacet
  facet normal 0.207911 0.978148 -0
    outer loop
      vertex -1.51566 -14.4206 -3.36545e-016
      vertex -4.48075 -13.7903 23
      vertex -1.51566 -14.4206 23
    endloop
  endfacet
  facet normal 0.207911 0.978148 0
    outer loop
      vertex -4.48075 -13.7903 23
      vertex -1.51566 -14.4206 -3.36545e-016
      vertex -4.48075 -13.7903 -9.94926e-016
    endloop
  endfacet
  facet normal 0.994522 0.104529 0
    outer loop
      vertex -14.1831 -3.01472 23
      vertex -14.5 0 -3.21965e-015
      vertex -14.5 0 23
    endloop
  endfacet
  facet normal 0.994522 0.104529 0
    outer loop
      vertex -14.5 0 -3.21965e-015
      vertex -14.1831 -3.01472 23
      vertex -14.1831 -3.01472 -3.14929e-015
    endloop
  endfacet
  facet normal -0.207911 0.978148 0
    outer loop
      vertex 4.48075 -13.7903 0
      vertex 1.51566 -14.4206 23
      vertex 4.48075 -13.7903 23
    endloop
  endfacet
  facet normal -0.207911 0.978148 0
    outer loop
      vertex 1.51566 -14.4206 23
      vertex 4.48075 -13.7903 0
      vertex 1.51566 -14.4206 0
    endloop
  endfacet
  facet normal -0.406737 0.913545 0
    outer loop
      vertex 7.25 -12.5574 0
      vertex 4.48075 -13.7903 23
      vertex 7.25 -12.5574 23
    endloop
  endfacet
  facet normal -0.406737 0.913545 0
    outer loop
      vertex 4.48075 -13.7903 23
      vertex 7.25 -12.5574 0
      vertex 4.48075 -13.7903 0
    endloop
  endfacet
  facet normal -0.743145 0.669131 0
    outer loop
      vertex 9.70239 -10.7756 0
      vertex 11.7307 -8.52289 23
      vertex 11.7307 -8.52289 0
    endloop
  endfacet
  facet normal -0.743145 0.669131 0
    outer loop
      vertex 11.7307 -8.52289 23
      vertex 9.70239 -10.7756 0
      vertex 9.70239 -10.7756 23
    endloop
  endfacet
  facet normal 0.587785 0.809017 -0
    outer loop
      vertex -7.25 -12.5574 -1.60982e-015
      vertex -9.70239 -10.7756 23
      vertex -7.25 -12.5574 23
    endloop
  endfacet
  facet normal 0.587785 0.809017 0
    outer loop
      vertex -9.70239 -10.7756 23
      vertex -7.25 -12.5574 -1.60982e-015
      vertex -9.70239 -10.7756 -2.15436e-015
    endloop
  endfacet
  facet normal 0 1 0
    outer loop
      vertex -1.65247e-014 -14.4206 0
      vertex 1.51566 -14.4206 23
      vertex 1.51566 -14.4206 0
    endloop
  endfacet
  facet normal 0 1 0
    outer loop
      vertex 1.51566 -14.4206 23
      vertex -1.65247e-014 -14.4206 0
      vertex -1.51566 -14.4206 23
    endloop
  endfacet
  facet normal 0 1 0
    outer loop
      vertex -1.51566 -14.4206 23
      vertex -1.65247e-014 -14.4206 0
      vertex -1.51566 -14.4206 -3.36545e-016
    endloop
  endfacet
  facet normal 0.406737 0.913545 -0
    outer loop
      vertex -4.48075 -13.7903 -9.94926e-016
      vertex -7.25 -12.5574 23
      vertex -4.48075 -13.7903 23
    endloop
  endfacet
  facet normal 0.406737 0.913545 0
    outer loop
      vertex -7.25 -12.5574 23
      vertex -4.48075 -13.7903 -9.94926e-016
      vertex -7.25 -12.5574 -1.60982e-015
    endloop
  endfacet
  facet normal 0.951057 0.309017 0
    outer loop
      vertex -13.2464 -5.89768 23
      vertex -14.1831 -3.01472 -3.14929e-015
      vertex -14.1831 -3.01472 23
    endloop
  endfacet
  facet normal 0.951057 0.309017 0
    outer loop
      vertex -14.1831 -3.01472 -3.14929e-015
      vertex -13.2464 -5.89768 23
      vertex -13.2464 -5.89768 -2.94129e-015
    endloop
  endfacet
  facet normal 0.743145 0.669131 0
    outer loop
      vertex -9.70239 -10.7756 23
      vertex -11.7307 -8.52289 -2.60475e-015
      vertex -11.7307 -8.52289 23
    endloop
  endfacet
  facet normal 0.743145 0.669131 0
    outer loop
      vertex -11.7307 -8.52289 -2.60475e-015
      vertex -9.70239 -10.7756 23
      vertex -9.70239 -10.7756 -2.15436e-015
    endloop
  endfacet
  facet normal 0.866025 0.5 0
    outer loop
      vertex -11.7307 -8.52289 23
      vertex -13.2464 -5.89768 -2.94129e-015
      vertex -13.2464 -5.89768 23
    endloop
  endfacet
  facet normal 0.866025 0.5 0
    outer loop
      vertex -13.2464 -5.89768 -2.94129e-015
      vertex -11.7307 -8.52289 23
      vertex -11.7307 -8.52289 -2.60475e-015
    endloop
  endfacet
endsolid OpenSCAD_Model
