solid OpenSCAD_Model
  facet normal 0.994522 0.104528 0
    outer loop
      vertex 72 0 0
      vertex 70.4266 14.9696 -2
      vertex 70.4266 14.9696 0
    endloop
  endfacet
  facet normal 0.994522 0.104528 0
    outer loop
      vertex 70.4266 14.9696 -2
      vertex 72 0 0
      vertex 72 0 -2
    endloop
  endfacet
  facet normal -0.994522 0.104528 0
    outer loop
      vertex -72 0 -2
      vertex -70.4266 14.9696 0
      vertex -70.4266 14.9696 -2
    endloop
  endfacet
  facet normal -0.994522 0.104528 0
    outer loop
      vertex -70.4266 14.9696 0
      vertex -72 0 -2
      vertex -72 0 0
    endloop
  endfacet
  facet normal 0 1 -0
    outer loop
      vertex 7.52605 71.6056 -2
      vertex -7.52605 71.6056 0
      vertex 7.52605 71.6056 0
    endloop
  endfacet
  facet normal 0 1 0
    outer loop
      vertex -7.52605 71.6056 0
      vertex 7.52605 71.6056 -2
      vertex -7.52605 71.6056 -2
    endloop
  endfacet
  facet normal 0 -1 0
    outer loop
      vertex -7.52605 -71.6056 -2
      vertex 7.52605 -71.6056 0
      vertex -7.52605 -71.6056 0
    endloop
  endfacet
  facet normal 0 -1 -0
    outer loop
      vertex 7.52605 -71.6056 0
      vertex -7.52605 -71.6056 -2
      vertex 7.52605 -71.6056 -2
    endloop
  endfacet
  facet normal 0.587785 0.809017 -0
    outer loop
      vertex 48.1774 53.5064 -2
      vertex 36 62.3538 0
      vertex 48.1774 53.5064 0
    endloop
  endfacet
  facet normal 0.587785 0.809017 0
    outer loop
      vertex 36 62.3538 0
      vertex 48.1774 53.5064 -2
      vertex 36 62.3538 -2
    endloop
  endfacet
  facet normal 0.406736 0.913546 -0
    outer loop
      vertex 36 62.3538 -2
      vertex 22.2492 68.4761 0
      vertex 36 62.3538 0
    endloop
  endfacet
  facet normal 0.406736 0.913546 0
    outer loop
      vertex 22.2492 68.4761 0
      vertex 36 62.3538 -2
      vertex 22.2492 68.4761 -2
    endloop
  endfacet
  facet normal -0.587785 0.809017 0
    outer loop
      vertex -36 62.3538 -2
      vertex -48.1774 53.5064 0
      vertex -36 62.3538 0
    endloop
  endfacet
  facet normal -0.587785 0.809017 0
    outer loop
      vertex -48.1774 53.5064 0
      vertex -36 62.3538 -2
      vertex -48.1774 53.5064 -2
    endloop
  endfacet
  facet normal -0.207912 0.978148 0
    outer loop
      vertex -7.52605 71.6056 -2
      vertex -22.2492 68.4761 0
      vertex -7.52605 71.6056 0
    endloop
  endfacet
  facet normal -0.207912 0.978148 0
    outer loop
      vertex -22.2492 68.4761 0
      vertex -7.52605 71.6056 -2
      vertex -22.2492 68.4761 -2
    endloop
  endfacet
  facet normal 0.866025 0.5 0
    outer loop
      vertex 65.7753 29.285 0
      vertex 58.2492 42.3205 -2
      vertex 58.2492 42.3205 0
    endloop
  endfacet
  facet normal 0.866025 0.5 0
    outer loop
      vertex 58.2492 42.3205 -2
      vertex 65.7753 29.285 0
      vertex 65.7753 29.285 -2
    endloop
  endfacet
  facet normal 0.951056 0.309017 0
    outer loop
      vertex 70.4266 14.9696 0
      vertex 65.7753 29.285 -2
      vertex 65.7753 29.285 0
    endloop
  endfacet
  facet normal 0.951056 0.309017 0
    outer loop
      vertex 65.7753 29.285 -2
      vertex 70.4266 14.9696 0
      vertex 70.4266 14.9696 -2
    endloop
  endfacet
  facet normal 0.743145 0.669131 0
    outer loop
      vertex 58.2492 42.3205 0
      vertex 48.1774 53.5064 -2
      vertex 48.1774 53.5064 0
    endloop
  endfacet
  facet normal 0.743145 0.669131 0
    outer loop
      vertex 48.1774 53.5064 -2
      vertex 58.2492 42.3205 0
      vertex 58.2492 42.3205 -2
    endloop
  endfacet
  facet normal 0.207912 0.978148 -0
    outer loop
      vertex 22.2492 68.4761 -2
      vertex 7.52605 71.6056 0
      vertex 22.2492 68.4761 0
    endloop
  endfacet
  facet normal 0.207912 0.978148 0
    outer loop
      vertex 7.52605 71.6056 0
      vertex 22.2492 68.4761 -2
      vertex 7.52605 71.6056 -2
    endloop
  endfacet
  facet normal -0.866025 0.5 0
    outer loop
      vertex -65.7753 29.285 -2
      vertex -58.2492 42.3205 0
      vertex -58.2492 42.3205 -2
    endloop
  endfacet
  facet normal -0.866025 0.5 0
    outer loop
      vertex -58.2492 42.3205 0
      vertex -65.7753 29.285 -2
      vertex -65.7753 29.285 0
    endloop
  endfacet
  facet normal -0.743145 0.669131 0
    outer loop
      vertex -58.2492 42.3205 -2
      vertex -48.1774 53.5064 0
      vertex -48.1774 53.5064 -2
    endloop
  endfacet
  facet normal -0.743145 0.669131 0
    outer loop
      vertex -48.1774 53.5064 0
      vertex -58.2492 42.3205 -2
      vertex -58.2492 42.3205 0
    endloop
  endfacet
  facet normal -0.951056 0.309017 0
    outer loop
      vertex -70.4266 14.9696 -2
      vertex -65.7753 29.285 0
      vertex -65.7753 29.285 -2
    endloop
  endfacet
  facet normal -0.951056 0.309017 0
    outer loop
      vertex -65.7753 29.285 0
      vertex -70.4266 14.9696 -2
      vertex -70.4266 14.9696 0
    endloop
  endfacet
  facet normal 0 0 1
    outer loop
      vertex 60 0 0
      vertex 72 0 0
      vertex 70.4266 14.9696 0
    endloop
  endfacet
  facet normal 0 0 1
    outer loop
      vertex 58.6889 12.4747 0
      vertex 70.4266 14.9696 0
      vertex 65.7753 29.285 0
    endloop
  endfacet
  facet normal 0 0 1
    outer loop
      vertex 72 0 0
      vertex 60 0 0
      vertex 70.4266 -14.9696 0
    endloop
  endfacet
  facet normal -0 0 1
    outer loop
      vertex 58.6889 -12.4747 0
      vertex 70.4266 -14.9696 0
      vertex 60 0 0
    endloop
  endfacet
  facet normal 0 0 1
    outer loop
      vertex 70.4266 14.9696 0
      vertex 58.6889 12.4747 0
      vertex 60 0 0
    endloop
  endfacet
  facet normal 0 0 1
    outer loop
      vertex 54.8127 24.4042 0
      vertex 65.7753 29.285 0
      vertex 58.2492 42.3205 0
    endloop
  endfacet
  facet normal 0 0 1
    outer loop
      vertex 65.7753 29.285 0
      vertex 54.8127 24.4042 0
      vertex 58.6889 12.4747 0
    endloop
  endfacet
  facet normal 0 0 1
    outer loop
      vertex 58.2492 42.3205 0
      vertex 48.541 35.2671 0
      vertex 54.8127 24.4042 0
    endloop
  endfacet
  facet normal 0 0 1
    outer loop
      vertex 48.1774 53.5064 0
      vertex 48.541 35.2671 0
      vertex 58.2492 42.3205 0
    endloop
  endfacet
  facet normal 0 0 1
    outer loop
      vertex 48.1774 53.5064 0
      vertex 40.1478 44.5887 0
      vertex 48.541 35.2671 0
    endloop
  endfacet
  facet normal 0 0 1
    outer loop
      vertex 36 62.3538 0
      vertex 40.1478 44.5887 0
      vertex 48.1774 53.5064 0
    endloop
  endfacet
  facet normal 0 0 1
    outer loop
      vertex 36 62.3538 0
      vertex 30 51.9615 0
      vertex 40.1478 44.5887 0
    endloop
  endfacet
  facet normal 0 0 1
    outer loop
      vertex 22.2492 68.4761 0
      vertex 30 51.9615 0
      vertex 36 62.3538 0
    endloop
  endfacet
  facet normal 0 0 1
    outer loop
      vertex 22.2492 68.4761 0
      vertex 18.541 57.0634 0
      vertex 30 51.9615 0
    endloop
  endfacet
  facet normal 0 0 1
    outer loop
      vertex 7.52605 71.6056 0
      vertex 18.541 57.0634 0
      vertex 22.2492 68.4761 0
    endloop
  endfacet
  facet normal 0 0 1
    outer loop
      vertex 7.52605 71.6056 0
      vertex 6.27171 59.6713 0
      vertex 18.541 57.0634 0
    endloop
  endfacet
  facet normal 0 0 1
    outer loop
      vertex 7.52605 71.6056 0
      vertex -6.27171 59.6713 0
      vertex 6.27171 59.6713 0
    endloop
  endfacet
  facet normal -0 0 1
    outer loop
      vertex -7.52605 71.6056 0
      vertex -6.27171 59.6713 0
      vertex 7.52605 71.6056 0
    endloop
  endfacet
  facet normal 0 0 1
    outer loop
      vertex -7.52605 71.6056 0
      vertex -18.541 57.0634 0
      vertex -6.27171 59.6713 0
    endloop
  endfacet
  facet normal -0 0 1
    outer loop
      vertex -22.2492 68.4761 0
      vertex -18.541 57.0634 0
      vertex -7.52605 71.6056 0
    endloop
  endfacet
  facet normal 0 0 1
    outer loop
      vertex -22.2492 68.4761 0
      vertex -30 51.9615 0
      vertex -18.541 57.0634 0
    endloop
  endfacet
  facet normal -0 0 1
    outer loop
      vertex -36 62.3538 0
      vertex -30 51.9615 0
      vertex -22.2492 68.4761 0
    endloop
  endfacet
  facet normal 0 0 1
    outer loop
      vertex -36 62.3538 0
      vertex -40.1478 44.5887 0
      vertex -30 51.9615 0
    endloop
  endfacet
  facet normal -0 0 1
    outer loop
      vertex -48.1774 53.5064 0
      vertex -40.1478 44.5887 0
      vertex -36 62.3538 0
    endloop
  endfacet
  facet normal 0 0 1
    outer loop
      vertex -48.1774 53.5064 0
      vertex -48.541 35.2671 0
      vertex -40.1478 44.5887 0
    endloop
  endfacet
  facet normal -0 0 1
    outer loop
      vertex -58.2492 42.3205 0
      vertex -48.541 35.2671 0
      vertex -48.1774 53.5064 0
    endloop
  endfacet
  facet normal 0 0 1
    outer loop
      vertex -48.541 35.2671 0
      vertex -58.2492 42.3205 0
      vertex -54.8127 24.4042 0
    endloop
  endfacet
  facet normal -0 0 1
    outer loop
      vertex -65.7753 29.285 0
      vertex -54.8127 24.4042 0
      vertex -58.2492 42.3205 0
    endloop
  endfacet
  facet normal 0 0 1
    outer loop
      vertex -54.8127 24.4042 0
      vertex -65.7753 29.285 0
      vertex -58.6889 12.4747 0
    endloop
  endfacet
  facet normal -0 0 1
    outer loop
      vertex -70.4266 14.9696 0
      vertex -58.6889 12.4747 0
      vertex -65.7753 29.285 0
    endloop
  endfacet
  facet normal 0 0 1
    outer loop
      vertex 70.4266 -14.9696 0
      vertex 58.6889 -12.4747 0
      vertex 65.7753 -29.285 0
    endloop
  endfacet
  facet normal -0 0 1
    outer loop
      vertex 54.8127 -24.4042 0
      vertex 65.7753 -29.285 0
      vertex 58.6889 -12.4747 0
    endloop
  endfacet
  facet normal 0 0 1
    outer loop
      vertex 65.7753 -29.285 0
      vertex 54.8127 -24.4042 0
      vertex 58.2492 -42.3205 0
    endloop
  endfacet
  facet normal -0 0 1
    outer loop
      vertex 48.541 -35.2671 0
      vertex 58.2492 -42.3205 0
      vertex 54.8127 -24.4042 0
    endloop
  endfacet
  facet normal 0 0 1
    outer loop
      vertex 48.541 -35.2671 0
      vertex 48.1774 -53.5064 0
      vertex 58.2492 -42.3205 0
    endloop
  endfacet
  facet normal -0 0 1
    outer loop
      vertex 40.1478 -44.5887 0
      vertex 48.1774 -53.5064 0
      vertex 48.541 -35.2671 0
    endloop
  endfacet
  facet normal 0 0 1
    outer loop
      vertex 40.1478 -44.5887 0
      vertex 36 -62.3538 0
      vertex 48.1774 -53.5064 0
    endloop
  endfacet
  facet normal -0 0 1
    outer loop
      vertex 30 -51.9615 0
      vertex 36 -62.3538 0
      vertex 40.1478 -44.5887 0
    endloop
  endfacet
  facet normal 0 0 1
    outer loop
      vertex 30 -51.9615 0
      vertex 22.2492 -68.4761 0
      vertex 36 -62.3538 0
    endloop
  endfacet
  facet normal -0 0 1
    outer loop
      vertex 18.541 -57.0634 0
      vertex 22.2492 -68.4761 0
      vertex 30 -51.9615 0
    endloop
  endfacet
  facet normal 0 0 1
    outer loop
      vertex 18.541 -57.0634 0
      vertex 7.52605 -71.6056 0
      vertex 22.2492 -68.4761 0
    endloop
  endfacet
  facet normal -0 0 1
    outer loop
      vertex 6.27171 -59.6713 0
      vertex 7.52605 -71.6056 0
      vertex 18.541 -57.0634 0
    endloop
  endfacet
  facet normal -0 0 1
    outer loop
      vertex -6.27171 -59.6713 0
      vertex 7.52605 -71.6056 0
      vertex 6.27171 -59.6713 0
    endloop
  endfacet
  facet normal 0 0 1
    outer loop
      vertex -6.27171 -59.6713 0
      vertex -7.52605 -71.6056 0
      vertex 7.52605 -71.6056 0
    endloop
  endfacet
  facet normal 0 0 1
    outer loop
      vertex -18.541 -57.0634 0
      vertex -7.52605 -71.6056 0
      vertex -6.27171 -59.6713 0
    endloop
  endfacet
  facet normal 0 0 1
    outer loop
      vertex -18.541 -57.0634 0
      vertex -22.2492 -68.4761 0
      vertex -7.52605 -71.6056 0
    endloop
  endfacet
  facet normal 0 0 1
    outer loop
      vertex -30 -51.9615 0
      vertex -22.2492 -68.4761 0
      vertex -18.541 -57.0634 0
    endloop
  endfacet
  facet normal 0 0 1
    outer loop
      vertex -30 -51.9615 0
      vertex -36 -62.3538 0
      vertex -22.2492 -68.4761 0
    endloop
  endfacet
  facet normal 0 0 1
    outer loop
      vertex -40.1478 -44.5887 0
      vertex -36 -62.3538 0
      vertex -30 -51.9615 0
    endloop
  endfacet
  facet normal 0 0 1
    outer loop
      vertex -40.1478 -44.5887 0
      vertex -48.1774 -53.5064 0
      vertex -36 -62.3538 0
    endloop
  endfacet
  facet normal 0 0 1
    outer loop
      vertex -48.541 -35.2671 0
      vertex -48.1774 -53.5064 0
      vertex -40.1478 -44.5887 0
    endloop
  endfacet
  facet normal 0 0 1
    outer loop
      vertex -58.2492 -42.3205 0
      vertex -48.541 -35.2671 0
      vertex -54.8127 -24.4042 0
    endloop
  endfacet
  facet normal 0 0 1
    outer loop
      vertex -48.541 -35.2671 0
      vertex -58.2492 -42.3205 0
      vertex -48.1774 -53.5064 0
    endloop
  endfacet
  facet normal 0 0 1
    outer loop
      vertex -65.7753 -29.285 0
      vertex -54.8127 -24.4042 0
      vertex -58.6889 -12.4747 0
    endloop
  endfacet
  facet normal 0 0 1
    outer loop
      vertex -70.4266 -14.9696 0
      vertex -58.6889 -12.4747 0
      vertex -60 0 0
    endloop
  endfacet
  facet normal 0 0 1
    outer loop
      vertex -58.6889 12.4747 0
      vertex -70.4266 14.9696 0
      vertex -60 0 0
    endloop
  endfacet
  facet normal 0 0 1
    outer loop
      vertex -54.8127 -24.4042 0
      vertex -65.7753 -29.285 0
      vertex -58.2492 -42.3205 0
    endloop
  endfacet
  facet normal 0 0 1
    outer loop
      vertex -72 0 0
      vertex -60 0 0
      vertex -70.4266 14.9696 0
    endloop
  endfacet
  facet normal 0 0 1
    outer loop
      vertex -58.6889 -12.4747 0
      vertex -70.4266 -14.9696 0
      vertex -65.7753 -29.285 0
    endloop
  endfacet
  facet normal 0 0 1
    outer loop
      vertex -60 0 0
      vertex -72 0 0
      vertex -70.4266 -14.9696 0
    endloop
  endfacet
  facet normal -0.406736 0.913546 0
    outer loop
      vertex -22.2492 68.4761 -2
      vertex -36 62.3538 0
      vertex -22.2492 68.4761 0
    endloop
  endfacet
  facet normal -0.406736 0.913546 0
    outer loop
      vertex -36 62.3538 0
      vertex -22.2492 68.4761 -2
      vertex -36 62.3538 -2
    endloop
  endfacet
  facet normal 0.994522 -0.104528 0
    outer loop
      vertex 70.4266 -14.9696 0
      vertex 72 0 -2
      vertex 72 0 0
    endloop
  endfacet
  facet normal 0.994522 -0.104528 0
    outer loop
      vertex 72 0 -2
      vertex 70.4266 -14.9696 0
      vertex 70.4266 -14.9696 -2
    endloop
  endfacet
  facet normal 0 0 -1
    outer loop
      vertex 60 0 -2
      vertex 72 0 -2
      vertex 70.4266 -14.9696 -2
    endloop
  endfacet
  facet normal 0 0 -1
    outer loop
      vertex 58.6889 -12.4747 -2
      vertex 70.4266 -14.9696 -2
      vertex 65.7753 -29.285 -2
    endloop
  endfacet
  facet normal 0 0 -1
    outer loop
      vertex 72 0 -2
      vertex 60 0 -2
      vertex 70.4266 14.9696 -2
    endloop
  endfacet
  facet normal 0 0 -1
    outer loop
      vertex 58.6889 12.4747 -2
      vertex 70.4266 14.9696 -2
      vertex 60 0 -2
    endloop
  endfacet
  facet normal 0 0 -1
    outer loop
      vertex 70.4266 -14.9696 -2
      vertex 58.6889 -12.4747 -2
      vertex 60 0 -2
    endloop
  endfacet
  facet normal 0 0 -1
    outer loop
      vertex 54.8127 -24.4042 -2
      vertex 65.7753 -29.285 -2
      vertex 58.2492 -42.3205 -2
    endloop
  endfacet
  facet normal 0 0 -1
    outer loop
      vertex 65.7753 -29.285 -2
      vertex 54.8127 -24.4042 -2
      vertex 58.6889 -12.4747 -2
    endloop
  endfacet
  facet normal 0 0 -1
    outer loop
      vertex 58.2492 -42.3205 -2
      vertex 48.541 -35.2671 -2
      vertex 54.8127 -24.4042 -2
    endloop
  endfacet
  facet normal 0 0 -1
    outer loop
      vertex 48.1774 -53.5064 -2
      vertex 48.541 -35.2671 -2
      vertex 58.2492 -42.3205 -2
    endloop
  endfacet
  facet normal 0 0 -1
    outer loop
      vertex 48.1774 -53.5064 -2
      vertex 40.1478 -44.5887 -2
      vertex 48.541 -35.2671 -2
    endloop
  endfacet
  facet normal 0 0 -1
    outer loop
      vertex 36 -62.3538 -2
      vertex 40.1478 -44.5887 -2
      vertex 48.1774 -53.5064 -2
    endloop
  endfacet
  facet normal 0 0 -1
    outer loop
      vertex 36 -62.3538 -2
      vertex 30 -51.9615 -2
      vertex 40.1478 -44.5887 -2
    endloop
  endfacet
  facet normal 0 0 -1
    outer loop
      vertex 22.2492 -68.4761 -2
      vertex 30 -51.9615 -2
      vertex 36 -62.3538 -2
    endloop
  endfacet
  facet normal 0 0 -1
    outer loop
      vertex 22.2492 -68.4761 -2
      vertex 18.541 -57.0634 -2
      vertex 30 -51.9615 -2
    endloop
  endfacet
  facet normal 0 0 -1
    outer loop
      vertex 7.52605 -71.6056 -2
      vertex 18.541 -57.0634 -2
      vertex 22.2492 -68.4761 -2
    endloop
  endfacet
  facet normal 0 0 -1
    outer loop
      vertex 7.52605 -71.6056 -2
      vertex 6.27171 -59.6713 -2
      vertex 18.541 -57.0634 -2
    endloop
  endfacet
  facet normal 0 0 -1
    outer loop
      vertex 7.52605 -71.6056 -2
      vertex -6.27171 -59.6713 -2
      vertex 6.27171 -59.6713 -2
    endloop
  endfacet
  facet normal 0 0 -1
    outer loop
      vertex -7.52605 -71.6056 -2
      vertex -6.27171 -59.6713 -2
      vertex 7.52605 -71.6056 -2
    endloop
  endfacet
  facet normal 0 0 -1
    outer loop
      vertex -7.52605 -71.6056 -2
      vertex -18.541 -57.0634 -2
      vertex -6.27171 -59.6713 -2
    endloop
  endfacet
  facet normal 0 0 -1
    outer loop
      vertex -22.2492 -68.4761 -2
      vertex -18.541 -57.0634 -2
      vertex -7.52605 -71.6056 -2
    endloop
  endfacet
  facet normal 0 0 -1
    outer loop
      vertex -22.2492 -68.4761 -2
      vertex -30 -51.9615 -2
      vertex -18.541 -57.0634 -2
    endloop
  endfacet
  facet normal 0 0 -1
    outer loop
      vertex -36 -62.3538 -2
      vertex -30 -51.9615 -2
      vertex -22.2492 -68.4761 -2
    endloop
  endfacet
  facet normal 0 0 -1
    outer loop
      vertex -36 -62.3538 -2
      vertex -40.1478 -44.5887 -2
      vertex -30 -51.9615 -2
    endloop
  endfacet
  facet normal 0 0 -1
    outer loop
      vertex -48.1774 -53.5064 -2
      vertex -40.1478 -44.5887 -2
      vertex -36 -62.3538 -2
    endloop
  endfacet
  facet normal 0 0 -1
    outer loop
      vertex -48.1774 -53.5064 -2
      vertex -48.541 -35.2671 -2
      vertex -40.1478 -44.5887 -2
    endloop
  endfacet
  facet normal 0 0 -1
    outer loop
      vertex -58.2492 -42.3205 -2
      vertex -48.541 -35.2671 -2
      vertex -48.1774 -53.5064 -2
    endloop
  endfacet
  facet normal -0 0 -1
    outer loop
      vertex -48.541 -35.2671 -2
      vertex -58.2492 -42.3205 -2
      vertex -54.8127 -24.4042 -2
    endloop
  endfacet
  facet normal 0 0 -1
    outer loop
      vertex -65.7753 -29.285 -2
      vertex -54.8127 -24.4042 -2
      vertex -58.2492 -42.3205 -2
    endloop
  endfacet
  facet normal -0 0 -1
    outer loop
      vertex -54.8127 -24.4042 -2
      vertex -65.7753 -29.285 -2
      vertex -58.6889 -12.4747 -2
    endloop
  endfacet
  facet normal 0 0 -1
    outer loop
      vertex -70.4266 -14.9696 -2
      vertex -58.6889 -12.4747 -2
      vertex -65.7753 -29.285 -2
    endloop
  endfacet
  facet normal -0 0 -1
    outer loop
      vertex 70.4266 14.9696 -2
      vertex 58.6889 12.4747 -2
      vertex 65.7753 29.285 -2
    endloop
  endfacet
  facet normal 0 0 -1
    outer loop
      vertex 54.8127 24.4042 -2
      vertex 65.7753 29.285 -2
      vertex 58.6889 12.4747 -2
    endloop
  endfacet
  facet normal -0 0 -1
    outer loop
      vertex 65.7753 29.285 -2
      vertex 54.8127 24.4042 -2
      vertex 58.2492 42.3205 -2
    endloop
  endfacet
  facet normal 0 0 -1
    outer loop
      vertex 48.541 35.2671 -2
      vertex 58.2492 42.3205 -2
      vertex 54.8127 24.4042 -2
    endloop
  endfacet
  facet normal 0 0 -1
    outer loop
      vertex 48.541 35.2671 -2
      vertex 48.1774 53.5064 -2
      vertex 58.2492 42.3205 -2
    endloop
  endfacet
  facet normal 0 0 -1
    outer loop
      vertex 40.1478 44.5887 -2
      vertex 48.1774 53.5064 -2
      vertex 48.541 35.2671 -2
    endloop
  endfacet
  facet normal 0 0 -1
    outer loop
      vertex 40.1478 44.5887 -2
      vertex 36 62.3538 -2
      vertex 48.1774 53.5064 -2
    endloop
  endfacet
  facet normal 0 0 -1
    outer loop
      vertex 30 51.9615 -2
      vertex 36 62.3538 -2
      vertex 40.1478 44.5887 -2
    endloop
  endfacet
  facet normal 0 0 -1
    outer loop
      vertex 30 51.9615 -2
      vertex 22.2492 68.4761 -2
      vertex 36 62.3538 -2
    endloop
  endfacet
  facet normal 0 0 -1
    outer loop
      vertex 18.541 57.0634 -2
      vertex 22.2492 68.4761 -2
      vertex 30 51.9615 -2
    endloop
  endfacet
  facet normal 0 0 -1
    outer loop
      vertex 18.541 57.0634 -2
      vertex 7.52605 71.6056 -2
      vertex 22.2492 68.4761 -2
    endloop
  endfacet
  facet normal 0 0 -1
    outer loop
      vertex 6.27171 59.6713 -2
      vertex 7.52605 71.6056 -2
      vertex 18.541 57.0634 -2
    endloop
  endfacet
  facet normal 0 0 -1
    outer loop
      vertex -6.27171 59.6713 -2
      vertex 7.52605 71.6056 -2
      vertex 6.27171 59.6713 -2
    endloop
  endfacet
  facet normal 0 0 -1
    outer loop
      vertex -6.27171 59.6713 -2
      vertex -7.52605 71.6056 -2
      vertex 7.52605 71.6056 -2
    endloop
  endfacet
  facet normal 0 0 -1
    outer loop
      vertex -18.541 57.0634 -2
      vertex -7.52605 71.6056 -2
      vertex -6.27171 59.6713 -2
    endloop
  endfacet
  facet normal 0 0 -1
    outer loop
      vertex -18.541 57.0634 -2
      vertex -22.2492 68.4761 -2
      vertex -7.52605 71.6056 -2
    endloop
  endfacet
  facet normal 0 0 -1
    outer loop
      vertex -30 51.9615 -2
      vertex -22.2492 68.4761 -2
      vertex -18.541 57.0634 -2
    endloop
  endfacet
  facet normal 0 0 -1
    outer loop
      vertex -30 51.9615 -2
      vertex -36 62.3538 -2
      vertex -22.2492 68.4761 -2
    endloop
  endfacet
  facet normal 0 0 -1
    outer loop
      vertex -40.1478 44.5887 -2
      vertex -36 62.3538 -2
      vertex -30 51.9615 -2
    endloop
  endfacet
  facet normal 0 0 -1
    outer loop
      vertex -40.1478 44.5887 -2
      vertex -48.1774 53.5064 -2
      vertex -36 62.3538 -2
    endloop
  endfacet
  facet normal 0 0 -1
    outer loop
      vertex -48.541 35.2671 -2
      vertex -48.1774 53.5064 -2
      vertex -40.1478 44.5887 -2
    endloop
  endfacet
  facet normal 0 0 -1
    outer loop
      vertex -58.2492 42.3205 -2
      vertex -48.541 35.2671 -2
      vertex -54.8127 24.4042 -2
    endloop
  endfacet
  facet normal 0 0 -1
    outer loop
      vertex -48.541 35.2671 -2
      vertex -58.2492 42.3205 -2
      vertex -48.1774 53.5064 -2
    endloop
  endfacet
  facet normal 0 0 -1
    outer loop
      vertex -65.7753 29.285 -2
      vertex -54.8127 24.4042 -2
      vertex -58.6889 12.4747 -2
    endloop
  endfacet
  facet normal 0 0 -1
    outer loop
      vertex -70.4266 14.9696 -2
      vertex -58.6889 12.4747 -2
      vertex -60 0 -2
    endloop
  endfacet
  facet normal -0 0 -1
    outer loop
      vertex -58.6889 -12.4747 -2
      vertex -70.4266 -14.9696 -2
      vertex -60 0 -2
    endloop
  endfacet
  facet normal 0 0 -1
    outer loop
      vertex -54.8127 24.4042 -2
      vertex -65.7753 29.285 -2
      vertex -58.2492 42.3205 -2
    endloop
  endfacet
  facet normal 0 0 -1
    outer loop
      vertex -72 0 -2
      vertex -60 0 -2
      vertex -70.4266 -14.9696 -2
    endloop
  endfacet
  facet normal 0 0 -1
    outer loop
      vertex -58.6889 12.4747 -2
      vertex -70.4266 14.9696 -2
      vertex -65.7753 29.285 -2
    endloop
  endfacet
  facet normal 0 0 -1
    outer loop
      vertex -60 0 -2
      vertex -72 0 -2
      vertex -70.4266 14.9696 -2
    endloop
  endfacet
  facet normal 0.207912 -0.978148 0
    outer loop
      vertex 7.52605 -71.6056 -2
      vertex 22.2492 -68.4761 0
      vertex 7.52605 -71.6056 0
    endloop
  endfacet
  facet normal 0.207912 -0.978148 0
    outer loop
      vertex 22.2492 -68.4761 0
      vertex 7.52605 -71.6056 -2
      vertex 22.2492 -68.4761 -2
    endloop
  endfacet
  facet normal 0.743145 -0.669131 0
    outer loop
      vertex 48.1774 -53.5064 0
      vertex 58.2492 -42.3205 -2
      vertex 58.2492 -42.3205 0
    endloop
  endfacet
  facet normal 0.743145 -0.669131 0
    outer loop
      vertex 58.2492 -42.3205 -2
      vertex 48.1774 -53.5064 0
      vertex 48.1774 -53.5064 -2
    endloop
  endfacet
  facet normal 0.951056 -0.309017 0
    outer loop
      vertex 65.7753 -29.285 0
      vertex 70.4266 -14.9696 -2
      vertex 70.4266 -14.9696 0
    endloop
  endfacet
  facet normal 0.951056 -0.309017 0
    outer loop
      vertex 70.4266 -14.9696 -2
      vertex 65.7753 -29.285 0
      vertex 65.7753 -29.285 -2
    endloop
  endfacet
  facet normal 0.866025 -0.5 0
    outer loop
      vertex 58.2492 -42.3205 0
      vertex 65.7753 -29.285 -2
      vertex 65.7753 -29.285 0
    endloop
  endfacet
  facet normal 0.866025 -0.5 0
    outer loop
      vertex 65.7753 -29.285 -2
      vertex 58.2492 -42.3205 0
      vertex 58.2492 -42.3205 -2
    endloop
  endfacet
  facet normal -0.587785 -0.809017 0
    outer loop
      vertex -48.1774 -53.5064 -2
      vertex -36 -62.3538 0
      vertex -48.1774 -53.5064 0
    endloop
  endfacet
  facet normal -0.587785 -0.809017 -0
    outer loop
      vertex -36 -62.3538 0
      vertex -48.1774 -53.5064 -2
      vertex -36 -62.3538 -2
    endloop
  endfacet
  facet normal -0.866025 -0.5 0
    outer loop
      vertex -58.2492 -42.3205 -2
      vertex -65.7753 -29.285 0
      vertex -65.7753 -29.285 -2
    endloop
  endfacet
  facet normal -0.866025 -0.5 0
    outer loop
      vertex -65.7753 -29.285 0
      vertex -58.2492 -42.3205 -2
      vertex -58.2492 -42.3205 0
    endloop
  endfacet
  facet normal 0.587785 -0.809017 0
    outer loop
      vertex 36 -62.3538 -2
      vertex 48.1774 -53.5064 0
      vertex 36 -62.3538 0
    endloop
  endfacet
  facet normal 0.587785 -0.809017 0
    outer loop
      vertex 48.1774 -53.5064 0
      vertex 36 -62.3538 -2
      vertex 48.1774 -53.5064 -2
    endloop
  endfacet
  facet normal 0.406736 -0.913546 0
    outer loop
      vertex 22.2492 -68.4761 -2
      vertex 36 -62.3538 0
      vertex 22.2492 -68.4761 0
    endloop
  endfacet
  facet normal 0.406736 -0.913546 0
    outer loop
      vertex 36 -62.3538 0
      vertex 22.2492 -68.4761 -2
      vertex 36 -62.3538 -2
    endloop
  endfacet
  facet normal -0.406736 -0.913546 0
    outer loop
      vertex -36 -62.3538 -2
      vertex -22.2492 -68.4761 0
      vertex -36 -62.3538 0
    endloop
  endfacet
  facet normal -0.406736 -0.913546 -0
    outer loop
      vertex -22.2492 -68.4761 0
      vertex -36 -62.3538 -2
      vertex -22.2492 -68.4761 -2
    endloop
  endfacet
  facet normal -0.743145 -0.669131 0
    outer loop
      vertex -48.1774 -53.5064 -2
      vertex -58.2492 -42.3205 0
      vertex -58.2492 -42.3205 -2
    endloop
  endfacet
  facet normal -0.743145 -0.669131 0
    outer loop
      vertex -58.2492 -42.3205 0
      vertex -48.1774 -53.5064 -2
      vertex -48.1774 -53.5064 0
    endloop
  endfacet
  facet normal -0.951056 -0.309017 0
    outer loop
      vertex -65.7753 -29.285 -2
      vertex -70.4266 -14.9696 0
      vertex -70.4266 -14.9696 -2
    endloop
  endfacet
  facet normal -0.951056 -0.309017 0
    outer loop
      vertex -70.4266 -14.9696 0
      vertex -65.7753 -29.285 -2
      vertex -65.7753 -29.285 0
    endloop
  endfacet
  facet normal -0.994522 -0.104528 0
    outer loop
      vertex -70.4266 -14.9696 -2
      vertex -72 0 0
      vertex -72 0 -2
    endloop
  endfacet
  facet normal -0.994522 -0.104528 0
    outer loop
      vertex -72 0 0
      vertex -70.4266 -14.9696 -2
      vertex -70.4266 -14.9696 0
    endloop
  endfacet
  facet normal -0.207912 -0.978148 0
    outer loop
      vertex -22.2492 -68.4761 -2
      vertex -7.52605 -71.6056 0
      vertex -22.2492 -68.4761 0
    endloop
  endfacet
  facet normal -0.207912 -0.978148 -0
    outer loop
      vertex -7.52605 -71.6056 0
      vertex -22.2492 -68.4761 -2
      vertex -7.52605 -71.6056 -2
    endloop
  endfacet
  facet normal -0.994522 -0.104529 0
    outer loop
      vertex 60 0 -2
      vertex 58.6889 12.4747 0
      vertex 58.6889 12.4747 -2
    endloop
  endfacet
  facet normal -0.994522 -0.104529 0
    outer loop
      vertex 58.6889 12.4747 0
      vertex 60 0 -2
      vertex 60 0 0
    endloop
  endfacet
  facet normal 0.994522 -0.104529 0
    outer loop
      vertex -60 0 0
      vertex -58.6889 12.4747 -2
      vertex -58.6889 12.4747 0
    endloop
  endfacet
  facet normal 0.994522 -0.104529 0
    outer loop
      vertex -58.6889 12.4747 -2
      vertex -60 0 0
      vertex -60 0 -2
    endloop
  endfacet
  facet normal 0 -1 0
    outer loop
      vertex -6.27171 59.6713 -2
      vertex 6.27171 59.6713 0
      vertex -6.27171 59.6713 0
    endloop
  endfacet
  facet normal 0 -1 -0
    outer loop
      vertex 6.27171 59.6713 0
      vertex -6.27171 59.6713 -2
      vertex 6.27171 59.6713 -2
    endloop
  endfacet
  facet normal 0 1 -0
    outer loop
      vertex 6.27171 -59.6713 -2
      vertex -6.27171 -59.6713 0
      vertex 6.27171 -59.6713 0
    endloop
  endfacet
  facet normal 0 1 0
    outer loop
      vertex -6.27171 -59.6713 0
      vertex 6.27171 -59.6713 -2
      vertex -6.27171 -59.6713 -2
    endloop
  endfacet
  facet normal -0.587785 -0.809017 0
    outer loop
      vertex 30 51.9615 -2
      vertex 40.1478 44.5887 0
      vertex 30 51.9615 0
    endloop
  endfacet
  facet normal -0.587785 -0.809017 -0
    outer loop
      vertex 40.1478 44.5887 0
      vertex 30 51.9615 -2
      vertex 40.1478 44.5887 -2
    endloop
  endfacet
  facet normal -0.406737 -0.913545 0
    outer loop
      vertex 18.541 57.0634 -2
      vertex 30 51.9615 0
      vertex 18.541 57.0634 0
    endloop
  endfacet
  facet normal -0.406737 -0.913545 -0
    outer loop
      vertex 30 51.9615 0
      vertex 18.541 57.0634 -2
      vertex 30 51.9615 -2
    endloop
  endfacet
  facet normal 0.743145 -0.669131 0
    outer loop
      vertex -48.541 35.2671 0
      vertex -40.1478 44.5887 -2
      vertex -40.1478 44.5887 0
    endloop
  endfacet
  facet normal 0.743145 -0.669131 0
    outer loop
      vertex -40.1478 44.5887 -2
      vertex -48.541 35.2671 0
      vertex -48.541 35.2671 -2
    endloop
  endfacet
  facet normal 0.866025 -0.5 0
    outer loop
      vertex -54.8127 24.4042 0
      vertex -48.541 35.2671 -2
      vertex -48.541 35.2671 0
    endloop
  endfacet
  facet normal 0.866025 -0.5 0
    outer loop
      vertex -48.541 35.2671 -2
      vertex -54.8127 24.4042 0
      vertex -54.8127 24.4042 -2
    endloop
  endfacet
  facet normal 0.406737 -0.913545 0
    outer loop
      vertex -30 51.9615 -2
      vertex -18.541 57.0634 0
      vertex -30 51.9615 0
    endloop
  endfacet
  facet normal 0.406737 -0.913545 0
    outer loop
      vertex -18.541 57.0634 0
      vertex -30 51.9615 -2
      vertex -18.541 57.0634 -2
    endloop
  endfacet
  facet normal -0.866025 -0.5 0
    outer loop
      vertex 54.8127 24.4042 -2
      vertex 48.541 35.2671 0
      vertex 48.541 35.2671 -2
    endloop
  endfacet
  facet normal -0.866025 -0.5 0
    outer loop
      vertex 48.541 35.2671 0
      vertex 54.8127 24.4042 -2
      vertex 54.8127 24.4042 0
    endloop
  endfacet
  facet normal -0.951057 -0.309017 0
    outer loop
      vertex 58.6889 12.4747 -2
      vertex 54.8127 24.4042 0
      vertex 54.8127 24.4042 -2
    endloop
  endfacet
  facet normal -0.951057 -0.309017 0
    outer loop
      vertex 54.8127 24.4042 0
      vertex 58.6889 12.4747 -2
      vertex 58.6889 12.4747 0
    endloop
  endfacet
  facet normal -0.743145 -0.669131 0
    outer loop
      vertex 48.541 35.2671 -2
      vertex 40.1478 44.5887 0
      vertex 40.1478 44.5887 -2
    endloop
  endfacet
  facet normal -0.743145 -0.669131 0
    outer loop
      vertex 40.1478 44.5887 0
      vertex 48.541 35.2671 -2
      vertex 48.541 35.2671 0
    endloop
  endfacet
  facet normal -0.207912 -0.978148 0
    outer loop
      vertex 6.27171 59.6713 -2
      vertex 18.541 57.0634 0
      vertex 6.27171 59.6713 0
    endloop
  endfacet
  facet normal -0.207912 -0.978148 -0
    outer loop
      vertex 18.541 57.0634 0
      vertex 6.27171 59.6713 -2
      vertex 18.541 57.0634 -2
    endloop
  endfacet
  facet normal 0.951057 -0.309017 0
    outer loop
      vertex -58.6889 12.4747 0
      vertex -54.8127 24.4042 -2
      vertex -54.8127 24.4042 0
    endloop
  endfacet
  facet normal 0.951057 -0.309017 0
    outer loop
      vertex -54.8127 24.4042 -2
      vertex -58.6889 12.4747 0
      vertex -58.6889 12.4747 -2
    endloop
  endfacet
  facet normal 0.587785 -0.809017 0
    outer loop
      vertex -40.1478 44.5887 -2
      vertex -30 51.9615 0
      vertex -40.1478 44.5887 0
    endloop
  endfacet
  facet normal 0.587785 -0.809017 0
    outer loop
      vertex -30 51.9615 0
      vertex -40.1478 44.5887 -2
      vertex -30 51.9615 -2
    endloop
  endfacet
  facet normal 0.207912 -0.978148 0
    outer loop
      vertex -18.541 57.0634 -2
      vertex -6.27171 59.6713 0
      vertex -18.541 57.0634 0
    endloop
  endfacet
  facet normal 0.207912 -0.978148 0
    outer loop
      vertex -6.27171 59.6713 0
      vertex -18.541 57.0634 -2
      vertex -6.27171 59.6713 -2
    endloop
  endfacet
  facet normal -0.994522 0.104529 0
    outer loop
      vertex 58.6889 -12.4747 -2
      vertex 60 0 0
      vertex 60 0 -2
    endloop
  endfacet
  facet normal -0.994522 0.104529 0
    outer loop
      vertex 60 0 0
      vertex 58.6889 -12.4747 -2
      vertex 58.6889 -12.4747 0
    endloop
  endfacet
  facet normal -0.207912 0.978148 0
    outer loop
      vertex 18.541 -57.0634 -2
      vertex 6.27171 -59.6713 0
      vertex 18.541 -57.0634 0
    endloop
  endfacet
  facet normal -0.207912 0.978148 0
    outer loop
      vertex 6.27171 -59.6713 0
      vertex 18.541 -57.0634 -2
      vertex 6.27171 -59.6713 -2
    endloop
  endfacet
  facet normal -0.866025 0.5 0
    outer loop
      vertex 48.541 -35.2671 -2
      vertex 54.8127 -24.4042 0
      vertex 54.8127 -24.4042 -2
    endloop
  endfacet
  facet normal -0.866025 0.5 0
    outer loop
      vertex 54.8127 -24.4042 0
      vertex 48.541 -35.2671 -2
      vertex 48.541 -35.2671 0
    endloop
  endfacet
  facet normal 0.866025 0.5 0
    outer loop
      vertex -48.541 -35.2671 0
      vertex -54.8127 -24.4042 -2
      vertex -54.8127 -24.4042 0
    endloop
  endfacet
  facet normal 0.866025 0.5 0
    outer loop
      vertex -54.8127 -24.4042 -2
      vertex -48.541 -35.2671 0
      vertex -48.541 -35.2671 -2
    endloop
  endfacet
  facet normal 0.994522 0.104529 0
    outer loop
      vertex -58.6889 -12.4747 0
      vertex -60 0 -2
      vertex -60 0 0
    endloop
  endfacet
  facet normal 0.994522 0.104529 0
    outer loop
      vertex -60 0 -2
      vertex -58.6889 -12.4747 0
      vertex -58.6889 -12.4747 -2
    endloop
  endfacet
  facet normal -0.587785 0.809017 0
    outer loop
      vertex 40.1478 -44.5887 -2
      vertex 30 -51.9615 0
      vertex 40.1478 -44.5887 0
    endloop
  endfacet
  facet normal -0.587785 0.809017 0
    outer loop
      vertex 30 -51.9615 0
      vertex 40.1478 -44.5887 -2
      vertex 30 -51.9615 -2
    endloop
  endfacet
  facet normal -0.406737 0.913545 0
    outer loop
      vertex 30 -51.9615 -2
      vertex 18.541 -57.0634 0
      vertex 30 -51.9615 0
    endloop
  endfacet
  facet normal -0.406737 0.913545 0
    outer loop
      vertex 18.541 -57.0634 0
      vertex 30 -51.9615 -2
      vertex 18.541 -57.0634 -2
    endloop
  endfacet
  facet normal -0.951057 0.309017 0
    outer loop
      vertex 54.8127 -24.4042 -2
      vertex 58.6889 -12.4747 0
      vertex 58.6889 -12.4747 -2
    endloop
  endfacet
  facet normal -0.951057 0.309017 0
    outer loop
      vertex 58.6889 -12.4747 0
      vertex 54.8127 -24.4042 -2
      vertex 54.8127 -24.4042 0
    endloop
  endfacet
  facet normal 0.743145 0.669131 0
    outer loop
      vertex -40.1478 -44.5887 0
      vertex -48.541 -35.2671 -2
      vertex -48.541 -35.2671 0
    endloop
  endfacet
  facet normal 0.743145 0.669131 0
    outer loop
      vertex -48.541 -35.2671 -2
      vertex -40.1478 -44.5887 0
      vertex -40.1478 -44.5887 -2
    endloop
  endfacet
  facet normal 0.951057 0.309017 0
    outer loop
      vertex -54.8127 -24.4042 0
      vertex -58.6889 -12.4747 -2
      vertex -58.6889 -12.4747 0
    endloop
  endfacet
  facet normal 0.951057 0.309017 0
    outer loop
      vertex -58.6889 -12.4747 -2
      vertex -54.8127 -24.4042 0
      vertex -54.8127 -24.4042 -2
    endloop
  endfacet
  facet normal -0.743145 0.669131 0
    outer loop
      vertex 40.1478 -44.5887 -2
      vertex 48.541 -35.2671 0
      vertex 48.541 -35.2671 -2
    endloop
  endfacet
  facet normal -0.743145 0.669131 0
    outer loop
      vertex 48.541 -35.2671 0
      vertex 40.1478 -44.5887 -2
      vertex 40.1478 -44.5887 0
    endloop
  endfacet
  facet normal 0.587785 0.809017 -0
    outer loop
      vertex -30 -51.9615 -2
      vertex -40.1478 -44.5887 0
      vertex -30 -51.9615 0
    endloop
  endfacet
  facet normal 0.587785 0.809017 0
    outer loop
      vertex -40.1478 -44.5887 0
      vertex -30 -51.9615 -2
      vertex -40.1478 -44.5887 -2
    endloop
  endfacet
  facet normal 0.406737 0.913545 -0
    outer loop
      vertex -18.541 -57.0634 -2
      vertex -30 -51.9615 0
      vertex -18.541 -57.0634 0
    endloop
  endfacet
  facet normal 0.406737 0.913545 0
    outer loop
      vertex -30 -51.9615 0
      vertex -18.541 -57.0634 -2
      vertex -30 -51.9615 -2
    endloop
  endfacet
  facet normal 0.207912 0.978148 -0
    outer loop
      vertex -6.27171 -59.6713 -2
      vertex -18.541 -57.0634 0
      vertex -6.27171 -59.6713 0
    endloop
  endfacet
  facet normal 0.207912 0.978148 0
    outer loop
      vertex -18.541 -57.0634 0
      vertex -6.27171 -59.6713 -2
      vertex -18.541 -57.0634 -2
    endloop
  endfacet
endsolid OpenSCAD_Model
