solid OpenSCAD_Model
  facet normal 0 0 -1
    outer loop
      vertex 7.5 -3 17
      vertex 20.5 -1 17
      vertex 20.5 -3 17
    endloop
  endfacet
  facet normal -0 0 -1
    outer loop
      vertex 20.5 -1 17
      vertex 7.5 -3 17
      vertex 7.5 -1 17
    endloop
  endfacet
  facet normal 0 0 -1
    outer loop
      vertex 20.5 -3 16
      vertex 21 -1 16
      vertex 21 -3 16
    endloop
  endfacet
  facet normal -0 0 -1
    outer loop
      vertex 21 -1 16
      vertex 20.5 -3 16
      vertex 20.5 -1 16
    endloop
  endfacet
  facet normal 0 0 -1
    outer loop
      vertex 7 -3 16
      vertex 7.5 -1 16
      vertex 7.5 -3 16
    endloop
  endfacet
  facet normal -0 0 -1
    outer loop
      vertex 7.5 -1 16
      vertex 7 -3 16
      vertex 7 -1 16
    endloop
  endfacet
  facet normal -1 0 0
    outer loop
      vertex 20.5 -3 16
      vertex 20.5 -1 17
      vertex 20.5 -1 16
    endloop
  endfacet
  facet normal -1 -0 0
    outer loop
      vertex 20.5 -1 17
      vertex 20.5 -3 16
      vertex 20.5 -3 17
    endloop
  endfacet
  facet normal 1 -0 0
    outer loop
      vertex 7.5 -3 17
      vertex 7.5 -1 16
      vertex 7.5 -1 17
    endloop
  endfacet
  facet normal 1 0 0
    outer loop
      vertex 7.5 -1 16
      vertex 7.5 -3 17
      vertex 7.5 -3 16
    endloop
  endfacet
  facet normal 1 -0 0
    outer loop
      vertex 7 -3 16
      vertex 7 -1 15
      vertex 7 -1 16
    endloop
  endfacet
  facet normal 1 0 0
    outer loop
      vertex 7 -1 15
      vertex 7 -3 16
      vertex 7 -3 15
    endloop
  endfacet
  facet normal 0 0 -1
    outer loop
      vertex 21 -3 15
      vertex 21.5 -1 15
      vertex 21.5 -3 15
    endloop
  endfacet
  facet normal -0 0 -1
    outer loop
      vertex 21.5 -1 15
      vertex 21 -3 15
      vertex 21 -1 15
    endloop
  endfacet
  facet normal 0 0 -1
    outer loop
      vertex 6.5 -3 15
      vertex 7 -1 15
      vertex 7 -3 15
    endloop
  endfacet
  facet normal -0 0 -1
    outer loop
      vertex 7 -1 15
      vertex 6.5 -3 15
      vertex 6.5 -1 15
    endloop
  endfacet
  facet normal -1 0 0
    outer loop
      vertex 21 -3 15
      vertex 21 -1 16
      vertex 21 -1 15
    endloop
  endfacet
  facet normal -1 -0 0
    outer loop
      vertex 21 -1 16
      vertex 21 -3 15
      vertex 21 -3 16
    endloop
  endfacet
  facet normal 0 0 -1
    outer loop
      vertex 21.5 -3 14
      vertex 22 -1 14
      vertex 22 -3 14
    endloop
  endfacet
  facet normal -0 0 -1
    outer loop
      vertex 22 -1 14
      vertex 21.5 -3 14
      vertex 21.5 -1 14
    endloop
  endfacet
  facet normal 0 0 -1
    outer loop
      vertex 6 -3 14
      vertex 6.5 -1 14
      vertex 6.5 -3 14
    endloop
  endfacet
  facet normal -0 0 -1
    outer loop
      vertex 6.5 -1 14
      vertex 6 -3 14
      vertex 6 -1 14
    endloop
  endfacet
  facet normal -1 0 0
    outer loop
      vertex 21.5 -3 14
      vertex 21.5 -1 15
      vertex 21.5 -1 14
    endloop
  endfacet
  facet normal -1 -0 0
    outer loop
      vertex 21.5 -1 15
      vertex 21.5 -3 14
      vertex 21.5 -3 15
    endloop
  endfacet
  facet normal 1 -0 0
    outer loop
      vertex 6.5 -3 15
      vertex 6.5 -1 14
      vertex 6.5 -1 15
    endloop
  endfacet
  facet normal 1 0 0
    outer loop
      vertex 6.5 -1 14
      vertex 6.5 -3 15
      vertex 6.5 -3 14
    endloop
  endfacet
  facet normal 1 -0 0
    outer loop
      vertex 6 -3 14
      vertex 6 -1 13
      vertex 6 -1 14
    endloop
  endfacet
  facet normal 1 0 0
    outer loop
      vertex 6 -1 13
      vertex 6 -3 14
      vertex 6 -3 13
    endloop
  endfacet
  facet normal 0 0 -1
    outer loop
      vertex 22 -3 13
      vertex 22.5 -1 13
      vertex 22.5 -3 13
    endloop
  endfacet
  facet normal -0 0 -1
    outer loop
      vertex 22.5 -1 13
      vertex 22 -3 13
      vertex 22 -1 13
    endloop
  endfacet
  facet normal 0 0 -1
    outer loop
      vertex 5.5 -3 13
      vertex 6 -1 13
      vertex 6 -3 13
    endloop
  endfacet
  facet normal -0 0 -1
    outer loop
      vertex 6 -1 13
      vertex 5.5 -3 13
      vertex 5.5 -1 13
    endloop
  endfacet
  facet normal -1 0 0
    outer loop
      vertex 22 -3 13
      vertex 22 -1 14
      vertex 22 -1 13
    endloop
  endfacet
  facet normal -1 -0 0
    outer loop
      vertex 22 -1 14
      vertex 22 -3 13
      vertex 22 -3 14
    endloop
  endfacet
  facet normal 1 -0 0
    outer loop
      vertex 5.5 -3 13
      vertex 5.5 -1 12
      vertex 5.5 -1 13
    endloop
  endfacet
  facet normal 1 0 0
    outer loop
      vertex 5.5 -1 12
      vertex 5.5 -3 13
      vertex 5.5 -3 12
    endloop
  endfacet
  facet normal 0 0 -1
    outer loop
      vertex 22.5 -3 12
      vertex 23 -1 12
      vertex 23 -3 12
    endloop
  endfacet
  facet normal -0 0 -1
    outer loop
      vertex 23 -1 12
      vertex 22.5 -3 12
      vertex 22.5 -1 12
    endloop
  endfacet
  facet normal 0 0 -1
    outer loop
      vertex 5 -3 12
      vertex 5.5 -1 12
      vertex 5.5 -3 12
    endloop
  endfacet
  facet normal -0 0 -1
    outer loop
      vertex 5.5 -1 12
      vertex 5 -3 12
      vertex 5 -1 12
    endloop
  endfacet
  facet normal -1 0 0
    outer loop
      vertex 22.5 -3 12
      vertex 22.5 -1 13
      vertex 22.5 -1 12
    endloop
  endfacet
  facet normal -1 -0 0
    outer loop
      vertex 22.5 -1 13
      vertex 22.5 -3 12
      vertex 22.5 -3 13
    endloop
  endfacet
  facet normal 1 -0 0
    outer loop
      vertex 5 -3 12
      vertex 5 -1 11
      vertex 5 -1 12
    endloop
  endfacet
  facet normal 1 0 0
    outer loop
      vertex 5 -1 11
      vertex 5 -3 12
      vertex 5 -3 11
    endloop
  endfacet
  facet normal 0 0 -1
    outer loop
      vertex 23 -3 11
      vertex 23.5 -1 11
      vertex 23.5 -3 11
    endloop
  endfacet
  facet normal -0 0 -1
    outer loop
      vertex 23.5 -1 11
      vertex 23 -3 11
      vertex 23 -1 11
    endloop
  endfacet
  facet normal 0 0 -1
    outer loop
      vertex 4.5 -3 11
      vertex 5 -1 11
      vertex 5 -3 11
    endloop
  endfacet
  facet normal -0 0 -1
    outer loop
      vertex 5 -1 11
      vertex 4.5 -3 11
      vertex 4.5 -1 11
    endloop
  endfacet
  facet normal -1 0 0
    outer loop
      vertex 23 -3 11
      vertex 23 -1 12
      vertex 23 -1 11
    endloop
  endfacet
  facet normal -1 -0 0
    outer loop
      vertex 23 -1 12
      vertex 23 -3 11
      vertex 23 -3 12
    endloop
  endfacet
  facet normal 1 -0 0
    outer loop
      vertex 4.5 -3 11
      vertex 4.5 -1 10
      vertex 4.5 -1 11
    endloop
  endfacet
  facet normal 1 0 0
    outer loop
      vertex 4.5 -1 10
      vertex 4.5 -3 11
      vertex 4.5 -3 10
    endloop
  endfacet
  facet normal 0 0 -1
    outer loop
      vertex 4.5 -3 10
      vertex 4.44089e-016 -1 10
      vertex 4.5 -1 10
    endloop
  endfacet
  facet normal 0 -0 -1
    outer loop
      vertex 4.44089e-016 -1 10
      vertex 4.5 -3 10
      vertex -2 -3 10
    endloop
  endfacet
  facet normal 0 0 -1
    outer loop
      vertex 30 -3 10
      vertex 28 -1 10
      vertex 30 39 10
    endloop
  endfacet
  facet normal 0 0 -1
    outer loop
      vertex 23.5 -3 10
      vertex 28 -1 10
      vertex 30 -3 10
    endloop
  endfacet
  facet normal -0 0 -1
    outer loop
      vertex 28 -1 10
      vertex 23.5 -3 10
      vertex 23.5 -1 10
    endloop
  endfacet
  facet normal 0 0 -1
    outer loop
      vertex 28 37 10
      vertex 30 39 10
      vertex 28 -1 10
    endloop
  endfacet
  facet normal 0 0 -1
    outer loop
      vertex 8.88178e-015 37 10
      vertex 30 39 10
      vertex 28 37 10
    endloop
  endfacet
  facet normal 0 0 -1
    outer loop
      vertex -2 -3 10
      vertex 8.88178e-015 37 10
      vertex 4.44089e-016 -1 10
    endloop
  endfacet
  facet normal 0 0 -1
    outer loop
      vertex 8.88178e-015 37 10
      vertex -2 39 10
      vertex 30 39 10
    endloop
  endfacet
  facet normal 0 0 -1
    outer loop
      vertex -2 39 10
      vertex 8.88178e-015 37 10
      vertex -2 -3 10
    endloop
  endfacet
  facet normal -1 0 0
    outer loop
      vertex 23.5 -3 10
      vertex 23.5 -1 11
      vertex 23.5 -1 10
    endloop
  endfacet
  facet normal -1 -0 0
    outer loop
      vertex 23.5 -1 11
      vertex 23.5 -3 10
      vertex 23.5 -3 11
    endloop
  endfacet
  facet normal 0 -1 0
    outer loop
      vertex -2 -3 38
      vertex 7.5 -3 17
      vertex 30 -3 38
    endloop
  endfacet
  facet normal 0 -1 0
    outer loop
      vertex -2 -3 10
      vertex 7.5 -3 17
      vertex -2 -3 38
    endloop
  endfacet
  facet normal 0 -1 0
    outer loop
      vertex 7.5 -3 17
      vertex -2 -3 10
      vertex 7 -3 16
    endloop
  endfacet
  facet normal 0 -1 0
    outer loop
      vertex 7 -3 16
      vertex -2 -3 10
      vertex 6.5 -3 15
    endloop
  endfacet
  facet normal 0 -1 0
    outer loop
      vertex 6.5 -3 15
      vertex -2 -3 10
      vertex 6 -3 14
    endloop
  endfacet
  facet normal 0 -1 0
    outer loop
      vertex 6 -3 14
      vertex -2 -3 10
      vertex 5.5 -3 13
    endloop
  endfacet
  facet normal 0 -1 0
    outer loop
      vertex 5.5 -3 13
      vertex -2 -3 10
      vertex 5 -3 12
    endloop
  endfacet
  facet normal 0 -1 0
    outer loop
      vertex 5 -3 12
      vertex -2 -3 10
      vertex 4.5 -3 11
    endloop
  endfacet
  facet normal 0 -1 -0
    outer loop
      vertex 4.5 -3 11
      vertex -2 -3 10
      vertex 4.5 -3 10
    endloop
  endfacet
  facet normal 0 -1 0
    outer loop
      vertex 20.5 -3 17
      vertex 30 -3 38
      vertex 7.5 -3 17
    endloop
  endfacet
  facet normal 0 -1 0
    outer loop
      vertex 21 -3 16
      vertex 20.5 -3 17
      vertex 20.5 -3 16
    endloop
  endfacet
  facet normal 0 -1 0
    outer loop
      vertex 30 -3 10
      vertex 20.5 -3 17
      vertex 21 -3 16
    endloop
  endfacet
  facet normal 0 -1 0
    outer loop
      vertex 21.5 -3 15
      vertex 21 -3 16
      vertex 21 -3 15
    endloop
  endfacet
  facet normal 0 -1 0
    outer loop
      vertex 30 -3 10
      vertex 21 -3 16
      vertex 21.5 -3 15
    endloop
  endfacet
  facet normal 0 -1 0
    outer loop
      vertex 22 -3 14
      vertex 21.5 -3 15
      vertex 21.5 -3 14
    endloop
  endfacet
  facet normal 0 -1 0
    outer loop
      vertex 30 -3 10
      vertex 21.5 -3 15
      vertex 22 -3 14
    endloop
  endfacet
  facet normal 0 -1 0
    outer loop
      vertex 22.5 -3 13
      vertex 22 -3 14
      vertex 22 -3 13
    endloop
  endfacet
  facet normal 0 -1 0
    outer loop
      vertex 30 -3 10
      vertex 22 -3 14
      vertex 22.5 -3 13
    endloop
  endfacet
  facet normal 0 -1 0
    outer loop
      vertex 23 -3 12
      vertex 22.5 -3 13
      vertex 22.5 -3 12
    endloop
  endfacet
  facet normal 0 -1 0
    outer loop
      vertex 30 -3 10
      vertex 22.5 -3 13
      vertex 23 -3 12
    endloop
  endfacet
  facet normal 0 -1 0
    outer loop
      vertex 23.5 -3 11
      vertex 23 -3 12
      vertex 23 -3 11
    endloop
  endfacet
  facet normal 0 -1 0
    outer loop
      vertex 30 -3 10
      vertex 23 -3 12
      vertex 23.5 -3 11
    endloop
  endfacet
  facet normal 0 -1 0
    outer loop
      vertex 30 -3 10
      vertex 23.5 -3 11
      vertex 23.5 -3 10
    endloop
  endfacet
  facet normal 0 -1 0
    outer loop
      vertex 20.5 -3 17
      vertex 30 -3 10
      vertex 30 -3 38
    endloop
  endfacet
  facet normal 0 -1 -0
    outer loop
      vertex 7.5 -3 17
      vertex 7 -3 16
      vertex 7.5 -3 16
    endloop
  endfacet
  facet normal 0 -1 -0
    outer loop
      vertex 7 -3 16
      vertex 6.5 -3 15
      vertex 7 -3 15
    endloop
  endfacet
  facet normal 0 -1 -0
    outer loop
      vertex 6.5 -3 15
      vertex 6 -3 14
      vertex 6.5 -3 14
    endloop
  endfacet
  facet normal 0 -1 -0
    outer loop
      vertex 6 -3 14
      vertex 5.5 -3 13
      vertex 6 -3 13
    endloop
  endfacet
  facet normal 0 -1 -0
    outer loop
      vertex 5.5 -3 13
      vertex 5 -3 12
      vertex 5.5 -3 12
    endloop
  endfacet
  facet normal 0 -1 -0
    outer loop
      vertex 5 -3 12
      vertex 4.5 -3 11
      vertex 5 -3 11
    endloop
  endfacet
  facet normal 0 0 1
    outer loop
      vertex 20.4526 15.7165 38
      vertex 30 26 38
      vertex 20.4526 17.2835 38
    endloop
  endfacet
  facet normal 0 0 1
    outer loop
      vertex 30 26 38
      vertex 20.3372 17.7516 38
      vertex 20.4526 17.2835 38
    endloop
  endfacet
  facet normal 0 0 1
    outer loop
      vertex 30 26 38
      vertex 20.0776 18.8049 38
      vertex 20.3372 17.7516 38
    endloop
  endfacet
  facet normal 0 0 1
    outer loop
      vertex 30 26 38
      vertex 19.8535 19.2319 38
      vertex 20.0776 18.8049 38
    endloop
  endfacet
  facet normal 0 0 1
    outer loop
      vertex 30 26 38
      vertex 19.3494 20.1924 38
      vertex 19.8535 19.2319 38
    endloop
  endfacet
  facet normal 0 0 1
    outer loop
      vertex 30 26 38
      vertex 18.63 21.0044 38
      vertex 19.3494 20.1924 38
    endloop
  endfacet
  facet normal 0 0 1
    outer loop
      vertex 30 26 38
      vertex 18.3103 21.3653 38
      vertex 18.63 21.0044 38
    endloop
  endfacet
  facet normal 0 0 1
    outer loop
      vertex 30 26 38
      vertex 17.0207 22.2555 38
      vertex 18.3103 21.3653 38
    endloop
  endfacet
  facet normal 0 0 1
    outer loop
      vertex 30 26 38
      vertex 16.5699 22.4264 38
      vertex 17.0207 22.2555 38
    endloop
  endfacet
  facet normal 0 0 1
    outer loop
      vertex 30 26 38
      vertex 15.5556 22.8111 38
      vertex 16.5699 22.4264 38
    endloop
  endfacet
  facet normal 0 0 1
    outer loop
      vertex 30 26 38
      vertex 14.4786 22.9419 38
      vertex 15.5556 22.8111 38
    endloop
  endfacet
  facet normal 0 0 1
    outer loop
      vertex 30 26 38
      vertex 14 23 38
      vertex 14.4786 22.9419 38
    endloop
  endfacet
  facet normal -0 0 1
    outer loop
      vertex -2 26 38
      vertex 14 23 38
      vertex 30 26 38
    endloop
  endfacet
  facet normal 0 0 1
    outer loop
      vertex 14 23 38
      vertex -2 26 38
      vertex 13.5214 22.9419 38
    endloop
  endfacet
  facet normal 0 0 1
    outer loop
      vertex -2 26 38
      vertex 11.4301 22.4264 38
      vertex 12.4444 22.8111 38
    endloop
  endfacet
  facet normal 0 0 1
    outer loop
      vertex -2 26 38
      vertex 9.36998 21.0044 38
      vertex 9.6897 21.3653 38
    endloop
  endfacet
  facet normal 0 0 1
    outer loop
      vertex 7.54739 17.2835 38
      vertex -2 26 38
      vertex 7.54739 15.7165 38
    endloop
  endfacet
  facet normal 0 0 1
    outer loop
      vertex 7.66278 17.7516 38
      vertex -2 26 38
      vertex 7.54739 17.2835 38
    endloop
  endfacet
  facet normal 0 0 1
    outer loop
      vertex 7.9224 18.8049 38
      vertex -2 26 38
      vertex 7.66278 17.7516 38
    endloop
  endfacet
  facet normal 0 0 1
    outer loop
      vertex 8.14646 19.2319 38
      vertex -2 26 38
      vertex 7.9224 18.8049 38
    endloop
  endfacet
  facet normal 0 0 1
    outer loop
      vertex 8.65061 20.1924 38
      vertex -2 26 38
      vertex 8.14646 19.2319 38
    endloop
  endfacet
  facet normal 0 0 1
    outer loop
      vertex 9.36998 21.0044 38
      vertex -2 26 38
      vertex 8.65061 20.1924 38
    endloop
  endfacet
  facet normal 0 0 1
    outer loop
      vertex 10.9793 22.2555 38
      vertex -2 26 38
      vertex 9.6897 21.3653 38
    endloop
  endfacet
  facet normal 0 0 1
    outer loop
      vertex 11.4301 22.4264 38
      vertex -2 26 38
      vertex 10.9793 22.2555 38
    endloop
  endfacet
  facet normal 0 0 1
    outer loop
      vertex 13.5214 22.9419 38
      vertex -2 26 38
      vertex 12.4444 22.8111 38
    endloop
  endfacet
  facet normal 0 0 1
    outer loop
      vertex 20.3372 15.2484 38
      vertex 30 26 38
      vertex 20.4526 15.7165 38
    endloop
  endfacet
  facet normal 0 0 1
    outer loop
      vertex 30 26 38
      vertex 20.3372 15.2484 38
      vertex 30 -3 38
    endloop
  endfacet
  facet normal -0 0 1
    outer loop
      vertex 20.0776 14.1951 38
      vertex 30 -3 38
      vertex 20.3372 15.2484 38
    endloop
  endfacet
  facet normal -0 0 1
    outer loop
      vertex 19.8535 13.7681 38
      vertex 30 -3 38
      vertex 20.0776 14.1951 38
    endloop
  endfacet
  facet normal -0 0 1
    outer loop
      vertex 19.3494 12.8076 38
      vertex 30 -3 38
      vertex 19.8535 13.7681 38
    endloop
  endfacet
  facet normal -0 0 1
    outer loop
      vertex 18.63 11.9956 38
      vertex 30 -3 38
      vertex 19.3494 12.8076 38
    endloop
  endfacet
  facet normal -0 0 1
    outer loop
      vertex 18.3103 11.6347 38
      vertex 30 -3 38
      vertex 18.63 11.9956 38
    endloop
  endfacet
  facet normal -0 0 1
    outer loop
      vertex 17.0207 10.7445 38
      vertex 30 -3 38
      vertex 18.3103 11.6347 38
    endloop
  endfacet
  facet normal -0 0 1
    outer loop
      vertex 16.5699 10.5736 38
      vertex 30 -3 38
      vertex 17.0207 10.7445 38
    endloop
  endfacet
  facet normal -0 0 1
    outer loop
      vertex 15.5556 10.1889 38
      vertex 30 -3 38
      vertex 16.5699 10.5736 38
    endloop
  endfacet
  facet normal -0 0 1
    outer loop
      vertex 14.4786 10.0581 38
      vertex 30 -3 38
      vertex 15.5556 10.1889 38
    endloop
  endfacet
  facet normal -0 0 1
    outer loop
      vertex 14 10 38
      vertex 30 -3 38
      vertex 14.4786 10.0581 38
    endloop
  endfacet
  facet normal 0 0 1
    outer loop
      vertex -2 -3 38
      vertex 14 10 38
      vertex 13.5214 10.0581 38
    endloop
  endfacet
  facet normal 0 0 1
    outer loop
      vertex -2 -3 38
      vertex 13.5214 10.0581 38
      vertex 12.4444 10.1889 38
    endloop
  endfacet
  facet normal 0 0 1
    outer loop
      vertex -2 -3 38
      vertex 12.4444 10.1889 38
      vertex 11.4301 10.5736 38
    endloop
  endfacet
  facet normal 0 0 1
    outer loop
      vertex -2 -3 38
      vertex 11.4301 10.5736 38
      vertex 10.9793 10.7445 38
    endloop
  endfacet
  facet normal 0 0 1
    outer loop
      vertex -2 -3 38
      vertex 10.9793 10.7445 38
      vertex 9.6897 11.6347 38
    endloop
  endfacet
  facet normal 0 0 1
    outer loop
      vertex -2 -3 38
      vertex 9.36998 11.9956 38
      vertex 8.65061 12.8076 38
    endloop
  endfacet
  facet normal 0 0 1
    outer loop
      vertex -2 26 38
      vertex 7.66278 15.2484 38
      vertex 7.54739 15.7165 38
    endloop
  endfacet
  facet normal 0 0 1
    outer loop
      vertex -2 -3 38
      vertex 7.66278 15.2484 38
      vertex -2 26 38
    endloop
  endfacet
  facet normal 0 0 1
    outer loop
      vertex 7.66278 15.2484 38
      vertex -2 -3 38
      vertex 7.9224 14.1951 38
    endloop
  endfacet
  facet normal 0 0 1
    outer loop
      vertex 7.9224 14.1951 38
      vertex -2 -3 38
      vertex 8.14646 13.7681 38
    endloop
  endfacet
  facet normal 0 0 1
    outer loop
      vertex 14 10 38
      vertex -2 -3 38
      vertex 30 -3 38
    endloop
  endfacet
  facet normal 0 0 1
    outer loop
      vertex 9.36998 11.9956 38
      vertex -2 -3 38
      vertex 9.6897 11.6347 38
    endloop
  endfacet
  facet normal 0 0 1
    outer loop
      vertex 8.14646 13.7681 38
      vertex -2 -3 38
      vertex 8.65061 12.8076 38
    endloop
  endfacet
  facet normal -0 0 1
    outer loop
      vertex -2 39 38
      vertex 30 34 38
      vertex 30 39 38
    endloop
  endfacet
  facet normal 0 0 1
    outer loop
      vertex 30 34 38
      vertex -2 39 38
      vertex -2 34 38
    endloop
  endfacet
  facet normal 0 1 -0
    outer loop
      vertex 30 39 10
      vertex -2 39 38
      vertex 30 39 38
    endloop
  endfacet
  facet normal 0 1 0
    outer loop
      vertex -2 39 38
      vertex 30 39 10
      vertex -2 39 10
    endloop
  endfacet
  facet normal -1 0 0
    outer loop
      vertex -2 39 10
      vertex -2 34 36
      vertex -2 39 38
    endloop
  endfacet
  facet normal -1 0 0
    outer loop
      vertex -2 39 10
      vertex -2 26 36
      vertex -2 34 36
    endloop
  endfacet
  facet normal -1 0 0
    outer loop
      vertex -2 -3 10
      vertex -2 26 36
      vertex -2 39 10
    endloop
  endfacet
  facet normal -1 0 0
    outer loop
      vertex -2 -3 38
      vertex -2 26 36
      vertex -2 -3 10
    endloop
  endfacet
  facet normal -1 0 0
    outer loop
      vertex -2 26 36
      vertex -2 -3 38
      vertex -2 26 38
    endloop
  endfacet
  facet normal -1 -0 0
    outer loop
      vertex -2 39 38
      vertex -2 34 36
      vertex -2 34 38
    endloop
  endfacet
  facet normal 1 0 0
    outer loop
      vertex 30 26 38
      vertex 30 -3 38
      vertex 30 26 36
    endloop
  endfacet
  facet normal 1 0 0
    outer loop
      vertex 30 34 36
      vertex 30 39 38
      vertex 30 34 38
    endloop
  endfacet
  facet normal 1 0 0
    outer loop
      vertex 30 39 38
      vertex 30 34 36
      vertex 30 39 10
    endloop
  endfacet
  facet normal 1 -0 0
    outer loop
      vertex 30 26 36
      vertex 30 39 10
      vertex 30 34 36
    endloop
  endfacet
  facet normal 1 0 0
    outer loop
      vertex 30 -3 10
      vertex 30 26 36
      vertex 30 -3 38
    endloop
  endfacet
  facet normal 1 0 0
    outer loop
      vertex 30 26 36
      vertex 30 -3 10
      vertex 30 39 10
    endloop
  endfacet
  facet normal 0 1 0
    outer loop
      vertex 28 -1 34
      vertex 20 -1 25
      vertex 20 -1 34
    endloop
  endfacet
  facet normal 0 1 0
    outer loop
      vertex 20 -1 25
      vertex 20.5 -1 17
      vertex 8 -1 25
    endloop
  endfacet
  facet normal 0 1 -0
    outer loop
      vertex 28 -1 10
      vertex 20 -1 25
      vertex 28 -1 34
    endloop
  endfacet
  facet normal 0 1 0
    outer loop
      vertex 20 -1 25
      vertex 21 -1 16
      vertex 20.5 -1 17
    endloop
  endfacet
  facet normal 0 1 0
    outer loop
      vertex 20 -1 25
      vertex 28 -1 10
      vertex 21 -1 16
    endloop
  endfacet
  facet normal 0 1 0
    outer loop
      vertex 21 -1 16
      vertex 28 -1 10
      vertex 21.5 -1 15
    endloop
  endfacet
  facet normal 0 1 0
    outer loop
      vertex 21.5 -1 15
      vertex 28 -1 10
      vertex 22 -1 14
    endloop
  endfacet
  facet normal 0 1 0
    outer loop
      vertex 22 -1 14
      vertex 28 -1 10
      vertex 22.5 -1 13
    endloop
  endfacet
  facet normal 0 1 0
    outer loop
      vertex 22.5 -1 13
      vertex 28 -1 10
      vertex 23 -1 12
    endloop
  endfacet
  facet normal 0 1 0
    outer loop
      vertex 23 -1 12
      vertex 28 -1 10
      vertex 23.5 -1 11
    endloop
  endfacet
  facet normal 0 1 0
    outer loop
      vertex 23.5 -1 11
      vertex 28 -1 10
      vertex 23.5 -1 10
    endloop
  endfacet
  facet normal 0 1 -0
    outer loop
      vertex 8 -1 25
      vertex 4.44089e-016 -1 34
      vertex 8 -1 34
    endloop
  endfacet
  facet normal 0 1 0
    outer loop
      vertex 7.5 -1 17
      vertex 8 -1 25
      vertex 20.5 -1 17
    endloop
  endfacet
  facet normal 0 1 0
    outer loop
      vertex 7 -1 16
      vertex 8 -1 25
      vertex 7.5 -1 17
    endloop
  endfacet
  facet normal 0 1 0
    outer loop
      vertex 7 -1 16
      vertex 7.5 -1 17
      vertex 7.5 -1 16
    endloop
  endfacet
  facet normal 0 1 0
    outer loop
      vertex 4.44089e-016 -1 10
      vertex 8 -1 25
      vertex 7 -1 16
    endloop
  endfacet
  facet normal 0 1 0
    outer loop
      vertex 6.5 -1 15
      vertex 7 -1 16
      vertex 7 -1 15
    endloop
  endfacet
  facet normal 0 1 0
    outer loop
      vertex 4.44089e-016 -1 10
      vertex 7 -1 16
      vertex 6.5 -1 15
    endloop
  endfacet
  facet normal 0 1 0
    outer loop
      vertex 6 -1 14
      vertex 6.5 -1 15
      vertex 6.5 -1 14
    endloop
  endfacet
  facet normal 0 1 0
    outer loop
      vertex 4.44089e-016 -1 10
      vertex 6.5 -1 15
      vertex 6 -1 14
    endloop
  endfacet
  facet normal 0 1 0
    outer loop
      vertex 5.5 -1 13
      vertex 6 -1 14
      vertex 6 -1 13
    endloop
  endfacet
  facet normal 0 1 0
    outer loop
      vertex 4.44089e-016 -1 10
      vertex 6 -1 14
      vertex 5.5 -1 13
    endloop
  endfacet
  facet normal 0 1 0
    outer loop
      vertex 5 -1 12
      vertex 5.5 -1 13
      vertex 5.5 -1 12
    endloop
  endfacet
  facet normal 0 1 0
    outer loop
      vertex 4.44089e-016 -1 10
      vertex 5.5 -1 13
      vertex 5 -1 12
    endloop
  endfacet
  facet normal 0 1 0
    outer loop
      vertex 4.5 -1 11
      vertex 5 -1 12
      vertex 5 -1 11
    endloop
  endfacet
  facet normal 0 1 0
    outer loop
      vertex 4.44089e-016 -1 10
      vertex 5 -1 12
      vertex 4.5 -1 11
    endloop
  endfacet
  facet normal 0 1 0
    outer loop
      vertex 4.44089e-016 -1 10
      vertex 4.5 -1 11
      vertex 4.5 -1 10
    endloop
  endfacet
  facet normal 0 1 0
    outer loop
      vertex 8 -1 25
      vertex 4.44089e-016 -1 10
      vertex 4.44089e-016 -1 34
    endloop
  endfacet
  facet normal 0 1 0
    outer loop
      vertex 20.5 -1 17
      vertex 21 -1 16
      vertex 20.5 -1 16
    endloop
  endfacet
  facet normal 0 1 0
    outer loop
      vertex 21 -1 16
      vertex 21.5 -1 15
      vertex 21 -1 15
    endloop
  endfacet
  facet normal 0 1 0
    outer loop
      vertex 21.5 -1 15
      vertex 22 -1 14
      vertex 21.5 -1 14
    endloop
  endfacet
  facet normal 0 1 0
    outer loop
      vertex 22 -1 14
      vertex 22.5 -1 13
      vertex 22 -1 13
    endloop
  endfacet
  facet normal 0 1 0
    outer loop
      vertex 22.5 -1 13
      vertex 23 -1 12
      vertex 22.5 -1 12
    endloop
  endfacet
  facet normal 0 1 0
    outer loop
      vertex 23 -1 12
      vertex 23.5 -1 11
      vertex 23 -1 11
    endloop
  endfacet
  facet normal 0 0 -1
    outer loop
      vertex 4.44089e-016 -1 34
      vertex 8 3 34
      vertex 8 -1 34
    endloop
  endfacet
  facet normal -0 0 -1
    outer loop
      vertex 8 3 34
      vertex 4.44089e-016 -1 34
      vertex 7.82762 12.2395 34
    endloop
  endfacet
  facet normal -0 0 -1
    outer loop
      vertex 7.82762 12.2395 34
      vertex 4.44089e-016 -1 34
      vertex 7.65957 12.5597 34
    endloop
  endfacet
  facet normal -0 0 -1
    outer loop
      vertex 7.65957 12.5597 34
      vertex 4.44089e-016 -1 34
      vertex 6.98738 13.8405 34
    endloop
  endfacet
  facet normal -0 0 -1
    outer loop
      vertex 6.98738 13.8405 34
      vertex 4.44089e-016 -1 34
      vertex 6.90084 14.1916 34
    endloop
  endfacet
  facet normal 0 0 -1
    outer loop
      vertex 4.44089e-016 -1 34
      vertex 6.55468 17.404 34
      vertex 6.55468 15.596 34
    endloop
  endfacet
  facet normal -0 0 -1
    outer loop
      vertex 6.90084 14.1916 34
      vertex 4.44089e-016 -1 34
      vertex 6.55468 15.596 34
    endloop
  endfacet
  facet normal -0 0 -1
    outer loop
      vertex 6.55468 17.404 34
      vertex 4.44089e-016 -1 34
      vertex 8.88178e-015 37 34
    endloop
  endfacet
  facet normal 0 0 -1
    outer loop
      vertex 19.9326 21.0312 34
      vertex 20 30 34
      vertex 20.1724 20.7605 34
    endloop
  endfacet
  facet normal 0 0 -1
    outer loop
      vertex 18.9734 22.1138 34
      vertex 20 30 34
      vertex 19.9326 21.0312 34
    endloop
  endfacet
  facet normal 0 0 -1
    outer loop
      vertex 17.4854 23.1409 34
      vertex 20 30 34
      vertex 18.9734 22.1138 34
    endloop
  endfacet
  facet normal 0 0 -1
    outer loop
      vertex 16.133 23.6538 34
      vertex 20 30 34
      vertex 17.4854 23.1409 34
    endloop
  endfacet
  facet normal 0 0 -1
    outer loop
      vertex 15.7949 23.7821 34
      vertex 20 30 34
      vertex 16.133 23.6538 34
    endloop
  endfacet
  facet normal 0 0 -1
    outer loop
      vertex 15.4359 23.8257 34
      vertex 20 30 34
      vertex 15.7949 23.7821 34
    endloop
  endfacet
  facet normal 0 0 -1
    outer loop
      vertex 14 24 34
      vertex 20 30 34
      vertex 15.4359 23.8257 34
    endloop
  endfacet
  facet normal 0 0 -1
    outer loop
      vertex 8 30 34
      vertex 14 24 34
      vertex 12.5641 23.8257 34
    endloop
  endfacet
  facet normal 0 0 -1
    outer loop
      vertex 8 30 34
      vertex 12.5641 23.8257 34
      vertex 12.2051 23.7821 34
    endloop
  endfacet
  facet normal 0 0 -1
    outer loop
      vertex 8 30 34
      vertex 12.2051 23.7821 34
      vertex 11.867 23.6538 34
    endloop
  endfacet
  facet normal 0 0 -1
    outer loop
      vertex 8 30 34
      vertex 11.867 23.6538 34
      vertex 10.5146 23.1409 34
    endloop
  endfacet
  facet normal 0 0 -1
    outer loop
      vertex 8 30 34
      vertex 10.5146 23.1409 34
      vertex 9.02658 22.1138 34
    endloop
  endfacet
  facet normal 0 0 -1
    outer loop
      vertex 14 24 34
      vertex 8 30 34
      vertex 20 30 34
    endloop
  endfacet
  facet normal 0 0 -1
    outer loop
      vertex 8.06741 21.0312 34
      vertex 8 30 34
      vertex 9.02658 22.1138 34
    endloop
  endfacet
  facet normal 0 0 -1
    outer loop
      vertex 7.65957 20.4403 34
      vertex 8 30 34
      vertex 7.82762 20.7605 34
    endloop
  endfacet
  facet normal 0 0 -1
    outer loop
      vertex 7.82762 20.7605 34
      vertex 8 30 34
      vertex 8.06741 21.0312 34
    endloop
  endfacet
  facet normal 0 0 -1
    outer loop
      vertex 21.4453 17.404 34
      vertex 28 -1 34
      vertex 21.4453 15.596 34
    endloop
  endfacet
  facet normal 0 0 -1
    outer loop
      vertex 28 -1 34
      vertex 21.0992 14.1916 34
      vertex 21.4453 15.596 34
    endloop
  endfacet
  facet normal 0 0 -1
    outer loop
      vertex 28 -1 34
      vertex 21.0126 13.8405 34
      vertex 21.0992 14.1916 34
    endloop
  endfacet
  facet normal 0 0 -1
    outer loop
      vertex 28 -1 34
      vertex 20.3404 12.5597 34
      vertex 21.0126 13.8405 34
    endloop
  endfacet
  facet normal 0 0 -1
    outer loop
      vertex 28 -1 34
      vertex 20.1724 12.2395 34
      vertex 20.3404 12.5597 34
    endloop
  endfacet
  facet normal 0 0 -1
    outer loop
      vertex 20 3 34
      vertex 28 -1 34
      vertex 20 -1 34
    endloop
  endfacet
  facet normal 0 0 -1
    outer loop
      vertex 28 -1 34
      vertex 20 3 34
      vertex 20.1724 12.2395 34
    endloop
  endfacet
  facet normal 0 0 -1
    outer loop
      vertex 20 3 34
      vertex 19.9326 11.9688 34
      vertex 20.1724 12.2395 34
    endloop
  endfacet
  facet normal 0 0 -1
    outer loop
      vertex 20 3 34
      vertex 18.9734 10.8862 34
      vertex 19.9326 11.9688 34
    endloop
  endfacet
  facet normal 0 0 -1
    outer loop
      vertex 20 3 34
      vertex 17.4854 9.85908 34
      vertex 18.9734 10.8862 34
    endloop
  endfacet
  facet normal 0 0 -1
    outer loop
      vertex 20 3 34
      vertex 16.133 9.34616 34
      vertex 17.4854 9.85908 34
    endloop
  endfacet
  facet normal 0 0 -1
    outer loop
      vertex 20 3 34
      vertex 15.7949 9.21794 34
      vertex 16.133 9.34616 34
    endloop
  endfacet
  facet normal 0 0 -1
    outer loop
      vertex 20 3 34
      vertex 15.4359 9.17435 34
      vertex 15.7949 9.21794 34
    endloop
  endfacet
  facet normal 0 0 -1
    outer loop
      vertex 20 3 34
      vertex 14 9 34
      vertex 15.4359 9.17435 34
    endloop
  endfacet
  facet normal 0 0 -1
    outer loop
      vertex 8 3 34
      vertex 14 9 34
      vertex 20 3 34
    endloop
  endfacet
  facet normal -0 0 -1
    outer loop
      vertex 14 9 34
      vertex 8 3 34
      vertex 12.5641 9.17435 34
    endloop
  endfacet
  facet normal -0 0 -1
    outer loop
      vertex 12.5641 9.17435 34
      vertex 8 3 34
      vertex 12.2051 9.21794 34
    endloop
  endfacet
  facet normal -0 0 -1
    outer loop
      vertex 12.2051 9.21794 34
      vertex 8 3 34
      vertex 11.867 9.34616 34
    endloop
  endfacet
  facet normal -0 0 -1
    outer loop
      vertex 11.867 9.34616 34
      vertex 8 3 34
      vertex 10.5146 9.85908 34
    endloop
  endfacet
  facet normal -0 0 -1
    outer loop
      vertex 10.5146 9.85908 34
      vertex 8 3 34
      vertex 9.02658 10.8862 34
    endloop
  endfacet
  facet normal 0 0 -1
    outer loop
      vertex 8 3 34
      vertex 8.06741 11.9688 34
      vertex 9.02658 10.8862 34
    endloop
  endfacet
  facet normal -0 0 -1
    outer loop
      vertex 8.06741 11.9688 34
      vertex 8 3 34
      vertex 7.82762 12.2395 34
    endloop
  endfacet
  facet normal 0 0 -1
    outer loop
      vertex 28 -1 34
      vertex 21.4453 17.404 34
      vertex 28 37 34
    endloop
  endfacet
  facet normal 0 0 -1
    outer loop
      vertex 21.0992 18.8084 34
      vertex 28 37 34
      vertex 21.4453 17.404 34
    endloop
  endfacet
  facet normal 0 0 -1
    outer loop
      vertex 21.0126 19.1595 34
      vertex 28 37 34
      vertex 21.0992 18.8084 34
    endloop
  endfacet
  facet normal 0 0 -1
    outer loop
      vertex 20.3404 20.4403 34
      vertex 28 37 34
      vertex 21.0126 19.1595 34
    endloop
  endfacet
  facet normal 0 0 -1
    outer loop
      vertex 20 30 34
      vertex 20.3404 20.4403 34
      vertex 20.1724 20.7605 34
    endloop
  endfacet
  facet normal 0 0 -1
    outer loop
      vertex 20.3404 20.4403 34
      vertex 20 30 34
      vertex 28 37 34
    endloop
  endfacet
  facet normal 0 0 -1
    outer loop
      vertex 20 35 34
      vertex 28 37 34
      vertex 20 30 34
    endloop
  endfacet
  facet normal 0 0 -1
    outer loop
      vertex 8 35 34
      vertex 28 37 34
      vertex 20 35 34
    endloop
  endfacet
  facet normal -0 0 -1
    outer loop
      vertex 8 30 34
      vertex 7.65957 20.4403 34
      vertex 8.88178e-015 37 34
    endloop
  endfacet
  facet normal 0 0 -1
    outer loop
      vertex 8.88178e-015 37 34
      vertex 7.65957 20.4403 34
      vertex 6.98738 19.1595 34
    endloop
  endfacet
  facet normal 0 0 -1
    outer loop
      vertex 8.88178e-015 37 34
      vertex 6.98738 19.1595 34
      vertex 6.90084 18.8084 34
    endloop
  endfacet
  facet normal 0 0 -1
    outer loop
      vertex 8.88178e-015 37 34
      vertex 6.90084 18.8084 34
      vertex 6.55468 17.404 34
    endloop
  endfacet
  facet normal 0 0 -1
    outer loop
      vertex 8 35 34
      vertex 8.88178e-015 37 34
      vertex 28 37 34
    endloop
  endfacet
  facet normal 0 0 -1
    outer loop
      vertex 8 30 34
      vertex 8.88178e-015 37 34
      vertex 8 35 34
    endloop
  endfacet
  facet normal 0 -1 0
    outer loop
      vertex 8.88178e-015 37 10
      vertex 28 37 34
      vertex 8.88178e-015 37 34
    endloop
  endfacet
  facet normal 0 -1 -0
    outer loop
      vertex 28 37 34
      vertex 8.88178e-015 37 10
      vertex 28 37 10
    endloop
  endfacet
  facet normal -1 0 0
    outer loop
      vertex 28 -1 10
      vertex 28 37 34
      vertex 28 37 10
    endloop
  endfacet
  facet normal -1 -0 0
    outer loop
      vertex 28 37 34
      vertex 28 -1 10
      vertex 28 -1 34
    endloop
  endfacet
  facet normal 1 -2.22045e-016 0
    outer loop
      vertex 4.44089e-016 -1 34
      vertex 8.88178e-015 37 10
      vertex 8.88178e-015 37 34
    endloop
  endfacet
  facet normal 1 -2.22045e-016 0
    outer loop
      vertex 8.88178e-015 37 10
      vertex 4.44089e-016 -1 34
      vertex 4.44089e-016 -1 10
    endloop
  endfacet
  facet normal 0.116988 -0.963481 -0.24087
    outer loop
      vertex 14 24 34
      vertex 13.5214 22.9419 38
      vertex 12.5641 23.8257 34
    endloop
  endfacet
  facet normal 0.116989 -0.963481 -0.24087
    outer loop
      vertex 13.5214 22.9419 38
      vertex 14 24 34
      vertex 14 23 38
    endloop
  endfacet
  facet normal 0.942355 0.23227 -0.24087
    outer loop
      vertex 7.9224 14.1951 38
      vertex 6.90084 14.1916 34
      vertex 7.66278 15.2484 38
    endloop
  endfacet
  facet normal 0.942355 0.23227 -0.24087
    outer loop
      vertex 6.90084 14.1916 34
      vertex 7.9224 14.1951 38
      vertex 6.98738 13.8405 34
    endloop
  endfacet
  facet normal -0.726473 -0.643599 -0.24087
    outer loop
      vertex 19.9326 21.0312 34
      vertex 18.3103 21.3653 38
      vertex 18.9734 22.1138 34
    endloop
  endfacet
  facet normal -0.726475 -0.643596 -0.240871
    outer loop
      vertex 18.3103 21.3653 38
      vertex 19.9326 21.0312 34
      vertex 18.63 21.0044 38
    endloop
  endfacet
  facet normal 0.726473 -0.643598 -0.24087
    outer loop
      vertex 9.6897 21.3653 38
      vertex 8.06741 21.0312 34
      vertex 9.02658 22.1138 34
    endloop
  endfacet
  facet normal 0.726474 -0.643597 -0.240871
    outer loop
      vertex 8.06741 21.0312 34
      vertex 9.6897 21.3653 38
      vertex 9.36998 21.0044 38
    endloop
  endfacet
  facet normal 0.859386 -0.45104 -0.24087
    outer loop
      vertex 8.14646 19.2319 38
      vertex 6.98738 19.1595 34
      vertex 7.65957 20.4403 34
    endloop
  endfacet
  facet normal 0.859386 -0.45104 -0.24087
    outer loop
      vertex 6.98738 19.1595 34
      vertex 8.14646 19.2319 38
      vertex 7.9224 18.8049 38
    endloop
  endfacet
  facet normal -0.116989 -0.963481 -0.24087
    outer loop
      vertex 14 24 34
      vertex 14.4786 22.9419 38
      vertex 14 23 38
    endloop
  endfacet
  facet normal -0.116988 -0.963481 -0.24087
    outer loop
      vertex 14.4786 22.9419 38
      vertex 14 24 34
      vertex 15.4359 23.8257 34
    endloop
  endfacet
  facet normal 0.344165 0.907487 -0.24087
    outer loop
      vertex 11.867 9.34616 34
      vertex 10.9793 10.7445 38
      vertex 11.4301 10.5736 38
    endloop
  endfacet
  facet normal 0.344164 0.907487 -0.24087
    outer loop
      vertex 10.9793 10.7445 38
      vertex 11.867 9.34616 34
      vertex 10.5146 9.85908 34
    endloop
  endfacet
  facet normal 0.551339 0.798753 -0.24087
    outer loop
      vertex 10.5146 9.85908 34
      vertex 9.6897 11.6347 38
      vertex 10.9793 10.7445 38
    endloop
  endfacet
  facet normal 0.551339 0.798753 -0.24087
    outer loop
      vertex 9.6897 11.6347 38
      vertex 10.5146 9.85908 34
      vertex 9.02658 10.8862 34
    endloop
  endfacet
  facet normal 0.344165 0.907487 -0.24087
    outer loop
      vertex 11.867 9.34616 34
      vertex 12.4444 10.1889 38
      vertex 12.2051 9.21794 34
    endloop
  endfacet
  facet normal 0.344164 0.907487 -0.24087
    outer loop
      vertex 12.4444 10.1889 38
      vertex 11.867 9.34616 34
      vertex 11.4301 10.5736 38
    endloop
  endfacet
  facet normal -0.116986 0.963481 -0.24087
    outer loop
      vertex 15.4359 9.17435 34
      vertex 15.5556 10.1889 38
      vertex 15.7949 9.21794 34
    endloop
  endfacet
  facet normal -0.116988 0.963481 -0.24087
    outer loop
      vertex 15.5556 10.1889 38
      vertex 15.4359 9.17435 34
      vertex 14.4786 10.0581 38
    endloop
  endfacet
  facet normal -0.942355 -0.232269 -0.24087
    outer loop
      vertex 21.4453 17.404 34
      vertex 20.3372 17.7516 38
      vertex 21.0992 18.8084 34
    endloop
  endfacet
  facet normal -0.942355 -0.232269 -0.24087
    outer loop
      vertex 20.3372 17.7516 38
      vertex 21.4453 17.404 34
      vertex 20.4526 17.2835 38
    endloop
  endfacet
  facet normal -0.726472 0.643599 -0.24087
    outer loop
      vertex 20.1724 12.2395 34
      vertex 18.63 11.9956 38
      vertex 19.3494 12.8076 38
    endloop
  endfacet
  facet normal -0.726472 0.643599 -0.24087
    outer loop
      vertex 18.63 11.9956 38
      vertex 20.1724 12.2395 34
      vertex 19.9326 11.9688 34
    endloop
  endfacet
  facet normal 0.344163 -0.907487 -0.24087
    outer loop
      vertex 10.5146 23.1409 34
      vertex 11.4301 22.4264 38
      vertex 10.9793 22.2555 38
    endloop
  endfacet
  facet normal 0.344164 -0.907487 -0.24087
    outer loop
      vertex 11.4301 22.4264 38
      vertex 10.5146 23.1409 34
      vertex 11.867 23.6538 34
    endloop
  endfacet
  facet normal 0.116988 0.963481 -0.24087
    outer loop
      vertex 12.5641 9.17435 34
      vertex 12.4444 10.1889 38
      vertex 13.5214 10.0581 38
    endloop
  endfacet
  facet normal 0.116986 0.963481 -0.24087
    outer loop
      vertex 12.4444 10.1889 38
      vertex 12.5641 9.17435 34
      vertex 12.2051 9.21794 34
    endloop
  endfacet
  facet normal -0.942355 0.232269 -0.24087
    outer loop
      vertex 21.0992 14.1916 34
      vertex 20.0776 14.1951 38
      vertex 20.3372 15.2484 38
    endloop
  endfacet
  facet normal -0.942355 0.232268 -0.24087
    outer loop
      vertex 20.0776 14.1951 38
      vertex 21.0992 14.1916 34
      vertex 21.0126 13.8405 34
    endloop
  endfacet
  facet normal -0.859385 -0.451042 -0.24087
    outer loop
      vertex 20.3404 20.4403 34
      vertex 19.3494 20.1924 38
      vertex 20.1724 20.7605 34
    endloop
  endfacet
  facet normal -0.859385 -0.451041 -0.24087
    outer loop
      vertex 19.3494 20.1924 38
      vertex 20.3404 20.4403 34
      vertex 19.8535 19.2319 38
    endloop
  endfacet
  facet normal -0.551338 -0.798754 -0.24087
    outer loop
      vertex 17.4854 23.1409 34
      vertex 18.3103 21.3653 38
      vertex 17.0207 22.2555 38
    endloop
  endfacet
  facet normal -0.551339 -0.798754 -0.24087
    outer loop
      vertex 18.3103 21.3653 38
      vertex 17.4854 23.1409 34
      vertex 18.9734 22.1138 34
    endloop
  endfacet
  facet normal 0.970557 0 -0.24087
    outer loop
      vertex 7.54739 15.7165 38
      vertex 6.55468 17.404 34
      vertex 7.54739 17.2835 38
    endloop
  endfacet
  facet normal 0.970557 0 -0.24087
    outer loop
      vertex 6.55468 17.404 34
      vertex 7.54739 15.7165 38
      vertex 6.55468 15.596 34
    endloop
  endfacet
  facet normal 0.942355 -0.232269 -0.24087
    outer loop
      vertex 7.66278 17.7516 38
      vertex 6.55468 17.404 34
      vertex 6.90084 18.8084 34
    endloop
  endfacet
  facet normal 0.942355 -0.232269 -0.24087
    outer loop
      vertex 6.55468 17.404 34
      vertex 7.66278 17.7516 38
      vertex 7.54739 17.2835 38
    endloop
  endfacet
  facet normal 0.942355 -0.23227 -0.24087
    outer loop
      vertex 7.9224 18.8049 38
      vertex 6.90084 18.8084 34
      vertex 6.98738 19.1595 34
    endloop
  endfacet
  facet normal 0.942355 -0.23227 -0.24087
    outer loop
      vertex 6.90084 18.8084 34
      vertex 7.9224 18.8049 38
      vertex 7.66278 17.7516 38
    endloop
  endfacet
  facet normal 0.859386 0.451041 -0.24087
    outer loop
      vertex 8.65061 12.8076 38
      vertex 7.65957 12.5597 34
      vertex 8.14646 13.7681 38
    endloop
  endfacet
  facet normal 0.859385 0.451041 -0.24087
    outer loop
      vertex 7.65957 12.5597 34
      vertex 8.65061 12.8076 38
      vertex 7.82762 12.2395 34
    endloop
  endfacet
  facet normal 0.859386 0.45104 -0.24087
    outer loop
      vertex 8.14646 13.7681 38
      vertex 6.98738 13.8405 34
      vertex 7.9224 14.1951 38
    endloop
  endfacet
  facet normal 0.859386 0.45104 -0.24087
    outer loop
      vertex 6.98738 13.8405 34
      vertex 8.14646 13.7681 38
      vertex 7.65957 12.5597 34
    endloop
  endfacet
  facet normal 0.726473 0.643598 -0.24087
    outer loop
      vertex 9.6897 11.6347 38
      vertex 8.06741 11.9688 34
      vertex 9.36998 11.9956 38
    endloop
  endfacet
  facet normal 0.726473 0.643598 -0.24087
    outer loop
      vertex 8.06741 11.9688 34
      vertex 9.6897 11.6347 38
      vertex 9.02658 10.8862 34
    endloop
  endfacet
  facet normal 0.551339 -0.798753 -0.24087
    outer loop
      vertex 10.5146 23.1409 34
      vertex 9.6897 21.3653 38
      vertex 9.02658 22.1138 34
    endloop
  endfacet
  facet normal 0.551339 -0.798753 -0.24087
    outer loop
      vertex 9.6897 21.3653 38
      vertex 10.5146 23.1409 34
      vertex 10.9793 22.2555 38
    endloop
  endfacet
  facet normal 0.859385 -0.451043 -0.24087
    outer loop
      vertex 8.65061 20.1924 38
      vertex 7.65957 20.4403 34
      vertex 7.82762 20.7605 34
    endloop
  endfacet
  facet normal 0.859386 -0.45104 -0.24087
    outer loop
      vertex 7.65957 20.4403 34
      vertex 8.65061 20.1924 38
      vertex 8.14646 19.2319 38
    endloop
  endfacet
  facet normal 0.116992 -0.96348 -0.24087
    outer loop
      vertex 12.5641 23.8257 34
      vertex 12.4444 22.8111 38
      vertex 12.2051 23.7821 34
    endloop
  endfacet
  facet normal 0.116988 -0.963481 -0.24087
    outer loop
      vertex 12.4444 22.8111 38
      vertex 12.5641 23.8257 34
      vertex 13.5214 22.9419 38
    endloop
  endfacet
  facet normal -0.726474 0.643597 -0.240871
    outer loop
      vertex 19.9326 11.9688 34
      vertex 18.3103 11.6347 38
      vertex 18.63 11.9956 38
    endloop
  endfacet
  facet normal -0.726473 0.643598 -0.24087
    outer loop
      vertex 18.3103 11.6347 38
      vertex 19.9326 11.9688 34
      vertex 18.9734 10.8862 34
    endloop
  endfacet
  facet normal -0.344164 0.907487 -0.24087
    outer loop
      vertex 16.133 9.34616 34
      vertex 15.5556 10.1889 38
      vertex 16.5699 10.5736 38
    endloop
  endfacet
  facet normal -0.344165 0.907487 -0.24087
    outer loop
      vertex 15.5556 10.1889 38
      vertex 16.133 9.34616 34
      vertex 15.7949 9.21794 34
    endloop
  endfacet
  facet normal 0.116987 0.963481 -0.24087
    outer loop
      vertex 14 9 34
      vertex 13.5214 10.0581 38
      vertex 14 10 38
    endloop
  endfacet
  facet normal 0.116988 0.963481 -0.24087
    outer loop
      vertex 13.5214 10.0581 38
      vertex 14 9 34
      vertex 12.5641 9.17435 34
    endloop
  endfacet
  facet normal -0.116988 0.963481 -0.24087
    outer loop
      vertex 14 9 34
      vertex 14.4786 10.0581 38
      vertex 15.4359 9.17435 34
    endloop
  endfacet
  facet normal -0.116987 0.963481 -0.24087
    outer loop
      vertex 14.4786 10.0581 38
      vertex 14 9 34
      vertex 14 10 38
    endloop
  endfacet
  facet normal -0.970557 0 -0.24087
    outer loop
      vertex 21.4453 17.404 34
      vertex 20.4526 15.7165 38
      vertex 20.4526 17.2835 38
    endloop
  endfacet
  facet normal -0.970557 0 -0.24087
    outer loop
      vertex 20.4526 15.7165 38
      vertex 21.4453 17.404 34
      vertex 21.4453 15.596 34
    endloop
  endfacet
  facet normal -0.859386 -0.45104 -0.24087
    outer loop
      vertex 21.0126 19.1595 34
      vertex 19.8535 19.2319 38
      vertex 20.3404 20.4403 34
    endloop
  endfacet
  facet normal -0.859387 -0.451039 -0.24087
    outer loop
      vertex 19.8535 19.2319 38
      vertex 21.0126 19.1595 34
      vertex 20.0776 18.8049 38
    endloop
  endfacet
  facet normal -0.942355 -0.232268 -0.24087
    outer loop
      vertex 21.0992 18.8084 34
      vertex 20.0776 18.8049 38
      vertex 21.0126 19.1595 34
    endloop
  endfacet
  facet normal -0.942355 -0.23227 -0.24087
    outer loop
      vertex 20.0776 18.8049 38
      vertex 21.0992 18.8084 34
      vertex 20.3372 17.7516 38
    endloop
  endfacet
  facet normal -0.726474 -0.643597 -0.240871
    outer loop
      vertex 20.1724 20.7605 34
      vertex 18.63 21.0044 38
      vertex 19.9326 21.0312 34
    endloop
  endfacet
  facet normal -0.726472 -0.643599 -0.24087
    outer loop
      vertex 18.63 21.0044 38
      vertex 20.1724 20.7605 34
      vertex 19.3494 20.1924 38
    endloop
  endfacet
  facet normal -0.344168 -0.907486 -0.24087
    outer loop
      vertex 16.133 23.6538 34
      vertex 17.0207 22.2555 38
      vertex 16.5699 22.4264 38
    endloop
  endfacet
  facet normal -0.344166 -0.907486 -0.24087
    outer loop
      vertex 17.0207 22.2555 38
      vertex 16.133 23.6538 34
      vertex 17.4854 23.1409 34
    endloop
  endfacet
  facet normal 0.942355 0.232269 -0.24087
    outer loop
      vertex 7.66278 15.2484 38
      vertex 6.55468 15.596 34
      vertex 7.54739 15.7165 38
    endloop
  endfacet
  facet normal 0.942355 0.232269 -0.24087
    outer loop
      vertex 6.55468 15.596 34
      vertex 7.66278 15.2484 38
      vertex 6.90084 14.1916 34
    endloop
  endfacet
  facet normal 0.726473 0.643599 -0.24087
    outer loop
      vertex 9.36998 11.9956 38
      vertex 7.82762 12.2395 34
      vertex 8.65061 12.8076 38
    endloop
  endfacet
  facet normal 0.726473 0.643599 -0.24087
    outer loop
      vertex 7.82762 12.2395 34
      vertex 9.36998 11.9956 38
      vertex 8.06741 11.9688 34
    endloop
  endfacet
  facet normal 0.726474 -0.643597 -0.240871
    outer loop
      vertex 9.36998 21.0044 38
      vertex 7.82762 20.7605 34
      vertex 8.06741 21.0312 34
    endloop
  endfacet
  facet normal 0.726472 -0.643599 -0.24087
    outer loop
      vertex 7.82762 20.7605 34
      vertex 9.36998 21.0044 38
      vertex 8.65061 20.1924 38
    endloop
  endfacet
  facet normal 0.344164 -0.907487 -0.240871
    outer loop
      vertex 11.867 23.6538 34
      vertex 12.4444 22.8111 38
      vertex 11.4301 22.4264 38
    endloop
  endfacet
  facet normal 0.34416 -0.907488 -0.24087
    outer loop
      vertex 12.4444 22.8111 38
      vertex 11.867 23.6538 34
      vertex 12.2051 23.7821 34
    endloop
  endfacet
  facet normal -0.551339 0.798753 -0.24087
    outer loop
      vertex 17.4854 9.85908 34
      vertex 18.3103 11.6347 38
      vertex 18.9734 10.8862 34
    endloop
  endfacet
  facet normal -0.551339 0.798753 -0.24087
    outer loop
      vertex 18.3103 11.6347 38
      vertex 17.4854 9.85908 34
      vertex 17.0207 10.7445 38
    endloop
  endfacet
  facet normal -0.344165 0.907487 -0.24087
    outer loop
      vertex 17.4854 9.85908 34
      vertex 16.5699 10.5736 38
      vertex 17.0207 10.7445 38
    endloop
  endfacet
  facet normal -0.344165 0.907487 -0.24087
    outer loop
      vertex 16.5699 10.5736 38
      vertex 17.4854 9.85908 34
      vertex 16.133 9.34616 34
    endloop
  endfacet
  facet normal -0.942355 0.232269 -0.24087
    outer loop
      vertex 21.4453 15.596 34
      vertex 20.3372 15.2484 38
      vertex 20.4526 15.7165 38
    endloop
  endfacet
  facet normal -0.942355 0.232269 -0.24087
    outer loop
      vertex 20.3372 15.2484 38
      vertex 21.4453 15.596 34
      vertex 21.0992 14.1916 34
    endloop
  endfacet
  facet normal -0.34416 -0.907488 -0.24087
    outer loop
      vertex 16.133 23.6538 34
      vertex 15.5556 22.8111 38
      vertex 15.7949 23.7821 34
    endloop
  endfacet
  facet normal -0.344164 -0.907487 -0.240871
    outer loop
      vertex 15.5556 22.8111 38
      vertex 16.133 23.6538 34
      vertex 16.5699 22.4264 38
    endloop
  endfacet
  facet normal -0.116988 -0.963481 -0.24087
    outer loop
      vertex 15.4359 23.8257 34
      vertex 15.5556 22.8111 38
      vertex 14.4786 22.9419 38
    endloop
  endfacet
  facet normal -0.116991 -0.96348 -0.24087
    outer loop
      vertex 15.5556 22.8111 38
      vertex 15.4359 23.8257 34
      vertex 15.7949 23.7821 34
    endloop
  endfacet
  facet normal -0.859385 0.451041 -0.24087
    outer loop
      vertex 20.3404 12.5597 34
      vertex 19.3494 12.8076 38
      vertex 19.8535 13.7681 38
    endloop
  endfacet
  facet normal -0.859387 0.451037 -0.24087
    outer loop
      vertex 19.3494 12.8076 38
      vertex 20.3404 12.5597 34
      vertex 20.1724 12.2395 34
    endloop
  endfacet
  facet normal -0.859387 0.451039 -0.24087
    outer loop
      vertex 21.0126 13.8405 34
      vertex 19.8535 13.7681 38
      vertex 20.0776 14.1951 38
    endloop
  endfacet
  facet normal -0.859386 0.451041 -0.24087
    outer loop
      vertex 19.8535 13.7681 38
      vertex 21.0126 13.8405 34
      vertex 20.3404 12.5597 34
    endloop
  endfacet
  facet normal 0 1 -0
    outer loop
      vertex 30 26 36
      vertex -2 26 38
      vertex 30 26 38
    endloop
  endfacet
  facet normal 0 1 0
    outer loop
      vertex -2 26 38
      vertex 30 26 36
      vertex -2 26 36
    endloop
  endfacet
  facet normal 0 -1 0
    outer loop
      vertex -2 34 36
      vertex 30 34 38
      vertex -2 34 38
    endloop
  endfacet
  facet normal 0 -1 -0
    outer loop
      vertex 30 34 38
      vertex -2 34 36
      vertex 30 34 36
    endloop
  endfacet
  facet normal -0 0 1
    outer loop
      vertex -2 34 36
      vertex 30 26 36
      vertex 30 34 36
    endloop
  endfacet
  facet normal 0 0 1
    outer loop
      vertex 30 26 36
      vertex -2 34 36
      vertex -2 26 36
    endloop
  endfacet
  facet normal 0 -1 0
    outer loop
      vertex 8 30 18
      vertex 20 30 34
      vertex 8 30 34
    endloop
  endfacet
  facet normal 0 -1 -0
    outer loop
      vertex 20 30 34
      vertex 8 30 18
      vertex 20 30 18
    endloop
  endfacet
  facet normal 0 1 -0
    outer loop
      vertex 20 35 18
      vertex 8 35 34
      vertex 20 35 34
    endloop
  endfacet
  facet normal 0 1 0
    outer loop
      vertex 8 35 34
      vertex 20 35 18
      vertex 8 35 18
    endloop
  endfacet
  facet normal -1 0 0
    outer loop
      vertex 8 30 18
      vertex 8 35 34
      vertex 8 35 18
    endloop
  endfacet
  facet normal -1 -0 0
    outer loop
      vertex 8 35 34
      vertex 8 30 18
      vertex 8 30 34
    endloop
  endfacet
  facet normal 0 0 -1
    outer loop
      vertex 8 30 18
      vertex 20 35 18
      vertex 20 30 18
    endloop
  endfacet
  facet normal -0 0 -1
    outer loop
      vertex 20 35 18
      vertex 8 30 18
      vertex 8 35 18
    endloop
  endfacet
  facet normal 1 -0 0
    outer loop
      vertex 20 30 34
      vertex 20 35 18
      vertex 20 35 34
    endloop
  endfacet
  facet normal 1 0 0
    outer loop
      vertex 20 35 18
      vertex 20 30 34
      vertex 20 30 18
    endloop
  endfacet
  facet normal 0 1 -0
    outer loop
      vertex 20 3 25
      vertex 8 3 34
      vertex 20 3 34
    endloop
  endfacet
  facet normal 0 1 0
    outer loop
      vertex 8 3 34
      vertex 20 3 25
      vertex 8 3 25
    endloop
  endfacet
  facet normal 0 0 -1
    outer loop
      vertex 8 -1 25
      vertex 20 3 25
      vertex 20 -1 25
    endloop
  endfacet
  facet normal -0 0 -1
    outer loop
      vertex 20 3 25
      vertex 8 -1 25
      vertex 8 3 25
    endloop
  endfacet
  facet normal 1 -0 0
    outer loop
      vertex 20 -1 34
      vertex 20 3 25
      vertex 20 3 34
    endloop
  endfacet
  facet normal 1 0 0
    outer loop
      vertex 20 3 25
      vertex 20 -1 34
      vertex 20 -1 25
    endloop
  endfacet
  facet normal -1 0 0
    outer loop
      vertex 8 -1 25
      vertex 8 3 34
      vertex 8 3 25
    endloop
  endfacet
  facet normal -1 -0 0
    outer loop
      vertex 8 3 34
      vertex 8 -1 25
      vertex 8 -1 34
    endloop
  endfacet
endsolid OpenSCAD_Model
