solid OpenSCAD_Model
  facet normal -1 0 0
    outer loop
      vertex -2 24 -4
      vertex -2 -3 -4
      vertex -2 24 -1
    endloop
  endfacet
  facet normal -1 0 0
    outer loop
      vertex -2 32 -1
      vertex -2 38 -4
      vertex -2 32 -4
    endloop
  endfacet
  facet normal -1 0 0
    outer loop
      vertex -2 38 -4
      vertex -2 32 -1
      vertex -2 38 4
    endloop
  endfacet
  facet normal -1 0 0
    outer loop
      vertex -2 24 -1
      vertex -2 38 4
      vertex -2 32 -1
    endloop
  endfacet
  facet normal -1 0 0
    outer loop
      vertex -2 -3 4
      vertex -2 24 -1
      vertex -2 -3 -4
    endloop
  endfacet
  facet normal -1 0 0
    outer loop
      vertex -2 24 -1
      vertex -2 -3 4
      vertex -2 38 4
    endloop
  endfacet
  facet normal 0 0 1
    outer loop
      vertex 7 38 4
      vertex 1 35 4
      vertex 7 35 4
    endloop
  endfacet
  facet normal -0 0 1
    outer loop
      vertex -2 38 4
      vertex 1 35 4
      vertex 7 38 4
    endloop
  endfacet
  facet normal 0 0 1
    outer loop
      vertex 0 35 4
      vertex -2 38 4
      vertex 0 0 4
    endloop
  endfacet
  facet normal 0 0 1
    outer loop
      vertex 1 35 4
      vertex -2 38 4
      vertex 0 35 4
    endloop
  endfacet
  facet normal -0 0 1
    outer loop
      vertex 6 0 4
      vertex 7 -3 4
      vertex 7 0 4
    endloop
  endfacet
  facet normal -0 0 1
    outer loop
      vertex 1 0 4
      vertex 7 -3 4
      vertex 6 0 4
    endloop
  endfacet
  facet normal 0 0 1
    outer loop
      vertex -2 -3 4
      vertex 1 0 4
      vertex 0 0 4
    endloop
  endfacet
  facet normal 0 0 1
    outer loop
      vertex 1 0 4
      vertex -2 -3 4
      vertex 7 -3 4
    endloop
  endfacet
  facet normal 0 0 1
    outer loop
      vertex -2 -3 4
      vertex 0 0 4
      vertex -2 38 4
    endloop
  endfacet
  facet normal 0 0 1
    outer loop
      vertex 29 38 4
      vertex 27 35 4
      vertex 29 -3 4
    endloop
  endfacet
  facet normal 0 0 1
    outer loop
      vertex 29 38 4
      vertex 26 35 4
      vertex 27 35 4
    endloop
  endfacet
  facet normal -0 0 1
    outer loop
      vertex 19 38 4
      vertex 26 35 4
      vertex 29 38 4
    endloop
  endfacet
  facet normal 0 0 1
    outer loop
      vertex 26 35 4
      vertex 19 38 4
      vertex 19 35 4
    endloop
  endfacet
  facet normal -0 0 1
    outer loop
      vertex 27 0 4
      vertex 29 -3 4
      vertex 27 35 4
    endloop
  endfacet
  facet normal -0 0 1
    outer loop
      vertex 25 0 4
      vertex 29 -3 4
      vertex 27 0 4
    endloop
  endfacet
  facet normal 0 0 1
    outer loop
      vertex 19 -3 4
      vertex 25 0 4
      vertex 20 0 4
    endloop
  endfacet
  facet normal 0 0 1
    outer loop
      vertex 19 -3 4
      vertex 20 0 4
      vertex 19 0 4
    endloop
  endfacet
  facet normal 0 0 1
    outer loop
      vertex 25 0 4
      vertex 19 -3 4
      vertex 29 -3 4
    endloop
  endfacet
  facet normal 1 0 0
    outer loop
      vertex 29 38 4
      vertex 29 32 -1
      vertex 29 38 -4
    endloop
  endfacet
  facet normal 1 0 0
    outer loop
      vertex 29 38 4
      vertex 29 24 -1
      vertex 29 32 -1
    endloop
  endfacet
  facet normal 1 -0 0
    outer loop
      vertex 29 -3 4
      vertex 29 24 -1
      vertex 29 38 4
    endloop
  endfacet
  facet normal 1 0 0
    outer loop
      vertex 29 -3 -4
      vertex 29 24 -1
      vertex 29 -3 4
    endloop
  endfacet
  facet normal 1 0 0
    outer loop
      vertex 29 24 -1
      vertex 29 -3 -4
      vertex 29 24 -4
    endloop
  endfacet
  facet normal 1 0 0
    outer loop
      vertex 29 38 -4
      vertex 29 32 -1
      vertex 29 32 -4
    endloop
  endfacet
  facet normal 0 1 0
    outer loop
      vertex 29 38 4
      vertex 19 38 2
      vertex 19 38 4
    endloop
  endfacet
  facet normal 0 1 0
    outer loop
      vertex -2 38 -4
      vertex 19 38 2
      vertex 29 38 -4
    endloop
  endfacet
  facet normal 0 1 -0
    outer loop
      vertex 29 38 -4
      vertex 19 38 2
      vertex 29 38 4
    endloop
  endfacet
  facet normal 0 1 -0
    outer loop
      vertex 7 38 2
      vertex -2 38 4
      vertex 7 38 4
    endloop
  endfacet
  facet normal 0 1 0
    outer loop
      vertex 19 38 2
      vertex -2 38 -4
      vertex 7 38 2
    endloop
  endfacet
  facet normal 0 1 0
    outer loop
      vertex 7 38 2
      vertex -2 38 -4
      vertex -2 38 4
    endloop
  endfacet
  facet normal 0 0 -1
    outer loop
      vertex -2 32 -4
      vertex 29 38 -4
      vertex 29 32 -4
    endloop
  endfacet
  facet normal -0 0 -1
    outer loop
      vertex 29 38 -4
      vertex -2 32 -4
      vertex -2 38 -4
    endloop
  endfacet
  facet normal 0 0 -1
    outer loop
      vertex -2 -3 -4
      vertex 29 24 -4
      vertex 29 -3 -4
    endloop
  endfacet
  facet normal -0 0 -1
    outer loop
      vertex 29 24 -4
      vertex -2 -3 -4
      vertex -2 24 -4
    endloop
  endfacet
  facet normal 0 -1 0
    outer loop
      vertex -2 -3 4
      vertex 7 -3 3
      vertex 7 -3 4
    endloop
  endfacet
  facet normal 0 -1 -0
    outer loop
      vertex 7 -3 3
      vertex -2 -3 -4
      vertex 19 -3 3
    endloop
  endfacet
  facet normal 0 -1 0
    outer loop
      vertex -2 -3 -4
      vertex 7 -3 3
      vertex -2 -3 4
    endloop
  endfacet
  facet normal 0 -1 0
    outer loop
      vertex 19 -3 3
      vertex 29 -3 4
      vertex 19 -3 4
    endloop
  endfacet
  facet normal 0 -1 0
    outer loop
      vertex 29 -3 -4
      vertex 19 -3 3
      vertex -2 -3 -4
    endloop
  endfacet
  facet normal 0 -1 0
    outer loop
      vertex 19 -3 3
      vertex 29 -3 -4
      vertex 29 -3 4
    endloop
  endfacet
  facet normal 1 -0 0
    outer loop
      vertex 0 0 4
      vertex 0 35 0
      vertex 0 35 4
    endloop
  endfacet
  facet normal 1 0 0
    outer loop
      vertex 0 35 0
      vertex 0 0 4
      vertex 0 0 0
    endloop
  endfacet
  facet normal -1 0 0
    outer loop
      vertex 27 0 0
      vertex 27 35 4
      vertex 27 35 0
    endloop
  endfacet
  facet normal -1 -0 0
    outer loop
      vertex 27 35 4
      vertex 27 0 0
      vertex 27 0 4
    endloop
  endfacet
  facet normal 0 1 -0
    outer loop
      vertex 26 35 4
      vertex 19 35 6
      vertex 26 35 6
    endloop
  endfacet
  facet normal 0 1 0
    outer loop
      vertex 19 35 6
      vertex 26 35 4
      vertex 19 35 4
    endloop
  endfacet
  facet normal 0 1 -0
    outer loop
      vertex 7 35 4
      vertex 1 35 6
      vertex 7 35 6
    endloop
  endfacet
  facet normal 0 1 0
    outer loop
      vertex 1 35 6
      vertex 7 35 4
      vertex 1 35 4
    endloop
  endfacet
  facet normal 0 -1 0
    outer loop
      vertex 0 35 0
      vertex 1 35 4
      vertex 0 35 4
    endloop
  endfacet
  facet normal 0 -1 -0
    outer loop
      vertex 1 35 4
      vertex 0 35 0
      vertex 1 35 0
    endloop
  endfacet
  facet normal 0 -1 0
    outer loop
      vertex 26 35 0
      vertex 27 35 4
      vertex 26 35 4
    endloop
  endfacet
  facet normal 0 -1 -0
    outer loop
      vertex 27 35 4
      vertex 26 35 0
      vertex 27 35 0
    endloop
  endfacet
  facet normal -0 0 1
    outer loop
      vertex 0 35 0
      vertex 1 34 0
      vertex 1 35 0
    endloop
  endfacet
  facet normal 0 0 1
    outer loop
      vertex 1 34 0
      vertex 0 35 0
      vertex 1 1 0
    endloop
  endfacet
  facet normal 0 0 1
    outer loop
      vertex 0 0 0
      vertex 1 1 0
      vertex 0 35 0
    endloop
  endfacet
  facet normal 0 0 1
    outer loop
      vertex 1 1 0
      vertex 0 0 0
      vertex 1 0 0
    endloop
  endfacet
  facet normal -0 0 1
    outer loop
      vertex 15.4271 6.76336 0
      vertex 25 1 0
      vertex 15.4271 23.2366 0
    endloop
  endfacet
  facet normal 0 0 1
    outer loop
      vertex 25 1 0
      vertex 15.4271 6.76336 0
      vertex 16 5 0
    endloop
  endfacet
  facet normal -0 0 1
    outer loop
      vertex 13.9271 22.1468 0
      vertex 15.4271 6.76336 0
      vertex 15.4271 23.2366 0
    endloop
  endfacet
  facet normal 0 0 1
    outer loop
      vertex 13.9271 22.1468 0
      vertex 13.9271 7.85317 0
      vertex 15.4271 6.76336 0
    endloop
  endfacet
  facet normal -0 0 1
    outer loop
      vertex 12.0729 22.1468 0
      vertex 13.9271 7.85317 0
      vertex 13.9271 22.1468 0
    endloop
  endfacet
  facet normal 0 0 1
    outer loop
      vertex 12.0729 22.1468 0
      vertex 12.0729 7.85317 0
      vertex 13.9271 7.85317 0
    endloop
  endfacet
  facet normal 0 0 1
    outer loop
      vertex 10.5729 23.2366 0
      vertex 12.0729 7.85317 0
      vertex 12.0729 22.1468 0
    endloop
  endfacet
  facet normal 0 0 1
    outer loop
      vertex 10.5729 23.2366 0
      vertex 10.5729 6.76336 0
      vertex 12.0729 7.85317 0
    endloop
  endfacet
  facet normal 0 0 1
    outer loop
      vertex 1 34 0
      vertex 10.5729 23.2366 0
      vertex 10 25 0
    endloop
  endfacet
  facet normal 0 0 1
    outer loop
      vertex 10.5729 23.2366 0
      vertex 1 1 0
      vertex 10.5729 6.76336 0
    endloop
  endfacet
  facet normal 0 0 1
    outer loop
      vertex 15.4271 23.2366 0
      vertex 26 34 0
      vertex 16 25 0
    endloop
  endfacet
  facet normal 0 0 1
    outer loop
      vertex 25 1 0
      vertex 16 5 0
      vertex 20 1 0
    endloop
  endfacet
  facet normal 0 0 1
    outer loop
      vertex 26 34 0
      vertex 15.4271 23.2366 0
      vertex 25 1 0
    endloop
  endfacet
  facet normal 0 0 1
    outer loop
      vertex 26 34 0
      vertex 15.4271 26.7634 0
      vertex 16 25 0
    endloop
  endfacet
  facet normal 0 0 1
    outer loop
      vertex 26 34 0
      vertex 13.9271 27.8532 0
      vertex 15.4271 26.7634 0
    endloop
  endfacet
  facet normal -0 0 1
    outer loop
      vertex 1 34 0
      vertex 13.9271 27.8532 0
      vertex 26 34 0
    endloop
  endfacet
  facet normal 0 0 1
    outer loop
      vertex 10.5729 6.76336 0
      vertex 1 1 0
      vertex 10 5 0
    endloop
  endfacet
  facet normal 0 0 1
    outer loop
      vertex 13.9271 27.8532 0
      vertex 1 34 0
      vertex 12.0729 27.8532 0
    endloop
  endfacet
  facet normal 0 0 1
    outer loop
      vertex 1 34 0
      vertex 10.5729 26.7634 0
      vertex 12.0729 27.8532 0
    endloop
  endfacet
  facet normal 0 0 1
    outer loop
      vertex 1 34 0
      vertex 10 25 0
      vertex 10.5729 26.7634 0
    endloop
  endfacet
  facet normal 0 0 1
    outer loop
      vertex 10.5729 23.2366 0
      vertex 1 34 0
      vertex 1 1 0
    endloop
  endfacet
  facet normal 0 0 1
    outer loop
      vertex 10 5 0
      vertex 1 1 0
      vertex 6 1 0
    endloop
  endfacet
  facet normal 0 0 1
    outer loop
      vertex 26 34 0
      vertex 27 35 0
      vertex 26 35 0
    endloop
  endfacet
  facet normal 0 0 1
    outer loop
      vertex 27 35 0
      vertex 26 34 0
      vertex 27 0 0
    endloop
  endfacet
  facet normal -0 0 1
    outer loop
      vertex 25 1 0
      vertex 27 0 0
      vertex 26 34 0
    endloop
  endfacet
  facet normal 0 0 1
    outer loop
      vertex 27 0 0
      vertex 25 1 0
      vertex 25 0 0
    endloop
  endfacet
  facet normal -0 0 1
    outer loop
      vertex 15.4271 3.23664 0
      vertex 20 1 0
      vertex 16 5 0
    endloop
  endfacet
  facet normal 0 0 1
    outer loop
      vertex 20 1 0
      vertex 15.4271 3.23664 0
      vertex 20 0 0
    endloop
  endfacet
  facet normal -0 0 1
    outer loop
      vertex 13.9271 2.14683 0
      vertex 20 0 0
      vertex 15.4271 3.23664 0
    endloop
  endfacet
  facet normal -0 0 1
    outer loop
      vertex 12.0729 2.14683 0
      vertex 20 0 0
      vertex 13.9271 2.14683 0
    endloop
  endfacet
  facet normal 0 0 1
    outer loop
      vertex 6 1 0
      vertex 10.5729 3.23664 0
      vertex 10 5 0
    endloop
  endfacet
  facet normal 0 0 1
    outer loop
      vertex 6 0 0
      vertex 10.5729 3.23664 0
      vertex 6 1 0
    endloop
  endfacet
  facet normal 0 0 1
    outer loop
      vertex 10.5729 3.23664 0
      vertex 6 0 0
      vertex 12.0729 2.14683 0
    endloop
  endfacet
  facet normal 0 0 1
    outer loop
      vertex 12.0729 2.14683 0
      vertex 6 0 0
      vertex 20 0 0
    endloop
  endfacet
  facet normal 0 -1 0
    outer loop
      vertex 20 0 4
      vertex 25 0 6
      vertex 20 0 6
    endloop
  endfacet
  facet normal 0 -1 -0
    outer loop
      vertex 25 0 6
      vertex 20 0 4
      vertex 25 0 4
    endloop
  endfacet
  facet normal 0 -1 0
    outer loop
      vertex 1 0 4
      vertex 6 0 6
      vertex 1 0 6
    endloop
  endfacet
  facet normal 0 -1 -0
    outer loop
      vertex 6 0 6
      vertex 1 0 4
      vertex 6 0 4
    endloop
  endfacet
  facet normal 0 1 -0
    outer loop
      vertex 1 0 0
      vertex 0 0 4
      vertex 1 0 4
    endloop
  endfacet
  facet normal 0 1 0
    outer loop
      vertex 0 0 4
      vertex 1 0 0
      vertex 0 0 0
    endloop
  endfacet
  facet normal 0 1 -0
    outer loop
      vertex 27 0 0
      vertex 25 0 4
      vertex 27 0 4
    endloop
  endfacet
  facet normal 0 1 0
    outer loop
      vertex 25 0 4
      vertex 27 0 0
      vertex 25 0 0
    endloop
  endfacet
  facet normal 0 1 0
    outer loop
      vertex 20 0 4
      vertex 19 0 3
      vertex 19 0 4
    endloop
  endfacet
  facet normal 0 1 0
    outer loop
      vertex 19 0 3
      vertex 20 0 0
      vertex 7 0 3
    endloop
  endfacet
  facet normal 0 1 -0
    outer loop
      vertex 20 0 0
      vertex 19 0 3
      vertex 20 0 4
    endloop
  endfacet
  facet normal 0 1 -0
    outer loop
      vertex 7 0 3
      vertex 6 0 4
      vertex 7 0 4
    endloop
  endfacet
  facet normal 0 1 0
    outer loop
      vertex 7 0 3
      vertex 6 0 0
      vertex 6 0 4
    endloop
  endfacet
  facet normal 0 1 0
    outer loop
      vertex 6 0 0
      vertex 7 0 3
      vertex 20 0 0
    endloop
  endfacet
  facet normal 1 -0 0
    outer loop
      vertex 7 34 6
      vertex 7 35 4
      vertex 7 35 6
    endloop
  endfacet
  facet normal 1 0 0
    outer loop
      vertex 7 34 2
      vertex 7 35 4
      vertex 7 34 6
    endloop
  endfacet
  facet normal 1 0 0
    outer loop
      vertex 7 35 4
      vertex 7 34 2
      vertex 7 35 2
    endloop
  endfacet
  facet normal 1 -0 0
    outer loop
      vertex 7 35 4
      vertex 7 38 2
      vertex 7 38 4
    endloop
  endfacet
  facet normal 1 0 0
    outer loop
      vertex 7 38 2
      vertex 7 35 4
      vertex 7 35 2
    endloop
  endfacet
  facet normal -1 0 0
    outer loop
      vertex 19 35 2
      vertex 19 38 4
      vertex 19 38 2
    endloop
  endfacet
  facet normal -1 0 0
    outer loop
      vertex 19 35 2
      vertex 19 35 4
      vertex 19 38 4
    endloop
  endfacet
  facet normal -1 0 0
    outer loop
      vertex 19 34 2
      vertex 19 35 4
      vertex 19 35 2
    endloop
  endfacet
  facet normal -1 0 0
    outer loop
      vertex 19 34 6
      vertex 19 35 4
      vertex 19 34 2
    endloop
  endfacet
  facet normal -1 0 0
    outer loop
      vertex 19 35 4
      vertex 19 34 6
      vertex 19 35 6
    endloop
  endfacet
  facet normal 0 0 1
    outer loop
      vertex 7 35 2
      vertex 19 35 2
      vertex 19 38 2
    endloop
  endfacet
  facet normal 0 0 1
    outer loop
      vertex 7 35 2
      vertex 19 38 2
      vertex 7 38 2
    endloop
  endfacet
  facet normal 0 0 1
    outer loop
      vertex 19 35 2
      vertex 7 35 2
      vertex 19 34 2
    endloop
  endfacet
  facet normal 0 0 1
    outer loop
      vertex 19 34 2
      vertex 7 35 2
      vertex 7 34 2
    endloop
  endfacet
  facet normal -1 0 0
    outer loop
      vertex 1 0 4
      vertex 1 1 0
      vertex 1 0 0
    endloop
  endfacet
  facet normal -1 0 0
    outer loop
      vertex 1 1 0
      vertex 1 0 4
      vertex 1 1 6
    endloop
  endfacet
  facet normal -1 -0 0
    outer loop
      vertex 1 1 6
      vertex 1 0 4
      vertex 1 0 6
    endloop
  endfacet
  facet normal -0 0 1
    outer loop
      vertex 1 1 6
      vertex 6 0 6
      vertex 6 1 6
    endloop
  endfacet
  facet normal 0 0 1
    outer loop
      vertex 6 0 6
      vertex 1 1 6
      vertex 1 0 6
    endloop
  endfacet
  facet normal 1 0 0
    outer loop
      vertex 6 0 4
      vertex 6 1 6
      vertex 6 0 6
    endloop
  endfacet
  facet normal 1 0 0
    outer loop
      vertex 6 1 6
      vertex 6 0 4
      vertex 6 1 0
    endloop
  endfacet
  facet normal 1 0 0
    outer loop
      vertex 6 1 0
      vertex 6 0 4
      vertex 6 0 0
    endloop
  endfacet
  facet normal 0 1 -0
    outer loop
      vertex 6 1 0
      vertex 1 1 6
      vertex 6 1 6
    endloop
  endfacet
  facet normal 0 1 0
    outer loop
      vertex 1 1 6
      vertex 6 1 0
      vertex 1 1 0
    endloop
  endfacet
  facet normal -1 0 0
    outer loop
      vertex 20 0 4
      vertex 20 1 0
      vertex 20 0 0
    endloop
  endfacet
  facet normal -1 0 0
    outer loop
      vertex 20 1 0
      vertex 20 0 4
      vertex 20 1 6
    endloop
  endfacet
  facet normal -1 -0 0
    outer loop
      vertex 20 1 6
      vertex 20 0 4
      vertex 20 0 6
    endloop
  endfacet
  facet normal -0 0 1
    outer loop
      vertex 20 1 6
      vertex 25 0 6
      vertex 25 1 6
    endloop
  endfacet
  facet normal 0 0 1
    outer loop
      vertex 25 0 6
      vertex 20 1 6
      vertex 20 0 6
    endloop
  endfacet
  facet normal 1 0 0
    outer loop
      vertex 25 0 4
      vertex 25 1 6
      vertex 25 0 6
    endloop
  endfacet
  facet normal 1 0 0
    outer loop
      vertex 25 1 6
      vertex 25 0 4
      vertex 25 1 0
    endloop
  endfacet
  facet normal 1 0 0
    outer loop
      vertex 25 1 0
      vertex 25 0 4
      vertex 25 0 0
    endloop
  endfacet
  facet normal 0 1 -0
    outer loop
      vertex 25 1 0
      vertex 20 1 6
      vertex 25 1 6
    endloop
  endfacet
  facet normal 0 1 0
    outer loop
      vertex 20 1 6
      vertex 25 1 0
      vertex 20 1 0
    endloop
  endfacet
  facet normal -1 0 0
    outer loop
      vertex 1 34 0
      vertex 1 35 4
      vertex 1 35 0
    endloop
  endfacet
  facet normal -1 0 0
    outer loop
      vertex 1 34 6
      vertex 1 35 4
      vertex 1 34 0
    endloop
  endfacet
  facet normal -1 0 0
    outer loop
      vertex 1 35 4
      vertex 1 34 6
      vertex 1 35 6
    endloop
  endfacet
  facet normal -0 0 1
    outer loop
      vertex 1 35 6
      vertex 7 34 6
      vertex 7 35 6
    endloop
  endfacet
  facet normal 0 0 1
    outer loop
      vertex 7 34 6
      vertex 1 35 6
      vertex 1 34 6
    endloop
  endfacet
  facet normal -0 0 1
    outer loop
      vertex 19 35 6
      vertex 26 34 6
      vertex 26 35 6
    endloop
  endfacet
  facet normal 0 0 1
    outer loop
      vertex 26 34 6
      vertex 19 35 6
      vertex 19 34 6
    endloop
  endfacet
  facet normal 1 -0 0
    outer loop
      vertex 26 34 6
      vertex 26 35 4
      vertex 26 35 6
    endloop
  endfacet
  facet normal 1 0 0
    outer loop
      vertex 26 34 0
      vertex 26 35 4
      vertex 26 34 6
    endloop
  endfacet
  facet normal 1 0 0
    outer loop
      vertex 26 35 4
      vertex 26 34 0
      vertex 26 35 0
    endloop
  endfacet
  facet normal 0 -1 0
    outer loop
      vertex 1 34 6
      vertex 7 34 2
      vertex 7 34 6
    endloop
  endfacet
  facet normal 0 -1 -0
    outer loop
      vertex 7 34 2
      vertex 1 34 0
      vertex 19 34 2
    endloop
  endfacet
  facet normal 0 -1 0
    outer loop
      vertex 1 34 0
      vertex 7 34 2
      vertex 1 34 6
    endloop
  endfacet
  facet normal 0 -1 0
    outer loop
      vertex 19 34 2
      vertex 26 34 6
      vertex 19 34 6
    endloop
  endfacet
  facet normal 0 -1 0
    outer loop
      vertex 19 34 2
      vertex 26 34 0
      vertex 26 34 6
    endloop
  endfacet
  facet normal 0 -1 0
    outer loop
      vertex 26 34 0
      vertex 19 34 2
      vertex 1 34 0
    endloop
  endfacet
  facet normal 0.951056 0.309017 0
    outer loop
      vertex 16 5 3
      vertex 15.4271 6.76336 0
      vertex 15.4271 6.76336 3
    endloop
  endfacet
  facet normal 0.951056 0.309017 0
    outer loop
      vertex 15.4271 6.76336 0
      vertex 16 5 3
      vertex 16 5 0
    endloop
  endfacet
  facet normal 0 1 -0
    outer loop
      vertex 13.9271 7.85317 0
      vertex 12.0729 7.85317 3
      vertex 13.9271 7.85317 3
    endloop
  endfacet
  facet normal 0 1 0
    outer loop
      vertex 12.0729 7.85317 3
      vertex 13.9271 7.85317 0
      vertex 12.0729 7.85317 0
    endloop
  endfacet
  facet normal 0.587785 0.809017 -0
    outer loop
      vertex 15.4271 6.76336 0
      vertex 13.9271 7.85317 3
      vertex 15.4271 6.76336 3
    endloop
  endfacet
  facet normal 0.587785 0.809017 0
    outer loop
      vertex 13.9271 7.85317 3
      vertex 15.4271 6.76336 0
      vertex 13.9271 7.85317 0
    endloop
  endfacet
  facet normal -0.951057 -0.309017 0
    outer loop
      vertex 10.5729 3.23664 0
      vertex 10 5 3
      vertex 10 5 0
    endloop
  endfacet
  facet normal -0.951057 -0.309017 0
    outer loop
      vertex 10 5 3
      vertex 10.5729 3.23664 0
      vertex 10.5729 3.23664 3
    endloop
  endfacet
  facet normal -0.587785 0.809017 0
    outer loop
      vertex 12.0729 7.85317 0
      vertex 10.5729 6.76336 3
      vertex 12.0729 7.85317 3
    endloop
  endfacet
  facet normal -0.587785 0.809017 0
    outer loop
      vertex 10.5729 6.76336 3
      vertex 12.0729 7.85317 0
      vertex 10.5729 6.76336 0
    endloop
  endfacet
  facet normal 0.951056 -0.309017 0
    outer loop
      vertex 15.4271 3.23664 3
      vertex 16 5 0
      vertex 16 5 3
    endloop
  endfacet
  facet normal 0.951056 -0.309017 0
    outer loop
      vertex 16 5 0
      vertex 15.4271 3.23664 3
      vertex 15.4271 3.23664 0
    endloop
  endfacet
  facet normal 0.587785 -0.809017 0
    outer loop
      vertex 13.9271 2.14683 0
      vertex 15.4271 3.23664 3
      vertex 13.9271 2.14683 3
    endloop
  endfacet
  facet normal 0.587785 -0.809017 0
    outer loop
      vertex 15.4271 3.23664 3
      vertex 13.9271 2.14683 0
      vertex 15.4271 3.23664 0
    endloop
  endfacet
  facet normal -0.587785 -0.809017 0
    outer loop
      vertex 10.5729 3.23664 0
      vertex 12.0729 2.14683 3
      vertex 10.5729 3.23664 3
    endloop
  endfacet
  facet normal -0.587785 -0.809017 -0
    outer loop
      vertex 12.0729 2.14683 3
      vertex 10.5729 3.23664 0
      vertex 12.0729 2.14683 0
    endloop
  endfacet
  facet normal 0 -1 0
    outer loop
      vertex 12.0729 2.14683 0
      vertex 13.9271 2.14683 3
      vertex 12.0729 2.14683 3
    endloop
  endfacet
  facet normal 0 -1 -0
    outer loop
      vertex 13.9271 2.14683 3
      vertex 12.0729 2.14683 0
      vertex 13.9271 2.14683 0
    endloop
  endfacet
  facet normal 0 0 1
    outer loop
      vertex 15.4271 6.76336 3
      vertex 15.4271 3.23664 3
      vertex 16 5 3
    endloop
  endfacet
  facet normal 0 0 1
    outer loop
      vertex 13.9271 7.85317 3
      vertex 15.4271 3.23664 3
      vertex 15.4271 6.76336 3
    endloop
  endfacet
  facet normal 0 0 1
    outer loop
      vertex 13.9271 7.85317 3
      vertex 13.9271 2.14683 3
      vertex 15.4271 3.23664 3
    endloop
  endfacet
  facet normal -0 0 1
    outer loop
      vertex 12.0729 7.85317 3
      vertex 13.9271 2.14683 3
      vertex 13.9271 7.85317 3
    endloop
  endfacet
  facet normal 0 0 1
    outer loop
      vertex 12.0729 7.85317 3
      vertex 12.0729 2.14683 3
      vertex 13.9271 2.14683 3
    endloop
  endfacet
  facet normal -0 0 1
    outer loop
      vertex 10.5729 6.76336 3
      vertex 12.0729 2.14683 3
      vertex 12.0729 7.85317 3
    endloop
  endfacet
  facet normal 0 0 1
    outer loop
      vertex 10.5729 6.76336 3
      vertex 10.5729 3.23664 3
      vertex 12.0729 2.14683 3
    endloop
  endfacet
  facet normal 0 -0 1
    outer loop
      vertex 10.5729 3.23664 3
      vertex 10.5729 6.76336 3
      vertex 10 5 3
    endloop
  endfacet
  facet normal -0.951057 0.309017 0
    outer loop
      vertex 10 5 0
      vertex 10.5729 6.76336 3
      vertex 10.5729 6.76336 0
    endloop
  endfacet
  facet normal -0.951057 0.309017 0
    outer loop
      vertex 10.5729 6.76336 3
      vertex 10 5 0
      vertex 10 5 3
    endloop
  endfacet
  facet normal 0.951056 0.309017 0
    outer loop
      vertex 16 25 3
      vertex 15.4271 26.7634 0
      vertex 15.4271 26.7634 3
    endloop
  endfacet
  facet normal 0.951056 0.309017 0
    outer loop
      vertex 15.4271 26.7634 0
      vertex 16 25 3
      vertex 16 25 0
    endloop
  endfacet
  facet normal 0 1 -0
    outer loop
      vertex 13.9271 27.8532 0
      vertex 12.0729 27.8532 3
      vertex 13.9271 27.8532 3
    endloop
  endfacet
  facet normal 0 1 0
    outer loop
      vertex 12.0729 27.8532 3
      vertex 13.9271 27.8532 0
      vertex 12.0729 27.8532 0
    endloop
  endfacet
  facet normal 0.587785 0.809017 -0
    outer loop
      vertex 15.4271 26.7634 0
      vertex 13.9271 27.8532 3
      vertex 15.4271 26.7634 3
    endloop
  endfacet
  facet normal 0.587785 0.809017 0
    outer loop
      vertex 13.9271 27.8532 3
      vertex 15.4271 26.7634 0
      vertex 13.9271 27.8532 0
    endloop
  endfacet
  facet normal -0.951057 -0.309017 0
    outer loop
      vertex 10.5729 23.2366 0
      vertex 10 25 3
      vertex 10 25 0
    endloop
  endfacet
  facet normal -0.951057 -0.309017 0
    outer loop
      vertex 10 25 3
      vertex 10.5729 23.2366 0
      vertex 10.5729 23.2366 3
    endloop
  endfacet
  facet normal -0.587785 0.809017 0
    outer loop
      vertex 12.0729 27.8532 0
      vertex 10.5729 26.7634 3
      vertex 12.0729 27.8532 3
    endloop
  endfacet
  facet normal -0.587785 0.809017 0
    outer loop
      vertex 10.5729 26.7634 3
      vertex 12.0729 27.8532 0
      vertex 10.5729 26.7634 0
    endloop
  endfacet
  facet normal 0.951056 -0.309017 0
    outer loop
      vertex 15.4271 23.2366 3
      vertex 16 25 0
      vertex 16 25 3
    endloop
  endfacet
  facet normal 0.951056 -0.309017 0
    outer loop
      vertex 16 25 0
      vertex 15.4271 23.2366 3
      vertex 15.4271 23.2366 0
    endloop
  endfacet
  facet normal 0.587786 -0.809017 0
    outer loop
      vertex 13.9271 22.1468 0
      vertex 15.4271 23.2366 3
      vertex 13.9271 22.1468 3
    endloop
  endfacet
  facet normal 0.587786 -0.809017 0
    outer loop
      vertex 15.4271 23.2366 3
      vertex 13.9271 22.1468 0
      vertex 15.4271 23.2366 0
    endloop
  endfacet
  facet normal -0.587786 -0.809017 0
    outer loop
      vertex 10.5729 23.2366 0
      vertex 12.0729 22.1468 3
      vertex 10.5729 23.2366 3
    endloop
  endfacet
  facet normal -0.587786 -0.809017 -0
    outer loop
      vertex 12.0729 22.1468 3
      vertex 10.5729 23.2366 0
      vertex 12.0729 22.1468 0
    endloop
  endfacet
  facet normal 0 -1 0
    outer loop
      vertex 12.0729 22.1468 0
      vertex 13.9271 22.1468 3
      vertex 12.0729 22.1468 3
    endloop
  endfacet
  facet normal 0 -1 -0
    outer loop
      vertex 13.9271 22.1468 3
      vertex 12.0729 22.1468 0
      vertex 13.9271 22.1468 0
    endloop
  endfacet
  facet normal 0 0 1
    outer loop
      vertex 15.4271 26.7634 3
      vertex 15.4271 23.2366 3
      vertex 16 25 3
    endloop
  endfacet
  facet normal 0 0 1
    outer loop
      vertex 13.9271 27.8532 3
      vertex 15.4271 23.2366 3
      vertex 15.4271 26.7634 3
    endloop
  endfacet
  facet normal 0 0 1
    outer loop
      vertex 13.9271 27.8532 3
      vertex 13.9271 22.1468 3
      vertex 15.4271 23.2366 3
    endloop
  endfacet
  facet normal -0 0 1
    outer loop
      vertex 12.0729 27.8532 3
      vertex 13.9271 22.1468 3
      vertex 13.9271 27.8532 3
    endloop
  endfacet
  facet normal 0 0 1
    outer loop
      vertex 12.0729 27.8532 3
      vertex 12.0729 22.1468 3
      vertex 13.9271 22.1468 3
    endloop
  endfacet
  facet normal -0 0 1
    outer loop
      vertex 10.5729 26.7634 3
      vertex 12.0729 22.1468 3
      vertex 12.0729 27.8532 3
    endloop
  endfacet
  facet normal 0 0 1
    outer loop
      vertex 10.5729 26.7634 3
      vertex 10.5729 23.2366 3
      vertex 12.0729 22.1468 3
    endloop
  endfacet
  facet normal 0 -0 1
    outer loop
      vertex 10.5729 23.2366 3
      vertex 10.5729 26.7634 3
      vertex 10 25 3
    endloop
  endfacet
  facet normal -0.951057 0.309017 0
    outer loop
      vertex 10 25 0
      vertex 10.5729 26.7634 3
      vertex 10.5729 26.7634 0
    endloop
  endfacet
  facet normal -0.951057 0.309017 0
    outer loop
      vertex 10.5729 26.7634 3
      vertex 10 25 0
      vertex 10 25 3
    endloop
  endfacet
  facet normal 1 -0 0
    outer loop
      vertex 7 -3 4
      vertex 7 0 3
      vertex 7 0 4
    endloop
  endfacet
  facet normal 1 0 0
    outer loop
      vertex 7 0 3
      vertex 7 -3 4
      vertex 7 -3 3
    endloop
  endfacet
  facet normal -1 0 0
    outer loop
      vertex 19 -3 3
      vertex 19 0 4
      vertex 19 0 3
    endloop
  endfacet
  facet normal -1 -0 0
    outer loop
      vertex 19 0 4
      vertex 19 -3 3
      vertex 19 -3 4
    endloop
  endfacet
  facet normal -0 0 1
    outer loop
      vertex 7 0 3
      vertex 19 -3 3
      vertex 19 0 3
    endloop
  endfacet
  facet normal 0 0 1
    outer loop
      vertex 19 -3 3
      vertex 7 0 3
      vertex 7 -3 3
    endloop
  endfacet
  facet normal 0 0 -1
    outer loop
      vertex -2 24 -1
      vertex 29 32 -1
      vertex 29 24 -1
    endloop
  endfacet
  facet normal -0 0 -1
    outer loop
      vertex 29 32 -1
      vertex -2 24 -1
      vertex -2 32 -1
    endloop
  endfacet
  facet normal 0 -1 0
    outer loop
      vertex -2 32 -4
      vertex 29 32 -1
      vertex -2 32 -1
    endloop
  endfacet
  facet normal 0 -1 -0
    outer loop
      vertex 29 32 -1
      vertex -2 32 -4
      vertex 29 32 -4
    endloop
  endfacet
  facet normal 0 1 -0
    outer loop
      vertex 29 24 -4
      vertex -2 24 -1
      vertex 29 24 -1
    endloop
  endfacet
  facet normal 0 1 0
    outer loop
      vertex -2 24 -1
      vertex 29 24 -4
      vertex -2 24 -4
    endloop
  endfacet
endsolid OpenSCAD_Model
